G04 #@! TF.GenerationSoftware,KiCad,Pcbnew,(5.1.9)-1*
G04 #@! TF.CreationDate,2023-05-10T22:08:07+02:00*
G04 #@! TF.ProjectId,repeater,72657065-6174-4657-922e-6b696361645f,1*
G04 #@! TF.SameCoordinates,Original*
G04 #@! TF.FileFunction,Legend,Top*
G04 #@! TF.FilePolarity,Positive*
%FSLAX46Y46*%
G04 Gerber Fmt 4.6, Leading zero omitted, Abs format (unit mm)*
G04 Created by KiCad (PCBNEW (5.1.9)-1) date 2023-05-10 22:08:07*
%MOMM*%
%LPD*%
G01*
G04 APERTURE LIST*
%ADD10C,0.100000*%
%ADD11C,0.200000*%
%ADD12C,0.120000*%
%ADD13C,0.150000*%
%ADD14R,1.600000X1.600000*%
%ADD15O,1.600000X1.600000*%
%ADD16O,1.600000X2.400000*%
%ADD17R,1.600000X2.400000*%
%ADD18C,1.600000*%
%ADD19O,1.700000X1.700000*%
%ADD20R,1.700000X1.700000*%
G04 APERTURE END LIST*
D10*
X74656904Y-77139285D02*
X73856904Y-77139285D01*
X74237857Y-77139285D02*
X74237857Y-76682142D01*
X74656904Y-76682142D02*
X73856904Y-76682142D01*
X74618809Y-76339285D02*
X74656904Y-76225000D01*
X74656904Y-76034523D01*
X74618809Y-75958333D01*
X74580714Y-75920238D01*
X74504523Y-75882142D01*
X74428333Y-75882142D01*
X74352142Y-75920238D01*
X74314047Y-75958333D01*
X74275952Y-76034523D01*
X74237857Y-76186904D01*
X74199761Y-76263095D01*
X74161666Y-76301190D01*
X74085476Y-76339285D01*
X74009285Y-76339285D01*
X73933095Y-76301190D01*
X73895000Y-76263095D01*
X73856904Y-76186904D01*
X73856904Y-75996428D01*
X73895000Y-75882142D01*
X74275952Y-75386904D02*
X74656904Y-75386904D01*
X73856904Y-75653571D02*
X74275952Y-75386904D01*
X73856904Y-75120238D01*
X74656904Y-74853571D02*
X73856904Y-74853571D01*
X74656904Y-74396428D01*
X73856904Y-74396428D01*
X74580714Y-73558333D02*
X74618809Y-73596428D01*
X74656904Y-73710714D01*
X74656904Y-73786904D01*
X74618809Y-73901190D01*
X74542619Y-73977380D01*
X74466428Y-74015476D01*
X74314047Y-74053571D01*
X74199761Y-74053571D01*
X74047380Y-74015476D01*
X73971190Y-73977380D01*
X73895000Y-73901190D01*
X73856904Y-73786904D01*
X73856904Y-73710714D01*
X73895000Y-73596428D01*
X73933095Y-73558333D01*
X74656904Y-72605952D02*
X73856904Y-72605952D01*
X73856904Y-72415476D01*
X73895000Y-72301190D01*
X73971190Y-72225000D01*
X74047380Y-72186904D01*
X74199761Y-72148809D01*
X74314047Y-72148809D01*
X74466428Y-72186904D01*
X74542619Y-72225000D01*
X74618809Y-72301190D01*
X74656904Y-72415476D01*
X74656904Y-72605952D01*
X74656904Y-71805952D02*
X74123571Y-71805952D01*
X73856904Y-71805952D02*
X73895000Y-71844047D01*
X73933095Y-71805952D01*
X73895000Y-71767857D01*
X73856904Y-71805952D01*
X73933095Y-71805952D01*
X74123571Y-71501190D02*
X74656904Y-71310714D01*
X74123571Y-71120238D01*
X74656904Y-70815476D02*
X74123571Y-70815476D01*
X73856904Y-70815476D02*
X73895000Y-70853571D01*
X73933095Y-70815476D01*
X73895000Y-70777380D01*
X73856904Y-70815476D01*
X73933095Y-70815476D01*
X74656904Y-70091666D02*
X73856904Y-70091666D01*
X74618809Y-70091666D02*
X74656904Y-70167857D01*
X74656904Y-70320238D01*
X74618809Y-70396428D01*
X74580714Y-70434523D01*
X74504523Y-70472619D01*
X74275952Y-70472619D01*
X74199761Y-70434523D01*
X74161666Y-70396428D01*
X74123571Y-70320238D01*
X74123571Y-70167857D01*
X74161666Y-70091666D01*
X74618809Y-69405952D02*
X74656904Y-69482142D01*
X74656904Y-69634523D01*
X74618809Y-69710714D01*
X74542619Y-69748809D01*
X74237857Y-69748809D01*
X74161666Y-69710714D01*
X74123571Y-69634523D01*
X74123571Y-69482142D01*
X74161666Y-69405952D01*
X74237857Y-69367857D01*
X74314047Y-69367857D01*
X74390238Y-69748809D01*
X74656904Y-69025000D02*
X74123571Y-69025000D01*
X74275952Y-69025000D02*
X74199761Y-68986904D01*
X74161666Y-68948809D01*
X74123571Y-68872619D01*
X74123571Y-68796428D01*
X136064761Y-80992857D02*
X138064761Y-80326190D01*
X136064761Y-79659523D01*
X138064761Y-78992857D02*
X136731428Y-78992857D01*
X136064761Y-78992857D02*
X136160000Y-79088095D01*
X136255238Y-78992857D01*
X136160000Y-78897619D01*
X136064761Y-78992857D01*
X136255238Y-78992857D01*
X138064761Y-77183333D02*
X136064761Y-77183333D01*
X137969523Y-77183333D02*
X138064761Y-77373809D01*
X138064761Y-77754761D01*
X137969523Y-77945238D01*
X137874285Y-78040476D01*
X137683809Y-78135714D01*
X137112380Y-78135714D01*
X136921904Y-78040476D01*
X136826666Y-77945238D01*
X136731428Y-77754761D01*
X136731428Y-77373809D01*
X136826666Y-77183333D01*
X137969523Y-75469047D02*
X138064761Y-75659523D01*
X138064761Y-76040476D01*
X137969523Y-76230952D01*
X137779047Y-76326190D01*
X137017142Y-76326190D01*
X136826666Y-76230952D01*
X136731428Y-76040476D01*
X136731428Y-75659523D01*
X136826666Y-75469047D01*
X137017142Y-75373809D01*
X137207619Y-75373809D01*
X137398095Y-76326190D01*
X138064761Y-74230952D02*
X137969523Y-74421428D01*
X137874285Y-74516666D01*
X137683809Y-74611904D01*
X137112380Y-74611904D01*
X136921904Y-74516666D01*
X136826666Y-74421428D01*
X136731428Y-74230952D01*
X136731428Y-73945238D01*
X136826666Y-73754761D01*
X136921904Y-73659523D01*
X137112380Y-73564285D01*
X137683809Y-73564285D01*
X137874285Y-73659523D01*
X137969523Y-73754761D01*
X138064761Y-73945238D01*
X138064761Y-74230952D01*
X138064761Y-70040476D02*
X137112380Y-70707142D01*
X138064761Y-71183333D02*
X136064761Y-71183333D01*
X136064761Y-70421428D01*
X136160000Y-70230952D01*
X136255238Y-70135714D01*
X136445714Y-70040476D01*
X136731428Y-70040476D01*
X136921904Y-70135714D01*
X137017142Y-70230952D01*
X137112380Y-70421428D01*
X137112380Y-71183333D01*
X137969523Y-68421428D02*
X138064761Y-68611904D01*
X138064761Y-68992857D01*
X137969523Y-69183333D01*
X137779047Y-69278571D01*
X137017142Y-69278571D01*
X136826666Y-69183333D01*
X136731428Y-68992857D01*
X136731428Y-68611904D01*
X136826666Y-68421428D01*
X137017142Y-68326190D01*
X137207619Y-68326190D01*
X137398095Y-69278571D01*
X136731428Y-67469047D02*
X138731428Y-67469047D01*
X136826666Y-67469047D02*
X136731428Y-67278571D01*
X136731428Y-66897619D01*
X136826666Y-66707142D01*
X136921904Y-66611904D01*
X137112380Y-66516666D01*
X137683809Y-66516666D01*
X137874285Y-66611904D01*
X137969523Y-66707142D01*
X138064761Y-66897619D01*
X138064761Y-67278571D01*
X137969523Y-67469047D01*
X137969523Y-64897619D02*
X138064761Y-65088095D01*
X138064761Y-65469047D01*
X137969523Y-65659523D01*
X137779047Y-65754761D01*
X137017142Y-65754761D01*
X136826666Y-65659523D01*
X136731428Y-65469047D01*
X136731428Y-65088095D01*
X136826666Y-64897619D01*
X137017142Y-64802380D01*
X137207619Y-64802380D01*
X137398095Y-65754761D01*
X138064761Y-63088095D02*
X137017142Y-63088095D01*
X136826666Y-63183333D01*
X136731428Y-63373809D01*
X136731428Y-63754761D01*
X136826666Y-63945238D01*
X137969523Y-63088095D02*
X138064761Y-63278571D01*
X138064761Y-63754761D01*
X137969523Y-63945238D01*
X137779047Y-64040476D01*
X137588571Y-64040476D01*
X137398095Y-63945238D01*
X137302857Y-63754761D01*
X137302857Y-63278571D01*
X137207619Y-63088095D01*
X136731428Y-62421428D02*
X136731428Y-61659523D01*
X136064761Y-62135714D02*
X137779047Y-62135714D01*
X137969523Y-62040476D01*
X138064761Y-61850000D01*
X138064761Y-61659523D01*
X137969523Y-60230952D02*
X138064761Y-60421428D01*
X138064761Y-60802380D01*
X137969523Y-60992857D01*
X137779047Y-61088095D01*
X137017142Y-61088095D01*
X136826666Y-60992857D01*
X136731428Y-60802380D01*
X136731428Y-60421428D01*
X136826666Y-60230952D01*
X137017142Y-60135714D01*
X137207619Y-60135714D01*
X137398095Y-61088095D01*
X138064761Y-59278571D02*
X136731428Y-59278571D01*
X137112380Y-59278571D02*
X136921904Y-59183333D01*
X136826666Y-59088095D01*
X136731428Y-58897619D01*
X136731428Y-58707142D01*
X117836904Y-79672857D02*
X117455952Y-79939523D01*
X117836904Y-80130000D02*
X117036904Y-80130000D01*
X117036904Y-79825238D01*
X117075000Y-79749047D01*
X117113095Y-79710952D01*
X117189285Y-79672857D01*
X117303571Y-79672857D01*
X117379761Y-79710952D01*
X117417857Y-79749047D01*
X117455952Y-79825238D01*
X117455952Y-80130000D01*
X117075000Y-78910952D02*
X117036904Y-78987142D01*
X117036904Y-79101428D01*
X117075000Y-79215714D01*
X117151190Y-79291904D01*
X117227380Y-79330000D01*
X117379761Y-79368095D01*
X117494047Y-79368095D01*
X117646428Y-79330000D01*
X117722619Y-79291904D01*
X117798809Y-79215714D01*
X117836904Y-79101428D01*
X117836904Y-79025238D01*
X117798809Y-78910952D01*
X117760714Y-78872857D01*
X117494047Y-78872857D01*
X117494047Y-79025238D01*
X117417857Y-78263333D02*
X117455952Y-78149047D01*
X117494047Y-78110952D01*
X117570238Y-78072857D01*
X117684523Y-78072857D01*
X117760714Y-78110952D01*
X117798809Y-78149047D01*
X117836904Y-78225238D01*
X117836904Y-78530000D01*
X117036904Y-78530000D01*
X117036904Y-78263333D01*
X117075000Y-78187142D01*
X117113095Y-78149047D01*
X117189285Y-78110952D01*
X117265476Y-78110952D01*
X117341666Y-78149047D01*
X117379761Y-78187142D01*
X117417857Y-78263333D01*
X117417857Y-78530000D01*
X117036904Y-76968095D02*
X117036904Y-76815714D01*
X117075000Y-76739523D01*
X117151190Y-76663333D01*
X117303571Y-76625238D01*
X117570238Y-76625238D01*
X117722619Y-76663333D01*
X117798809Y-76739523D01*
X117836904Y-76815714D01*
X117836904Y-76968095D01*
X117798809Y-77044285D01*
X117722619Y-77120476D01*
X117570238Y-77158571D01*
X117303571Y-77158571D01*
X117151190Y-77120476D01*
X117075000Y-77044285D01*
X117036904Y-76968095D01*
X117303571Y-75939523D02*
X117836904Y-75939523D01*
X117303571Y-76282380D02*
X117722619Y-76282380D01*
X117798809Y-76244285D01*
X117836904Y-76168095D01*
X117836904Y-76053809D01*
X117798809Y-75977619D01*
X117760714Y-75939523D01*
X117303571Y-75672857D02*
X117303571Y-75368095D01*
X117036904Y-75558571D02*
X117722619Y-75558571D01*
X117798809Y-75520476D01*
X117836904Y-75444285D01*
X117836904Y-75368095D01*
X117303571Y-75101428D02*
X118103571Y-75101428D01*
X117341666Y-75101428D02*
X117303571Y-75025238D01*
X117303571Y-74872857D01*
X117341666Y-74796666D01*
X117379761Y-74758571D01*
X117455952Y-74720476D01*
X117684523Y-74720476D01*
X117760714Y-74758571D01*
X117798809Y-74796666D01*
X117836904Y-74872857D01*
X117836904Y-75025238D01*
X117798809Y-75101428D01*
X117303571Y-74034761D02*
X117836904Y-74034761D01*
X117303571Y-74377619D02*
X117722619Y-74377619D01*
X117798809Y-74339523D01*
X117836904Y-74263333D01*
X117836904Y-74149047D01*
X117798809Y-74072857D01*
X117760714Y-74034761D01*
X117303571Y-73768095D02*
X117303571Y-73463333D01*
X117036904Y-73653809D02*
X117722619Y-73653809D01*
X117798809Y-73615714D01*
X117836904Y-73539523D01*
X117836904Y-73463333D01*
X117836904Y-72206190D02*
X117836904Y-72587142D01*
X117036904Y-72587142D01*
X117836904Y-71596666D02*
X117417857Y-71596666D01*
X117341666Y-71634761D01*
X117303571Y-71710952D01*
X117303571Y-71863333D01*
X117341666Y-71939523D01*
X117798809Y-71596666D02*
X117836904Y-71672857D01*
X117836904Y-71863333D01*
X117798809Y-71939523D01*
X117722619Y-71977619D01*
X117646428Y-71977619D01*
X117570238Y-71939523D01*
X117532142Y-71863333D01*
X117532142Y-71672857D01*
X117494047Y-71596666D01*
X117303571Y-71330000D02*
X117303571Y-71025238D01*
X117036904Y-71215714D02*
X117722619Y-71215714D01*
X117798809Y-71177619D01*
X117836904Y-71101428D01*
X117836904Y-71025238D01*
X117798809Y-70415714D02*
X117836904Y-70491904D01*
X117836904Y-70644285D01*
X117798809Y-70720476D01*
X117760714Y-70758571D01*
X117684523Y-70796666D01*
X117455952Y-70796666D01*
X117379761Y-70758571D01*
X117341666Y-70720476D01*
X117303571Y-70644285D01*
X117303571Y-70491904D01*
X117341666Y-70415714D01*
X117836904Y-70072857D02*
X117036904Y-70072857D01*
X117836904Y-69730000D02*
X117417857Y-69730000D01*
X117341666Y-69768095D01*
X117303571Y-69844285D01*
X117303571Y-69958571D01*
X117341666Y-70034761D01*
X117379761Y-70072857D01*
X73895000Y-92760476D02*
X73856904Y-92836666D01*
X73856904Y-92950952D01*
X73895000Y-93065238D01*
X73971190Y-93141428D01*
X74047380Y-93179523D01*
X74199761Y-93217619D01*
X74314047Y-93217619D01*
X74466428Y-93179523D01*
X74542619Y-93141428D01*
X74618809Y-93065238D01*
X74656904Y-92950952D01*
X74656904Y-92874761D01*
X74618809Y-92760476D01*
X74580714Y-92722380D01*
X74314047Y-92722380D01*
X74314047Y-92874761D01*
X74656904Y-92265238D02*
X74618809Y-92341428D01*
X74542619Y-92379523D01*
X73856904Y-92379523D01*
X74123571Y-91617619D02*
X74656904Y-91617619D01*
X74123571Y-91960476D02*
X74542619Y-91960476D01*
X74618809Y-91922380D01*
X74656904Y-91846190D01*
X74656904Y-91731904D01*
X74618809Y-91655714D01*
X74580714Y-91617619D01*
X74618809Y-90931904D02*
X74656904Y-91008095D01*
X74656904Y-91160476D01*
X74618809Y-91236666D01*
X74542619Y-91274761D01*
X74237857Y-91274761D01*
X74161666Y-91236666D01*
X74123571Y-91160476D01*
X74123571Y-91008095D01*
X74161666Y-90931904D01*
X74237857Y-90893809D01*
X74314047Y-90893809D01*
X74390238Y-91274761D01*
X74656904Y-89560476D02*
X74656904Y-89941428D01*
X73856904Y-89941428D01*
X74656904Y-89179523D02*
X74618809Y-89255714D01*
X74580714Y-89293809D01*
X74504523Y-89331904D01*
X74275952Y-89331904D01*
X74199761Y-89293809D01*
X74161666Y-89255714D01*
X74123571Y-89179523D01*
X74123571Y-89065238D01*
X74161666Y-88989047D01*
X74199761Y-88950952D01*
X74275952Y-88912857D01*
X74504523Y-88912857D01*
X74580714Y-88950952D01*
X74618809Y-88989047D01*
X74656904Y-89065238D01*
X74656904Y-89179523D01*
X74123571Y-88227142D02*
X74771190Y-88227142D01*
X74847380Y-88265238D01*
X74885476Y-88303333D01*
X74923571Y-88379523D01*
X74923571Y-88493809D01*
X74885476Y-88570000D01*
X74618809Y-88227142D02*
X74656904Y-88303333D01*
X74656904Y-88455714D01*
X74618809Y-88531904D01*
X74580714Y-88570000D01*
X74504523Y-88608095D01*
X74275952Y-88608095D01*
X74199761Y-88570000D01*
X74161666Y-88531904D01*
X74123571Y-88455714D01*
X74123571Y-88303333D01*
X74161666Y-88227142D01*
X74656904Y-87846190D02*
X74123571Y-87846190D01*
X73856904Y-87846190D02*
X73895000Y-87884285D01*
X73933095Y-87846190D01*
X73895000Y-87808095D01*
X73856904Y-87846190D01*
X73933095Y-87846190D01*
X74618809Y-87122380D02*
X74656904Y-87198571D01*
X74656904Y-87350952D01*
X74618809Y-87427142D01*
X74580714Y-87465238D01*
X74504523Y-87503333D01*
X74275952Y-87503333D01*
X74199761Y-87465238D01*
X74161666Y-87427142D01*
X74123571Y-87350952D01*
X74123571Y-87198571D01*
X74161666Y-87122380D01*
X84183095Y-88626904D02*
X84183095Y-87826904D01*
X84183095Y-88207857D02*
X84640238Y-88207857D01*
X84640238Y-88626904D02*
X84640238Y-87826904D01*
X84983095Y-88588809D02*
X85097380Y-88626904D01*
X85287857Y-88626904D01*
X85364047Y-88588809D01*
X85402142Y-88550714D01*
X85440238Y-88474523D01*
X85440238Y-88398333D01*
X85402142Y-88322142D01*
X85364047Y-88284047D01*
X85287857Y-88245952D01*
X85135476Y-88207857D01*
X85059285Y-88169761D01*
X85021190Y-88131666D01*
X84983095Y-88055476D01*
X84983095Y-87979285D01*
X85021190Y-87903095D01*
X85059285Y-87865000D01*
X85135476Y-87826904D01*
X85325952Y-87826904D01*
X85440238Y-87865000D01*
X85935476Y-88245952D02*
X85935476Y-88626904D01*
X85668809Y-87826904D02*
X85935476Y-88245952D01*
X86202142Y-87826904D01*
X86468809Y-88626904D02*
X86468809Y-87826904D01*
X86925952Y-88626904D01*
X86925952Y-87826904D01*
X87764047Y-88550714D02*
X87725952Y-88588809D01*
X87611666Y-88626904D01*
X87535476Y-88626904D01*
X87421190Y-88588809D01*
X87345000Y-88512619D01*
X87306904Y-88436428D01*
X87268809Y-88284047D01*
X87268809Y-88169761D01*
X87306904Y-88017380D01*
X87345000Y-87941190D01*
X87421190Y-87865000D01*
X87535476Y-87826904D01*
X87611666Y-87826904D01*
X87725952Y-87865000D01*
X87764047Y-87903095D01*
X88106904Y-88322142D02*
X88716428Y-88322142D01*
X88411666Y-88626904D02*
X88411666Y-88017380D01*
X88983095Y-87826904D02*
X89249761Y-88626904D01*
X89516428Y-87826904D01*
X89745000Y-88588809D02*
X89859285Y-88626904D01*
X90049761Y-88626904D01*
X90125952Y-88588809D01*
X90164047Y-88550714D01*
X90202142Y-88474523D01*
X90202142Y-88398333D01*
X90164047Y-88322142D01*
X90125952Y-88284047D01*
X90049761Y-88245952D01*
X89897380Y-88207857D01*
X89821190Y-88169761D01*
X89783095Y-88131666D01*
X89745000Y-88055476D01*
X89745000Y-87979285D01*
X89783095Y-87903095D01*
X89821190Y-87865000D01*
X89897380Y-87826904D01*
X90087857Y-87826904D01*
X90202142Y-87865000D01*
X90697380Y-88245952D02*
X90697380Y-88626904D01*
X90430714Y-87826904D02*
X90697380Y-88245952D01*
X90964047Y-87826904D01*
X91230714Y-88626904D02*
X91230714Y-87826904D01*
X91687857Y-88626904D01*
X91687857Y-87826904D01*
X92525952Y-88550714D02*
X92487857Y-88588809D01*
X92373571Y-88626904D01*
X92297380Y-88626904D01*
X92183095Y-88588809D01*
X92106904Y-88512619D01*
X92068809Y-88436428D01*
X92030714Y-88284047D01*
X92030714Y-88169761D01*
X92068809Y-88017380D01*
X92106904Y-87941190D01*
X92183095Y-87865000D01*
X92297380Y-87826904D01*
X92373571Y-87826904D01*
X92487857Y-87865000D01*
X92525952Y-87903095D01*
X93630714Y-87826904D02*
X93783095Y-87826904D01*
X93859285Y-87865000D01*
X93935476Y-87941190D01*
X93973571Y-88093571D01*
X93973571Y-88360238D01*
X93935476Y-88512619D01*
X93859285Y-88588809D01*
X93783095Y-88626904D01*
X93630714Y-88626904D01*
X93554523Y-88588809D01*
X93478333Y-88512619D01*
X93440238Y-88360238D01*
X93440238Y-88093571D01*
X93478333Y-87941190D01*
X93554523Y-87865000D01*
X93630714Y-87826904D01*
X94659285Y-88093571D02*
X94659285Y-88626904D01*
X94316428Y-88093571D02*
X94316428Y-88512619D01*
X94354523Y-88588809D01*
X94430714Y-88626904D01*
X94545000Y-88626904D01*
X94621190Y-88588809D01*
X94659285Y-88550714D01*
X94925952Y-88093571D02*
X95230714Y-88093571D01*
X95040238Y-87826904D02*
X95040238Y-88512619D01*
X95078333Y-88588809D01*
X95154523Y-88626904D01*
X95230714Y-88626904D01*
X95497380Y-88093571D02*
X95497380Y-88893571D01*
X95497380Y-88131666D02*
X95573571Y-88093571D01*
X95725952Y-88093571D01*
X95802142Y-88131666D01*
X95840238Y-88169761D01*
X95878333Y-88245952D01*
X95878333Y-88474523D01*
X95840238Y-88550714D01*
X95802142Y-88588809D01*
X95725952Y-88626904D01*
X95573571Y-88626904D01*
X95497380Y-88588809D01*
X96564047Y-88093571D02*
X96564047Y-88626904D01*
X96221190Y-88093571D02*
X96221190Y-88512619D01*
X96259285Y-88588809D01*
X96335476Y-88626904D01*
X96449761Y-88626904D01*
X96525952Y-88588809D01*
X96564047Y-88550714D01*
X96830714Y-88093571D02*
X97135476Y-88093571D01*
X96945000Y-87826904D02*
X96945000Y-88512619D01*
X96983095Y-88588809D01*
X97059285Y-88626904D01*
X97135476Y-88626904D01*
X98468809Y-88626904D02*
X98202142Y-88245952D01*
X98011666Y-88626904D02*
X98011666Y-87826904D01*
X98316428Y-87826904D01*
X98392619Y-87865000D01*
X98430714Y-87903095D01*
X98468809Y-87979285D01*
X98468809Y-88093571D01*
X98430714Y-88169761D01*
X98392619Y-88207857D01*
X98316428Y-88245952D01*
X98011666Y-88245952D01*
X99116428Y-88588809D02*
X99040238Y-88626904D01*
X98887857Y-88626904D01*
X98811666Y-88588809D01*
X98773571Y-88512619D01*
X98773571Y-88207857D01*
X98811666Y-88131666D01*
X98887857Y-88093571D01*
X99040238Y-88093571D01*
X99116428Y-88131666D01*
X99154523Y-88207857D01*
X99154523Y-88284047D01*
X98773571Y-88360238D01*
X99840238Y-88093571D02*
X99840238Y-88741190D01*
X99802142Y-88817380D01*
X99764047Y-88855476D01*
X99687857Y-88893571D01*
X99573571Y-88893571D01*
X99497380Y-88855476D01*
X99840238Y-88588809D02*
X99764047Y-88626904D01*
X99611666Y-88626904D01*
X99535476Y-88588809D01*
X99497380Y-88550714D01*
X99459285Y-88474523D01*
X99459285Y-88245952D01*
X99497380Y-88169761D01*
X99535476Y-88131666D01*
X99611666Y-88093571D01*
X99764047Y-88093571D01*
X99840238Y-88131666D01*
X100221190Y-88626904D02*
X100221190Y-88093571D01*
X100221190Y-87826904D02*
X100183095Y-87865000D01*
X100221190Y-87903095D01*
X100259285Y-87865000D01*
X100221190Y-87826904D01*
X100221190Y-87903095D01*
X100564047Y-88588809D02*
X100640238Y-88626904D01*
X100792619Y-88626904D01*
X100868809Y-88588809D01*
X100906904Y-88512619D01*
X100906904Y-88474523D01*
X100868809Y-88398333D01*
X100792619Y-88360238D01*
X100678333Y-88360238D01*
X100602142Y-88322142D01*
X100564047Y-88245952D01*
X100564047Y-88207857D01*
X100602142Y-88131666D01*
X100678333Y-88093571D01*
X100792619Y-88093571D01*
X100868809Y-88131666D01*
X101135476Y-88093571D02*
X101440238Y-88093571D01*
X101249761Y-87826904D02*
X101249761Y-88512619D01*
X101287857Y-88588809D01*
X101364047Y-88626904D01*
X101440238Y-88626904D01*
X102011666Y-88588809D02*
X101935476Y-88626904D01*
X101783095Y-88626904D01*
X101706904Y-88588809D01*
X101668809Y-88512619D01*
X101668809Y-88207857D01*
X101706904Y-88131666D01*
X101783095Y-88093571D01*
X101935476Y-88093571D01*
X102011666Y-88131666D01*
X102049761Y-88207857D01*
X102049761Y-88284047D01*
X101668809Y-88360238D01*
X102392619Y-88626904D02*
X102392619Y-88093571D01*
X102392619Y-88245952D02*
X102430714Y-88169761D01*
X102468809Y-88131666D01*
X102545000Y-88093571D01*
X102621190Y-88093571D01*
X77781904Y-107257857D02*
X77515238Y-107257857D01*
X77515238Y-107676904D02*
X77515238Y-106876904D01*
X77896190Y-106876904D01*
X78200952Y-107676904D02*
X78200952Y-106876904D01*
X78848571Y-107257857D02*
X78581904Y-107257857D01*
X78581904Y-107676904D02*
X78581904Y-106876904D01*
X78962857Y-106876904D01*
X79420000Y-106876904D02*
X79572380Y-106876904D01*
X79648571Y-106915000D01*
X79724761Y-106991190D01*
X79762857Y-107143571D01*
X79762857Y-107410238D01*
X79724761Y-107562619D01*
X79648571Y-107638809D01*
X79572380Y-107676904D01*
X79420000Y-107676904D01*
X79343809Y-107638809D01*
X79267619Y-107562619D01*
X79229523Y-107410238D01*
X79229523Y-107143571D01*
X79267619Y-106991190D01*
X79343809Y-106915000D01*
X79420000Y-106876904D01*
X81172380Y-107676904D02*
X80905714Y-107295952D01*
X80715238Y-107676904D02*
X80715238Y-106876904D01*
X81020000Y-106876904D01*
X81096190Y-106915000D01*
X81134285Y-106953095D01*
X81172380Y-107029285D01*
X81172380Y-107143571D01*
X81134285Y-107219761D01*
X81096190Y-107257857D01*
X81020000Y-107295952D01*
X80715238Y-107295952D01*
X81477142Y-107638809D02*
X81591428Y-107676904D01*
X81781904Y-107676904D01*
X81858095Y-107638809D01*
X81896190Y-107600714D01*
X81934285Y-107524523D01*
X81934285Y-107448333D01*
X81896190Y-107372142D01*
X81858095Y-107334047D01*
X81781904Y-107295952D01*
X81629523Y-107257857D01*
X81553333Y-107219761D01*
X81515238Y-107181666D01*
X81477142Y-107105476D01*
X81477142Y-107029285D01*
X81515238Y-106953095D01*
X81553333Y-106915000D01*
X81629523Y-106876904D01*
X81820000Y-106876904D01*
X81934285Y-106915000D01*
X84143809Y-107676904D02*
X84105714Y-107676904D01*
X84029523Y-107638809D01*
X83915238Y-107524523D01*
X83724761Y-107295952D01*
X83648571Y-107181666D01*
X83610476Y-107067380D01*
X83610476Y-106991190D01*
X83648571Y-106915000D01*
X83724761Y-106876904D01*
X83762857Y-106876904D01*
X83839047Y-106915000D01*
X83877142Y-106991190D01*
X83877142Y-107029285D01*
X83839047Y-107105476D01*
X83800952Y-107143571D01*
X83572380Y-107295952D01*
X83534285Y-107334047D01*
X83496190Y-107410238D01*
X83496190Y-107524523D01*
X83534285Y-107600714D01*
X83572380Y-107638809D01*
X83648571Y-107676904D01*
X83762857Y-107676904D01*
X83839047Y-107638809D01*
X83877142Y-107600714D01*
X83991428Y-107448333D01*
X84029523Y-107334047D01*
X84029523Y-107257857D01*
X85477142Y-107676904D02*
X85096190Y-107676904D01*
X85096190Y-106876904D01*
X86086666Y-107676904D02*
X86086666Y-107257857D01*
X86048571Y-107181666D01*
X85972380Y-107143571D01*
X85820000Y-107143571D01*
X85743809Y-107181666D01*
X86086666Y-107638809D02*
X86010476Y-107676904D01*
X85820000Y-107676904D01*
X85743809Y-107638809D01*
X85705714Y-107562619D01*
X85705714Y-107486428D01*
X85743809Y-107410238D01*
X85820000Y-107372142D01*
X86010476Y-107372142D01*
X86086666Y-107334047D01*
X86353333Y-107143571D02*
X86658095Y-107143571D01*
X86467619Y-106876904D02*
X86467619Y-107562619D01*
X86505714Y-107638809D01*
X86581904Y-107676904D01*
X86658095Y-107676904D01*
X87267619Y-107638809D02*
X87191428Y-107676904D01*
X87039047Y-107676904D01*
X86962857Y-107638809D01*
X86924761Y-107600714D01*
X86886666Y-107524523D01*
X86886666Y-107295952D01*
X86924761Y-107219761D01*
X86962857Y-107181666D01*
X87039047Y-107143571D01*
X87191428Y-107143571D01*
X87267619Y-107181666D01*
X87610476Y-107676904D02*
X87610476Y-106876904D01*
X87953333Y-107676904D02*
X87953333Y-107257857D01*
X87915238Y-107181666D01*
X87839047Y-107143571D01*
X87724761Y-107143571D01*
X87648571Y-107181666D01*
X87610476Y-107219761D01*
X89096190Y-106876904D02*
X89248571Y-106876904D01*
X89324761Y-106915000D01*
X89400952Y-106991190D01*
X89439047Y-107143571D01*
X89439047Y-107410238D01*
X89400952Y-107562619D01*
X89324761Y-107638809D01*
X89248571Y-107676904D01*
X89096190Y-107676904D01*
X89020000Y-107638809D01*
X88943809Y-107562619D01*
X88905714Y-107410238D01*
X88905714Y-107143571D01*
X88943809Y-106991190D01*
X89020000Y-106915000D01*
X89096190Y-106876904D01*
X89781904Y-107257857D02*
X90048571Y-107257857D01*
X90162857Y-107676904D02*
X89781904Y-107676904D01*
X89781904Y-106876904D01*
X90162857Y-106876904D01*
X118529523Y-105987857D02*
X118262857Y-105987857D01*
X118262857Y-106406904D02*
X118262857Y-105606904D01*
X118643809Y-105606904D01*
X118948571Y-106406904D02*
X118948571Y-105606904D01*
X119596190Y-105987857D02*
X119329523Y-105987857D01*
X119329523Y-106406904D02*
X119329523Y-105606904D01*
X119710476Y-105606904D01*
X120167619Y-105606904D02*
X120320000Y-105606904D01*
X120396190Y-105645000D01*
X120472380Y-105721190D01*
X120510476Y-105873571D01*
X120510476Y-106140238D01*
X120472380Y-106292619D01*
X120396190Y-106368809D01*
X120320000Y-106406904D01*
X120167619Y-106406904D01*
X120091428Y-106368809D01*
X120015238Y-106292619D01*
X119977142Y-106140238D01*
X119977142Y-105873571D01*
X120015238Y-105721190D01*
X120091428Y-105645000D01*
X120167619Y-105606904D01*
X121462857Y-106406904D02*
X121462857Y-105606904D01*
X121729523Y-106178333D01*
X121996190Y-105606904D01*
X121996190Y-106406904D01*
X122681904Y-106368809D02*
X122605714Y-106406904D01*
X122453333Y-106406904D01*
X122377142Y-106368809D01*
X122339047Y-106292619D01*
X122339047Y-105987857D01*
X122377142Y-105911666D01*
X122453333Y-105873571D01*
X122605714Y-105873571D01*
X122681904Y-105911666D01*
X122720000Y-105987857D01*
X122720000Y-106064047D01*
X122339047Y-106140238D01*
X123062857Y-106406904D02*
X123062857Y-105873571D01*
X123062857Y-105949761D02*
X123100952Y-105911666D01*
X123177142Y-105873571D01*
X123291428Y-105873571D01*
X123367619Y-105911666D01*
X123405714Y-105987857D01*
X123405714Y-106406904D01*
X123405714Y-105987857D02*
X123443809Y-105911666D01*
X123520000Y-105873571D01*
X123634285Y-105873571D01*
X123710476Y-105911666D01*
X123748571Y-105987857D01*
X123748571Y-106406904D01*
X124243809Y-106406904D02*
X124167619Y-106368809D01*
X124129523Y-106330714D01*
X124091428Y-106254523D01*
X124091428Y-106025952D01*
X124129523Y-105949761D01*
X124167619Y-105911666D01*
X124243809Y-105873571D01*
X124358095Y-105873571D01*
X124434285Y-105911666D01*
X124472380Y-105949761D01*
X124510476Y-106025952D01*
X124510476Y-106254523D01*
X124472380Y-106330714D01*
X124434285Y-106368809D01*
X124358095Y-106406904D01*
X124243809Y-106406904D01*
X124853333Y-106406904D02*
X124853333Y-105873571D01*
X124853333Y-106025952D02*
X124891428Y-105949761D01*
X124929523Y-105911666D01*
X125005714Y-105873571D01*
X125081904Y-105873571D01*
X125272380Y-105873571D02*
X125462857Y-106406904D01*
X125653333Y-105873571D02*
X125462857Y-106406904D01*
X125386666Y-106597380D01*
X125348571Y-106635476D01*
X125272380Y-106673571D01*
X87020476Y-58058095D02*
X87058571Y-58020000D01*
X87134761Y-57981904D01*
X87325238Y-57981904D01*
X87401428Y-58020000D01*
X87439523Y-58058095D01*
X87477619Y-58134285D01*
X87477619Y-58210476D01*
X87439523Y-58324761D01*
X86982380Y-58781904D01*
X87477619Y-58781904D01*
X87972857Y-57981904D02*
X88049047Y-57981904D01*
X88125238Y-58020000D01*
X88163333Y-58058095D01*
X88201428Y-58134285D01*
X88239523Y-58286666D01*
X88239523Y-58477142D01*
X88201428Y-58629523D01*
X88163333Y-58705714D01*
X88125238Y-58743809D01*
X88049047Y-58781904D01*
X87972857Y-58781904D01*
X87896666Y-58743809D01*
X87858571Y-58705714D01*
X87820476Y-58629523D01*
X87782380Y-58477142D01*
X87782380Y-58286666D01*
X87820476Y-58134285D01*
X87858571Y-58058095D01*
X87896666Y-58020000D01*
X87972857Y-57981904D01*
X87858571Y-66401904D02*
X87401428Y-66401904D01*
X87630000Y-66401904D02*
X87630000Y-65601904D01*
X87553809Y-65716190D01*
X87477619Y-65792380D01*
X87401428Y-65830476D01*
X84651904Y-65506190D02*
X85299523Y-65506190D01*
X85375714Y-65468095D01*
X85413809Y-65430000D01*
X85451904Y-65353809D01*
X85451904Y-65201428D01*
X85413809Y-65125238D01*
X85375714Y-65087142D01*
X85299523Y-65049047D01*
X84651904Y-65049047D01*
X84651904Y-64744285D02*
X84651904Y-64249047D01*
X84956666Y-64515714D01*
X84956666Y-64401428D01*
X84994761Y-64325238D01*
X85032857Y-64287142D01*
X85109047Y-64249047D01*
X85299523Y-64249047D01*
X85375714Y-64287142D01*
X85413809Y-64325238D01*
X85451904Y-64401428D01*
X85451904Y-64630000D01*
X85413809Y-64706190D01*
X85375714Y-64744285D01*
X84651904Y-63982380D02*
X84651904Y-63449047D01*
X85451904Y-63791904D01*
X85413809Y-62572857D02*
X85451904Y-62458571D01*
X85451904Y-62268095D01*
X85413809Y-62191904D01*
X85375714Y-62153809D01*
X85299523Y-62115714D01*
X85223333Y-62115714D01*
X85147142Y-62153809D01*
X85109047Y-62191904D01*
X85070952Y-62268095D01*
X85032857Y-62420476D01*
X84994761Y-62496666D01*
X84956666Y-62534761D01*
X84880476Y-62572857D01*
X84804285Y-62572857D01*
X84728095Y-62534761D01*
X84690000Y-62496666D01*
X84651904Y-62420476D01*
X84651904Y-62230000D01*
X84690000Y-62115714D01*
X85451904Y-61658571D02*
X85413809Y-61734761D01*
X85375714Y-61772857D01*
X85299523Y-61810952D01*
X85070952Y-61810952D01*
X84994761Y-61772857D01*
X84956666Y-61734761D01*
X84918571Y-61658571D01*
X84918571Y-61544285D01*
X84956666Y-61468095D01*
X84994761Y-61430000D01*
X85070952Y-61391904D01*
X85299523Y-61391904D01*
X85375714Y-61430000D01*
X85413809Y-61468095D01*
X85451904Y-61544285D01*
X85451904Y-61658571D01*
X85413809Y-60706190D02*
X85451904Y-60782380D01*
X85451904Y-60934761D01*
X85413809Y-61010952D01*
X85375714Y-61049047D01*
X85299523Y-61087142D01*
X85070952Y-61087142D01*
X84994761Y-61049047D01*
X84956666Y-61010952D01*
X84918571Y-60934761D01*
X84918571Y-60782380D01*
X84956666Y-60706190D01*
X85451904Y-60363333D02*
X84651904Y-60363333D01*
X85147142Y-60287142D02*
X85451904Y-60058571D01*
X84918571Y-60058571D02*
X85223333Y-60363333D01*
X85413809Y-59410952D02*
X85451904Y-59487142D01*
X85451904Y-59639523D01*
X85413809Y-59715714D01*
X85337619Y-59753809D01*
X85032857Y-59753809D01*
X84956666Y-59715714D01*
X84918571Y-59639523D01*
X84918571Y-59487142D01*
X84956666Y-59410952D01*
X85032857Y-59372857D01*
X85109047Y-59372857D01*
X85185238Y-59753809D01*
X84918571Y-59144285D02*
X84918571Y-58839523D01*
X84651904Y-59030000D02*
X85337619Y-59030000D01*
X85413809Y-58991904D01*
X85451904Y-58915714D01*
X85451904Y-58839523D01*
X82835714Y-65487142D02*
X82873809Y-65525238D01*
X82911904Y-65639523D01*
X82911904Y-65715714D01*
X82873809Y-65830000D01*
X82797619Y-65906190D01*
X82721428Y-65944285D01*
X82569047Y-65982380D01*
X82454761Y-65982380D01*
X82302380Y-65944285D01*
X82226190Y-65906190D01*
X82150000Y-65830000D01*
X82111904Y-65715714D01*
X82111904Y-65639523D01*
X82150000Y-65525238D01*
X82188095Y-65487142D01*
X82911904Y-65030000D02*
X82873809Y-65106190D01*
X82835714Y-65144285D01*
X82759523Y-65182380D01*
X82530952Y-65182380D01*
X82454761Y-65144285D01*
X82416666Y-65106190D01*
X82378571Y-65030000D01*
X82378571Y-64915714D01*
X82416666Y-64839523D01*
X82454761Y-64801428D01*
X82530952Y-64763333D01*
X82759523Y-64763333D01*
X82835714Y-64801428D01*
X82873809Y-64839523D01*
X82911904Y-64915714D01*
X82911904Y-65030000D01*
X82378571Y-64420476D02*
X82911904Y-64420476D01*
X82454761Y-64420476D02*
X82416666Y-64382380D01*
X82378571Y-64306190D01*
X82378571Y-64191904D01*
X82416666Y-64115714D01*
X82492857Y-64077619D01*
X82911904Y-64077619D01*
X82378571Y-63696666D02*
X82911904Y-63696666D01*
X82454761Y-63696666D02*
X82416666Y-63658571D01*
X82378571Y-63582380D01*
X82378571Y-63468095D01*
X82416666Y-63391904D01*
X82492857Y-63353809D01*
X82911904Y-63353809D01*
X82873809Y-62668095D02*
X82911904Y-62744285D01*
X82911904Y-62896666D01*
X82873809Y-62972857D01*
X82797619Y-63010952D01*
X82492857Y-63010952D01*
X82416666Y-62972857D01*
X82378571Y-62896666D01*
X82378571Y-62744285D01*
X82416666Y-62668095D01*
X82492857Y-62630000D01*
X82569047Y-62630000D01*
X82645238Y-63010952D01*
X82873809Y-61944285D02*
X82911904Y-62020476D01*
X82911904Y-62172857D01*
X82873809Y-62249047D01*
X82835714Y-62287142D01*
X82759523Y-62325238D01*
X82530952Y-62325238D01*
X82454761Y-62287142D01*
X82416666Y-62249047D01*
X82378571Y-62172857D01*
X82378571Y-62020476D01*
X82416666Y-61944285D01*
X82378571Y-61715714D02*
X82378571Y-61410952D01*
X82111904Y-61601428D02*
X82797619Y-61601428D01*
X82873809Y-61563333D01*
X82911904Y-61487142D01*
X82911904Y-61410952D01*
X82911904Y-61030000D02*
X82873809Y-61106190D01*
X82835714Y-61144285D01*
X82759523Y-61182380D01*
X82530952Y-61182380D01*
X82454761Y-61144285D01*
X82416666Y-61106190D01*
X82378571Y-61030000D01*
X82378571Y-60915714D01*
X82416666Y-60839523D01*
X82454761Y-60801428D01*
X82530952Y-60763333D01*
X82759523Y-60763333D01*
X82835714Y-60801428D01*
X82873809Y-60839523D01*
X82911904Y-60915714D01*
X82911904Y-61030000D01*
X82911904Y-60420476D02*
X82378571Y-60420476D01*
X82530952Y-60420476D02*
X82454761Y-60382380D01*
X82416666Y-60344285D01*
X82378571Y-60268095D01*
X82378571Y-60191904D01*
X82378571Y-59430000D02*
X82378571Y-59125238D01*
X82111904Y-59315714D02*
X82797619Y-59315714D01*
X82873809Y-59277619D01*
X82911904Y-59201428D01*
X82911904Y-59125238D01*
X82911904Y-58744285D02*
X82873809Y-58820476D01*
X82835714Y-58858571D01*
X82759523Y-58896666D01*
X82530952Y-58896666D01*
X82454761Y-58858571D01*
X82416666Y-58820476D01*
X82378571Y-58744285D01*
X82378571Y-58630000D01*
X82416666Y-58553809D01*
X82454761Y-58515714D01*
X82530952Y-58477619D01*
X82759523Y-58477619D01*
X82835714Y-58515714D01*
X82873809Y-58553809D01*
X82911904Y-58630000D01*
X82911904Y-58744285D01*
X111340952Y-81641904D02*
X111264761Y-81603809D01*
X111226666Y-81565714D01*
X111188571Y-81489523D01*
X111188571Y-81260952D01*
X111226666Y-81184761D01*
X111264761Y-81146666D01*
X111340952Y-81108571D01*
X111455238Y-81108571D01*
X111531428Y-81146666D01*
X111569523Y-81184761D01*
X111607619Y-81260952D01*
X111607619Y-81489523D01*
X111569523Y-81565714D01*
X111531428Y-81603809D01*
X111455238Y-81641904D01*
X111340952Y-81641904D01*
X111950476Y-81108571D02*
X111950476Y-81641904D01*
X111950476Y-81184761D02*
X111988571Y-81146666D01*
X112064761Y-81108571D01*
X112179047Y-81108571D01*
X112255238Y-81146666D01*
X112293333Y-81222857D01*
X112293333Y-81641904D01*
X108705714Y-81641904D02*
X108629523Y-81603809D01*
X108591428Y-81565714D01*
X108553333Y-81489523D01*
X108553333Y-81260952D01*
X108591428Y-81184761D01*
X108629523Y-81146666D01*
X108705714Y-81108571D01*
X108820000Y-81108571D01*
X108896190Y-81146666D01*
X108934285Y-81184761D01*
X108972380Y-81260952D01*
X108972380Y-81489523D01*
X108934285Y-81565714D01*
X108896190Y-81603809D01*
X108820000Y-81641904D01*
X108705714Y-81641904D01*
X109200952Y-81108571D02*
X109505714Y-81108571D01*
X109315238Y-81641904D02*
X109315238Y-80956190D01*
X109353333Y-80880000D01*
X109429523Y-80841904D01*
X109505714Y-80841904D01*
X109658095Y-81108571D02*
X109962857Y-81108571D01*
X109772380Y-81641904D02*
X109772380Y-80956190D01*
X109810476Y-80880000D01*
X109886666Y-80841904D01*
X109962857Y-80841904D01*
X107766190Y-80333809D02*
X107880476Y-80371904D01*
X108070952Y-80371904D01*
X108147142Y-80333809D01*
X108185238Y-80295714D01*
X108223333Y-80219523D01*
X108223333Y-80143333D01*
X108185238Y-80067142D01*
X108147142Y-80029047D01*
X108070952Y-79990952D01*
X107918571Y-79952857D01*
X107842380Y-79914761D01*
X107804285Y-79876666D01*
X107766190Y-79800476D01*
X107766190Y-79724285D01*
X107804285Y-79648095D01*
X107842380Y-79610000D01*
X107918571Y-79571904D01*
X108109047Y-79571904D01*
X108223333Y-79610000D01*
X108909047Y-80333809D02*
X108832857Y-80371904D01*
X108680476Y-80371904D01*
X108604285Y-80333809D01*
X108566190Y-80295714D01*
X108528095Y-80219523D01*
X108528095Y-79990952D01*
X108566190Y-79914761D01*
X108604285Y-79876666D01*
X108680476Y-79838571D01*
X108832857Y-79838571D01*
X108909047Y-79876666D01*
X109594761Y-80371904D02*
X109594761Y-79952857D01*
X109556666Y-79876666D01*
X109480476Y-79838571D01*
X109328095Y-79838571D01*
X109251904Y-79876666D01*
X109594761Y-80333809D02*
X109518571Y-80371904D01*
X109328095Y-80371904D01*
X109251904Y-80333809D01*
X109213809Y-80257619D01*
X109213809Y-80181428D01*
X109251904Y-80105238D01*
X109328095Y-80067142D01*
X109518571Y-80067142D01*
X109594761Y-80029047D01*
X109975714Y-79838571D02*
X109975714Y-80371904D01*
X109975714Y-79914761D02*
X110013809Y-79876666D01*
X110090000Y-79838571D01*
X110204285Y-79838571D01*
X110280476Y-79876666D01*
X110318571Y-79952857D01*
X110318571Y-80371904D01*
X110813809Y-80371904D02*
X110737619Y-80333809D01*
X110699523Y-80257619D01*
X110699523Y-79571904D01*
X111118571Y-80371904D02*
X111118571Y-79838571D01*
X111118571Y-79571904D02*
X111080476Y-79610000D01*
X111118571Y-79648095D01*
X111156666Y-79610000D01*
X111118571Y-79571904D01*
X111118571Y-79648095D01*
X111499523Y-79838571D02*
X111499523Y-80371904D01*
X111499523Y-79914761D02*
X111537619Y-79876666D01*
X111613809Y-79838571D01*
X111728095Y-79838571D01*
X111804285Y-79876666D01*
X111842380Y-79952857D01*
X111842380Y-80371904D01*
X112528095Y-80333809D02*
X112451904Y-80371904D01*
X112299523Y-80371904D01*
X112223333Y-80333809D01*
X112185238Y-80257619D01*
X112185238Y-79952857D01*
X112223333Y-79876666D01*
X112299523Y-79838571D01*
X112451904Y-79838571D01*
X112528095Y-79876666D01*
X112566190Y-79952857D01*
X112566190Y-80029047D01*
X112185238Y-80105238D01*
X112870952Y-80333809D02*
X112947142Y-80371904D01*
X113099523Y-80371904D01*
X113175714Y-80333809D01*
X113213809Y-80257619D01*
X113213809Y-80219523D01*
X113175714Y-80143333D01*
X113099523Y-80105238D01*
X112985238Y-80105238D01*
X112909047Y-80067142D01*
X112870952Y-79990952D01*
X112870952Y-79952857D01*
X112909047Y-79876666D01*
X112985238Y-79838571D01*
X113099523Y-79838571D01*
X113175714Y-79876666D01*
D11*
X132350000Y-69531904D02*
X132254761Y-69722380D01*
X132254761Y-70008095D01*
X132350000Y-70293809D01*
X132540476Y-70484285D01*
X132730952Y-70579523D01*
X133111904Y-70674761D01*
X133397619Y-70674761D01*
X133778571Y-70579523D01*
X133969047Y-70484285D01*
X134159523Y-70293809D01*
X134254761Y-70008095D01*
X134254761Y-69817619D01*
X134159523Y-69531904D01*
X134064285Y-69436666D01*
X133397619Y-69436666D01*
X133397619Y-69817619D01*
X134254761Y-68579523D02*
X132921428Y-68579523D01*
X132254761Y-68579523D02*
X132350000Y-68674761D01*
X132445238Y-68579523D01*
X132350000Y-68484285D01*
X132254761Y-68579523D01*
X132445238Y-68579523D01*
X132921428Y-66770000D02*
X134540476Y-66770000D01*
X134730952Y-66865238D01*
X134826190Y-66960476D01*
X134921428Y-67150952D01*
X134921428Y-67436666D01*
X134826190Y-67627142D01*
X134159523Y-66770000D02*
X134254761Y-66960476D01*
X134254761Y-67341428D01*
X134159523Y-67531904D01*
X134064285Y-67627142D01*
X133873809Y-67722380D01*
X133302380Y-67722380D01*
X133111904Y-67627142D01*
X133016666Y-67531904D01*
X132921428Y-67341428D01*
X132921428Y-66960476D01*
X133016666Y-66770000D01*
X134254761Y-64960476D02*
X133207142Y-64960476D01*
X133016666Y-65055714D01*
X132921428Y-65246190D01*
X132921428Y-65627142D01*
X133016666Y-65817619D01*
X134159523Y-64960476D02*
X134254761Y-65150952D01*
X134254761Y-65627142D01*
X134159523Y-65817619D01*
X133969047Y-65912857D01*
X133778571Y-65912857D01*
X133588095Y-65817619D01*
X133492857Y-65627142D01*
X133492857Y-65150952D01*
X133397619Y-64960476D01*
X132921428Y-64293809D02*
X132921428Y-63531904D01*
X132254761Y-64008095D02*
X133969047Y-64008095D01*
X134159523Y-63912857D01*
X134254761Y-63722380D01*
X134254761Y-63531904D01*
X134254761Y-62865238D02*
X132921428Y-62865238D01*
X133302380Y-62865238D02*
X133111904Y-62770000D01*
X133016666Y-62674761D01*
X132921428Y-62484285D01*
X132921428Y-62293809D01*
X134254761Y-61341428D02*
X134159523Y-61531904D01*
X134064285Y-61627142D01*
X133873809Y-61722380D01*
X133302380Y-61722380D01*
X133111904Y-61627142D01*
X133016666Y-61531904D01*
X132921428Y-61341428D01*
X132921428Y-61055714D01*
X133016666Y-60865238D01*
X133111904Y-60770000D01*
X133302380Y-60674761D01*
X133873809Y-60674761D01*
X134064285Y-60770000D01*
X134159523Y-60865238D01*
X134254761Y-61055714D01*
X134254761Y-61341428D01*
X132921428Y-59817619D02*
X134254761Y-59817619D01*
X133111904Y-59817619D02*
X133016666Y-59722380D01*
X132921428Y-59531904D01*
X132921428Y-59246190D01*
X133016666Y-59055714D01*
X133207142Y-58960476D01*
X134254761Y-58960476D01*
D12*
X77410000Y-82280000D02*
X77410000Y-83930000D01*
X77410000Y-83930000D02*
X102930000Y-83930000D01*
X102930000Y-83930000D02*
X102930000Y-78630000D01*
X102930000Y-78630000D02*
X77410000Y-78630000D01*
X77410000Y-78630000D02*
X77410000Y-80280000D01*
X77350000Y-86420000D02*
X102990000Y-86420000D01*
X102990000Y-86420000D02*
X102990000Y-76140000D01*
X102990000Y-76140000D02*
X77350000Y-76140000D01*
X77350000Y-76140000D02*
X77350000Y-86420000D01*
X77410000Y-80280000D02*
G75*
G02*
X77410000Y-82280000I0J-1000000D01*
G01*
X66310000Y-82490000D02*
X64660000Y-82490000D01*
X64660000Y-82490000D02*
X64660000Y-100390000D01*
X64660000Y-100390000D02*
X69960000Y-100390000D01*
X69960000Y-100390000D02*
X69960000Y-82490000D01*
X69960000Y-82490000D02*
X68310000Y-82490000D01*
X62170000Y-82430000D02*
X62170000Y-100450000D01*
X62170000Y-100450000D02*
X72450000Y-100450000D01*
X72450000Y-100450000D02*
X72450000Y-82430000D01*
X72450000Y-82430000D02*
X62170000Y-82430000D01*
X68310000Y-82490000D02*
G75*
G02*
X66310000Y-82490000I-1000000J0D01*
G01*
X119320000Y-89020000D02*
X129600000Y-89020000D01*
X119320000Y-63380000D02*
X119320000Y-89020000D01*
X129600000Y-63380000D02*
X119320000Y-63380000D01*
X129600000Y-89020000D02*
X129600000Y-63380000D01*
X121810000Y-88960000D02*
X123460000Y-88960000D01*
X121810000Y-63440000D02*
X121810000Y-88960000D01*
X127110000Y-63440000D02*
X121810000Y-63440000D01*
X127110000Y-88960000D02*
X127110000Y-63440000D01*
X125460000Y-88960000D02*
X127110000Y-88960000D01*
X123460000Y-88960000D02*
G75*
G02*
X125460000Y-88960000I1000000J0D01*
G01*
X80240000Y-92275000D02*
X84780000Y-92275000D01*
X80240000Y-94415000D02*
X84780000Y-94415000D01*
X80240000Y-92275000D02*
X80240000Y-92290000D01*
X80240000Y-94400000D02*
X80240000Y-94415000D01*
X84780000Y-92275000D02*
X84780000Y-92290000D01*
X84780000Y-94400000D02*
X84780000Y-94415000D01*
X69620000Y-105210000D02*
X65080000Y-105210000D01*
X69620000Y-103070000D02*
X65080000Y-103070000D01*
X69620000Y-105210000D02*
X69620000Y-105195000D01*
X69620000Y-103085000D02*
X69620000Y-103070000D01*
X65080000Y-105210000D02*
X65080000Y-105195000D01*
X65080000Y-103085000D02*
X65080000Y-103070000D01*
X73860000Y-83510000D02*
X73860000Y-78970000D01*
X76000000Y-83510000D02*
X76000000Y-78970000D01*
X73860000Y-83510000D02*
X73875000Y-83510000D01*
X75985000Y-83510000D02*
X76000000Y-83510000D01*
X73860000Y-78970000D02*
X73875000Y-78970000D01*
X75985000Y-78970000D02*
X76000000Y-78970000D01*
X100530000Y-101370000D02*
X100530000Y-96830000D01*
X102670000Y-101370000D02*
X102670000Y-96830000D01*
X100530000Y-101370000D02*
X100545000Y-101370000D01*
X102655000Y-101370000D02*
X102670000Y-101370000D01*
X100530000Y-96830000D02*
X100545000Y-96830000D01*
X102655000Y-96830000D02*
X102670000Y-96830000D01*
X126770000Y-60760000D02*
X122230000Y-60760000D01*
X126770000Y-58620000D02*
X122230000Y-58620000D01*
X126770000Y-60760000D02*
X126770000Y-60745000D01*
X126770000Y-58635000D02*
X126770000Y-58620000D01*
X122230000Y-60760000D02*
X122230000Y-60745000D01*
X122230000Y-58635000D02*
X122230000Y-58620000D01*
X75949200Y-61571000D02*
X75949200Y-66111000D01*
X73809200Y-61571000D02*
X73809200Y-66111000D01*
X75949200Y-61571000D02*
X75934200Y-61571000D01*
X73824200Y-61571000D02*
X73809200Y-61571000D01*
X75949200Y-66111000D02*
X75934200Y-66111000D01*
X73824200Y-66111000D02*
X73809200Y-66111000D01*
X105290000Y-93920000D02*
X105290000Y-104200000D01*
X141090000Y-93920000D02*
X105290000Y-93920000D01*
X141090000Y-104200000D02*
X141090000Y-93920000D01*
X105290000Y-104200000D02*
X141090000Y-104200000D01*
X105350000Y-96410000D02*
X105350000Y-98060000D01*
X141030000Y-96410000D02*
X105350000Y-96410000D01*
X141030000Y-101710000D02*
X141030000Y-96410000D01*
X105350000Y-101710000D02*
X141030000Y-101710000D01*
X105350000Y-100060000D02*
X105350000Y-101710000D01*
X105350000Y-98060000D02*
G75*
G02*
X105350000Y-100060000I0J-1000000D01*
G01*
X74810000Y-95190000D02*
X74810000Y-105470000D01*
X92830000Y-95190000D02*
X74810000Y-95190000D01*
X92830000Y-105470000D02*
X92830000Y-95190000D01*
X74810000Y-105470000D02*
X92830000Y-105470000D01*
X74870000Y-97680000D02*
X74870000Y-99330000D01*
X92770000Y-97680000D02*
X74870000Y-97680000D01*
X92770000Y-102980000D02*
X92770000Y-97680000D01*
X74870000Y-102980000D02*
X92770000Y-102980000D01*
X74870000Y-101330000D02*
X74870000Y-102980000D01*
X74870000Y-99330000D02*
G75*
G02*
X74870000Y-101330000I0J-1000000D01*
G01*
X72450000Y-59570000D02*
X62170000Y-59570000D01*
X72450000Y-77590000D02*
X72450000Y-59570000D01*
X62170000Y-77590000D02*
X72450000Y-77590000D01*
X62170000Y-59570000D02*
X62170000Y-77590000D01*
X69960000Y-59630000D02*
X68310000Y-59630000D01*
X69960000Y-77530000D02*
X69960000Y-59630000D01*
X64660000Y-77530000D02*
X69960000Y-77530000D01*
X64660000Y-59630000D02*
X64660000Y-77530000D01*
X66310000Y-59630000D02*
X64660000Y-59630000D01*
X68310000Y-59630000D02*
G75*
G02*
X66310000Y-59630000I-1000000J0D01*
G01*
X106620000Y-86420000D02*
X106620000Y-85090000D01*
X107950000Y-86420000D02*
X106620000Y-86420000D01*
X109220000Y-86420000D02*
X109220000Y-83760000D01*
X109220000Y-83760000D02*
X114360000Y-83760000D01*
X109220000Y-86420000D02*
X114360000Y-86420000D01*
X114360000Y-86420000D02*
X114360000Y-83760000D01*
D13*
X103592380Y-82041904D02*
X104401904Y-82041904D01*
X104497142Y-81994285D01*
X104544761Y-81946666D01*
X104592380Y-81851428D01*
X104592380Y-81660952D01*
X104544761Y-81565714D01*
X104497142Y-81518095D01*
X104401904Y-81470476D01*
X103592380Y-81470476D01*
X104592380Y-80470476D02*
X104592380Y-81041904D01*
X104592380Y-80756190D02*
X103592380Y-80756190D01*
X103735238Y-80851428D01*
X103830476Y-80946666D01*
X103878095Y-81041904D01*
X66548095Y-80942380D02*
X66548095Y-81751904D01*
X66595714Y-81847142D01*
X66643333Y-81894761D01*
X66738571Y-81942380D01*
X66929047Y-81942380D01*
X67024285Y-81894761D01*
X67071904Y-81847142D01*
X67119523Y-81751904D01*
X67119523Y-80942380D01*
X68024285Y-81275714D02*
X68024285Y-81942380D01*
X67786190Y-80894761D02*
X67548095Y-81609047D01*
X68167142Y-81609047D01*
X123698095Y-89412380D02*
X123698095Y-90221904D01*
X123745714Y-90317142D01*
X123793333Y-90364761D01*
X123888571Y-90412380D01*
X124079047Y-90412380D01*
X124174285Y-90364761D01*
X124221904Y-90317142D01*
X124269523Y-90221904D01*
X124269523Y-89412380D01*
X125174285Y-89412380D02*
X124983809Y-89412380D01*
X124888571Y-89460000D01*
X124840952Y-89507619D01*
X124745714Y-89650476D01*
X124698095Y-89840952D01*
X124698095Y-90221904D01*
X124745714Y-90317142D01*
X124793333Y-90364761D01*
X124888571Y-90412380D01*
X125079047Y-90412380D01*
X125174285Y-90364761D01*
X125221904Y-90317142D01*
X125269523Y-90221904D01*
X125269523Y-89983809D01*
X125221904Y-89888571D01*
X125174285Y-89840952D01*
X125079047Y-89793333D01*
X124888571Y-89793333D01*
X124793333Y-89840952D01*
X124745714Y-89888571D01*
X124698095Y-89983809D01*
X82343333Y-91502142D02*
X82295714Y-91549761D01*
X82152857Y-91597380D01*
X82057619Y-91597380D01*
X81914761Y-91549761D01*
X81819523Y-91454523D01*
X81771904Y-91359285D01*
X81724285Y-91168809D01*
X81724285Y-91025952D01*
X81771904Y-90835476D01*
X81819523Y-90740238D01*
X81914761Y-90645000D01*
X82057619Y-90597380D01*
X82152857Y-90597380D01*
X82295714Y-90645000D01*
X82343333Y-90692619D01*
X83200476Y-90597380D02*
X83010000Y-90597380D01*
X82914761Y-90645000D01*
X82867142Y-90692619D01*
X82771904Y-90835476D01*
X82724285Y-91025952D01*
X82724285Y-91406904D01*
X82771904Y-91502142D01*
X82819523Y-91549761D01*
X82914761Y-91597380D01*
X83105238Y-91597380D01*
X83200476Y-91549761D01*
X83248095Y-91502142D01*
X83295714Y-91406904D01*
X83295714Y-91168809D01*
X83248095Y-91073571D01*
X83200476Y-91025952D01*
X83105238Y-90978333D01*
X82914761Y-90978333D01*
X82819523Y-91025952D01*
X82771904Y-91073571D01*
X82724285Y-91168809D01*
X67183333Y-106697142D02*
X67135714Y-106744761D01*
X66992857Y-106792380D01*
X66897619Y-106792380D01*
X66754761Y-106744761D01*
X66659523Y-106649523D01*
X66611904Y-106554285D01*
X66564285Y-106363809D01*
X66564285Y-106220952D01*
X66611904Y-106030476D01*
X66659523Y-105935238D01*
X66754761Y-105840000D01*
X66897619Y-105792380D01*
X66992857Y-105792380D01*
X67135714Y-105840000D01*
X67183333Y-105887619D01*
X68088095Y-105792380D02*
X67611904Y-105792380D01*
X67564285Y-106268571D01*
X67611904Y-106220952D01*
X67707142Y-106173333D01*
X67945238Y-106173333D01*
X68040476Y-106220952D01*
X68088095Y-106268571D01*
X68135714Y-106363809D01*
X68135714Y-106601904D01*
X68088095Y-106697142D01*
X68040476Y-106744761D01*
X67945238Y-106792380D01*
X67707142Y-106792380D01*
X67611904Y-106744761D01*
X67564285Y-106697142D01*
X73087142Y-81406666D02*
X73134761Y-81454285D01*
X73182380Y-81597142D01*
X73182380Y-81692380D01*
X73134761Y-81835238D01*
X73039523Y-81930476D01*
X72944285Y-81978095D01*
X72753809Y-82025714D01*
X72610952Y-82025714D01*
X72420476Y-81978095D01*
X72325238Y-81930476D01*
X72230000Y-81835238D01*
X72182380Y-81692380D01*
X72182380Y-81597142D01*
X72230000Y-81454285D01*
X72277619Y-81406666D01*
X72515714Y-80549523D02*
X73182380Y-80549523D01*
X72134761Y-80787619D02*
X72849047Y-81025714D01*
X72849047Y-80406666D01*
X99757142Y-99266666D02*
X99804761Y-99314285D01*
X99852380Y-99457142D01*
X99852380Y-99552380D01*
X99804761Y-99695238D01*
X99709523Y-99790476D01*
X99614285Y-99838095D01*
X99423809Y-99885714D01*
X99280952Y-99885714D01*
X99090476Y-99838095D01*
X98995238Y-99790476D01*
X98900000Y-99695238D01*
X98852380Y-99552380D01*
X98852380Y-99457142D01*
X98900000Y-99314285D01*
X98947619Y-99266666D01*
X98852380Y-98933333D02*
X98852380Y-98314285D01*
X99233333Y-98647619D01*
X99233333Y-98504761D01*
X99280952Y-98409523D01*
X99328571Y-98361904D01*
X99423809Y-98314285D01*
X99661904Y-98314285D01*
X99757142Y-98361904D01*
X99804761Y-98409523D01*
X99852380Y-98504761D01*
X99852380Y-98790476D01*
X99804761Y-98885714D01*
X99757142Y-98933333D01*
X124333333Y-62247142D02*
X124285714Y-62294761D01*
X124142857Y-62342380D01*
X124047619Y-62342380D01*
X123904761Y-62294761D01*
X123809523Y-62199523D01*
X123761904Y-62104285D01*
X123714285Y-61913809D01*
X123714285Y-61770952D01*
X123761904Y-61580476D01*
X123809523Y-61485238D01*
X123904761Y-61390000D01*
X124047619Y-61342380D01*
X124142857Y-61342380D01*
X124285714Y-61390000D01*
X124333333Y-61437619D01*
X124714285Y-61437619D02*
X124761904Y-61390000D01*
X124857142Y-61342380D01*
X125095238Y-61342380D01*
X125190476Y-61390000D01*
X125238095Y-61437619D01*
X125285714Y-61532857D01*
X125285714Y-61628095D01*
X125238095Y-61770952D01*
X124666666Y-62342380D01*
X125285714Y-62342380D01*
X77436342Y-64007666D02*
X77483961Y-64055285D01*
X77531580Y-64198142D01*
X77531580Y-64293380D01*
X77483961Y-64436238D01*
X77388723Y-64531476D01*
X77293485Y-64579095D01*
X77103009Y-64626714D01*
X76960152Y-64626714D01*
X76769676Y-64579095D01*
X76674438Y-64531476D01*
X76579200Y-64436238D01*
X76531580Y-64293380D01*
X76531580Y-64198142D01*
X76579200Y-64055285D01*
X76626819Y-64007666D01*
X77531580Y-63055285D02*
X77531580Y-63626714D01*
X77531580Y-63341000D02*
X76531580Y-63341000D01*
X76674438Y-63436238D01*
X76769676Y-63531476D01*
X76817295Y-63626714D01*
X103802380Y-99821904D02*
X104611904Y-99821904D01*
X104707142Y-99774285D01*
X104754761Y-99726666D01*
X104802380Y-99631428D01*
X104802380Y-99440952D01*
X104754761Y-99345714D01*
X104707142Y-99298095D01*
X104611904Y-99250476D01*
X103802380Y-99250476D01*
X103802380Y-98298095D02*
X103802380Y-98774285D01*
X104278571Y-98821904D01*
X104230952Y-98774285D01*
X104183333Y-98679047D01*
X104183333Y-98440952D01*
X104230952Y-98345714D01*
X104278571Y-98298095D01*
X104373809Y-98250476D01*
X104611904Y-98250476D01*
X104707142Y-98298095D01*
X104754761Y-98345714D01*
X104802380Y-98440952D01*
X104802380Y-98679047D01*
X104754761Y-98774285D01*
X104707142Y-98821904D01*
X73322380Y-101091904D02*
X74131904Y-101091904D01*
X74227142Y-101044285D01*
X74274761Y-100996666D01*
X74322380Y-100901428D01*
X74322380Y-100710952D01*
X74274761Y-100615714D01*
X74227142Y-100568095D01*
X74131904Y-100520476D01*
X73322380Y-100520476D01*
X73322380Y-100139523D02*
X73322380Y-99520476D01*
X73703333Y-99853809D01*
X73703333Y-99710952D01*
X73750952Y-99615714D01*
X73798571Y-99568095D01*
X73893809Y-99520476D01*
X74131904Y-99520476D01*
X74227142Y-99568095D01*
X74274761Y-99615714D01*
X74322380Y-99710952D01*
X74322380Y-99996666D01*
X74274761Y-100091904D01*
X74227142Y-100139523D01*
X66548095Y-58082380D02*
X66548095Y-58891904D01*
X66595714Y-58987142D01*
X66643333Y-59034761D01*
X66738571Y-59082380D01*
X66929047Y-59082380D01*
X67024285Y-59034761D01*
X67071904Y-58987142D01*
X67119523Y-58891904D01*
X67119523Y-58082380D01*
X67548095Y-58177619D02*
X67595714Y-58130000D01*
X67690952Y-58082380D01*
X67929047Y-58082380D01*
X68024285Y-58130000D01*
X68071904Y-58177619D01*
X68119523Y-58272857D01*
X68119523Y-58368095D01*
X68071904Y-58510952D01*
X67500476Y-59082380D01*
X68119523Y-59082380D01*
X105072380Y-85923333D02*
X105786666Y-85923333D01*
X105929523Y-85970952D01*
X106024761Y-86066190D01*
X106072380Y-86209047D01*
X106072380Y-86304285D01*
X106072380Y-85447142D02*
X105072380Y-85447142D01*
X105072380Y-85066190D01*
X105120000Y-84970952D01*
X105167619Y-84923333D01*
X105262857Y-84875714D01*
X105405714Y-84875714D01*
X105500952Y-84923333D01*
X105548571Y-84970952D01*
X105596190Y-85066190D01*
X105596190Y-85447142D01*
X106072380Y-83923333D02*
X106072380Y-84494761D01*
X106072380Y-84209047D02*
X105072380Y-84209047D01*
X105215238Y-84304285D01*
X105310476Y-84399523D01*
X105358095Y-84494761D01*
%LPC*%
D14*
X78740000Y-85090000D03*
D15*
X101600000Y-77470000D03*
X81280000Y-85090000D03*
X99060000Y-77470000D03*
X83820000Y-85090000D03*
X96520000Y-77470000D03*
X86360000Y-85090000D03*
X93980000Y-77470000D03*
X88900000Y-85090000D03*
X91440000Y-77470000D03*
X91440000Y-85090000D03*
X88900000Y-77470000D03*
X93980000Y-85090000D03*
X86360000Y-77470000D03*
X96520000Y-85090000D03*
X83820000Y-77470000D03*
X99060000Y-85090000D03*
X81280000Y-77470000D03*
X101600000Y-85090000D03*
X78740000Y-77470000D03*
X71120000Y-83820000D03*
X63500000Y-99060000D03*
X71120000Y-86360000D03*
X63500000Y-96520000D03*
X71120000Y-88900000D03*
X63500000Y-93980000D03*
X71120000Y-91440000D03*
X63500000Y-91440000D03*
X71120000Y-93980000D03*
X63500000Y-88900000D03*
X71120000Y-96520000D03*
X63500000Y-86360000D03*
X71120000Y-99060000D03*
D14*
X63500000Y-83820000D03*
D15*
X120650000Y-87630000D03*
X128270000Y-64770000D03*
X120650000Y-85090000D03*
X128270000Y-67310000D03*
X120650000Y-82550000D03*
X128270000Y-69850000D03*
X120650000Y-80010000D03*
X128270000Y-72390000D03*
X120650000Y-77470000D03*
X128270000Y-74930000D03*
X120650000Y-74930000D03*
X128270000Y-77470000D03*
X120650000Y-72390000D03*
X128270000Y-80010000D03*
X120650000Y-69850000D03*
X128270000Y-82550000D03*
X120650000Y-67310000D03*
X128270000Y-85090000D03*
X120650000Y-64770000D03*
D14*
X128270000Y-87630000D03*
D16*
X90170000Y-58420000D03*
X113030000Y-66040000D03*
X92710000Y-58420000D03*
X110490000Y-66040000D03*
X95250000Y-58420000D03*
X107950000Y-66040000D03*
X97790000Y-58420000D03*
X105410000Y-66040000D03*
X100330000Y-58420000D03*
X102870000Y-66040000D03*
X102870000Y-58420000D03*
X100330000Y-66040000D03*
X105410000Y-58420000D03*
X97790000Y-66040000D03*
X107950000Y-58420000D03*
X95250000Y-66040000D03*
X110490000Y-58420000D03*
X92710000Y-66040000D03*
X113030000Y-58420000D03*
D17*
X90170000Y-66040000D03*
D18*
X85010000Y-93345000D03*
X80010000Y-93345000D03*
X64850000Y-104140000D03*
X69850000Y-104140000D03*
X74930000Y-78740000D03*
X74930000Y-83740000D03*
X101600000Y-96600000D03*
X101600000Y-101600000D03*
X122000000Y-59690000D03*
X127000000Y-59690000D03*
X74879200Y-66341000D03*
X74879200Y-61341000D03*
D15*
X106680000Y-95250000D03*
X139700000Y-102870000D03*
X109220000Y-95250000D03*
X137160000Y-102870000D03*
X111760000Y-95250000D03*
X134620000Y-102870000D03*
X114300000Y-95250000D03*
X132080000Y-102870000D03*
X116840000Y-95250000D03*
X129540000Y-102870000D03*
X119380000Y-95250000D03*
X127000000Y-102870000D03*
X121920000Y-95250000D03*
X124460000Y-102870000D03*
X124460000Y-95250000D03*
X121920000Y-102870000D03*
X127000000Y-95250000D03*
X119380000Y-102870000D03*
X129540000Y-95250000D03*
X116840000Y-102870000D03*
X132080000Y-95250000D03*
X114300000Y-102870000D03*
X134620000Y-95250000D03*
X111760000Y-102870000D03*
X137160000Y-95250000D03*
X109220000Y-102870000D03*
X139700000Y-95250000D03*
D14*
X106680000Y-102870000D03*
D15*
X76200000Y-96520000D03*
X91440000Y-104140000D03*
X78740000Y-96520000D03*
X88900000Y-104140000D03*
X81280000Y-96520000D03*
X86360000Y-104140000D03*
X83820000Y-96520000D03*
X83820000Y-104140000D03*
X86360000Y-96520000D03*
X81280000Y-104140000D03*
X88900000Y-96520000D03*
X78740000Y-104140000D03*
X91440000Y-96520000D03*
D14*
X76200000Y-104140000D03*
D15*
X71120000Y-60960000D03*
X63500000Y-76200000D03*
X71120000Y-63500000D03*
X63500000Y-73660000D03*
X71120000Y-66040000D03*
X63500000Y-71120000D03*
X71120000Y-68580000D03*
X63500000Y-68580000D03*
X71120000Y-71120000D03*
X63500000Y-66040000D03*
X71120000Y-73660000D03*
X63500000Y-63500000D03*
X71120000Y-76200000D03*
D14*
X63500000Y-60960000D03*
D19*
X113030000Y-85090000D03*
X110490000Y-85090000D03*
D20*
X107950000Y-85090000D03*
M02*
