M48
; DRILL file {KiCad (5.1.9)-1} date 05/10/23 22:08:10
; FORMAT={-:-/ absolute / inch / decimal}
; #@! TF.CreationDate,2023-05-10T22:08:10+02:00
; #@! TF.GenerationSoftware,Kicad,Pcbnew,(5.1.9)-1
; #@! TF.FileFunction,Plated,1,2,PTH
FMAT,2
INCH
T1C0.0315
T2C0.0394
%
G90
G05
T1
X2.5Y-2.4
X2.5Y-2.5
X2.5Y-2.6
X2.5Y-2.7
X2.5Y-2.8
X2.5Y-2.9
X2.5Y-3.0
X2.5Y-3.3
X2.5Y-3.4
X2.5Y-3.5
X2.5Y-3.6
X2.5Y-3.7
X2.5Y-3.8
X2.5Y-3.9
X2.5531Y-4.1
X2.75Y-4.1
X2.8Y-2.4
X2.8Y-2.5
X2.8Y-2.6
X2.8Y-2.7
X2.8Y-2.8
X2.8Y-2.9
X2.8Y-3.0
X2.8Y-3.3
X2.8Y-3.4
X2.8Y-3.5
X2.8Y-3.6
X2.8Y-3.7
X2.8Y-3.8
X2.8Y-3.9
X2.948Y-2.415
X2.948Y-2.6119
X2.95Y-3.1
X2.95Y-3.2969
X3.0Y-3.8
X3.0Y-4.1
X3.1Y-3.05
X3.1Y-3.35
X3.1Y-3.8
X3.1Y-4.1
X3.15Y-3.675
X3.2Y-3.05
X3.2Y-3.35
X3.2Y-3.8
X3.2Y-4.1
X3.3Y-3.05
X3.3Y-3.35
X3.3Y-3.8
X3.3Y-4.1
X3.3469Y-3.675
X3.4Y-3.05
X3.4Y-3.35
X3.4Y-3.8
X3.4Y-4.1
X3.5Y-3.05
X3.5Y-3.35
X3.5Y-3.8
X3.5Y-4.1
X3.55Y-2.3
X3.55Y-2.6
X3.6Y-3.05
X3.6Y-3.35
X3.6Y-3.8
X3.6Y-4.1
X3.65Y-2.3
X3.65Y-2.6
X3.7Y-3.05
X3.7Y-3.35
X3.75Y-2.3
X3.75Y-2.6
X3.8Y-3.05
X3.8Y-3.35
X3.85Y-2.3
X3.85Y-2.6
X3.9Y-3.05
X3.9Y-3.35
X3.95Y-2.3
X3.95Y-2.6
X4.0Y-3.05
X4.0Y-3.35
X4.0Y-3.8031
X4.0Y-4.0
X4.05Y-2.3
X4.05Y-2.6
X4.15Y-2.3
X4.15Y-2.6
X4.2Y-3.75
X4.2Y-4.05
X4.25Y-2.3
X4.25Y-2.6
X4.3Y-3.75
X4.3Y-4.05
X4.35Y-2.3
X4.35Y-2.6
X4.4Y-3.75
X4.4Y-4.05
X4.45Y-2.3
X4.45Y-2.6
X4.5Y-3.75
X4.5Y-4.05
X4.6Y-3.75
X4.6Y-4.05
X4.7Y-3.75
X4.7Y-4.05
X4.75Y-2.55
X4.75Y-2.65
X4.75Y-2.75
X4.75Y-2.85
X4.75Y-2.95
X4.75Y-3.05
X4.75Y-3.15
X4.75Y-3.25
X4.75Y-3.35
X4.75Y-3.45
X4.8Y-3.75
X4.8Y-4.05
X4.8031Y-2.35
X4.9Y-3.75
X4.9Y-4.05
X5.0Y-2.35
X5.0Y-3.75
X5.0Y-4.05
X5.05Y-2.55
X5.05Y-2.65
X5.05Y-2.75
X5.05Y-2.85
X5.05Y-2.95
X5.05Y-3.05
X5.05Y-3.15
X5.05Y-3.25
X5.05Y-3.35
X5.05Y-3.45
X5.1Y-3.75
X5.1Y-4.05
X5.2Y-3.75
X5.2Y-4.05
X5.3Y-3.75
X5.3Y-4.05
X5.4Y-3.75
X5.4Y-4.05
X5.5Y-3.75
X5.5Y-4.05
T2
X4.25Y-3.35
X4.35Y-3.35
X4.45Y-3.35
T0
M30
