G04 #@! TF.GenerationSoftware,KiCad,Pcbnew,(5.1.9)-1*
G04 #@! TF.CreationDate,2023-05-10T22:08:07+02:00*
G04 #@! TF.ProjectId,repeater,72657065-6174-4657-922e-6b696361645f,1*
G04 #@! TF.SameCoordinates,Original*
G04 #@! TF.FileFunction,Copper,L1,Top*
G04 #@! TF.FilePolarity,Positive*
%FSLAX46Y46*%
G04 Gerber Fmt 4.6, Leading zero omitted, Abs format (unit mm)*
G04 Created by KiCad (PCBNEW (5.1.9)-1) date 2023-05-10 22:08:07*
%MOMM*%
%LPD*%
G01*
G04 APERTURE LIST*
G04 #@! TA.AperFunction,ComponentPad*
%ADD10R,1.600000X1.600000*%
G04 #@! TD*
G04 #@! TA.AperFunction,ComponentPad*
%ADD11O,1.600000X1.600000*%
G04 #@! TD*
G04 #@! TA.AperFunction,ComponentPad*
%ADD12O,1.600000X2.400000*%
G04 #@! TD*
G04 #@! TA.AperFunction,ComponentPad*
%ADD13R,1.600000X2.400000*%
G04 #@! TD*
G04 #@! TA.AperFunction,ComponentPad*
%ADD14C,1.600000*%
G04 #@! TD*
G04 #@! TA.AperFunction,ComponentPad*
%ADD15O,1.700000X1.700000*%
G04 #@! TD*
G04 #@! TA.AperFunction,ComponentPad*
%ADD16R,1.700000X1.700000*%
G04 #@! TD*
G04 #@! TA.AperFunction,Conductor*
%ADD17C,0.250000*%
G04 #@! TD*
G04 #@! TA.AperFunction,Conductor*
%ADD18C,0.500000*%
G04 #@! TD*
G04 #@! TA.AperFunction,Conductor*
%ADD19C,0.254000*%
G04 #@! TD*
G04 #@! TA.AperFunction,Conductor*
%ADD20C,0.152400*%
G04 #@! TD*
G04 APERTURE END LIST*
D10*
X78740000Y-85090000D03*
D11*
X101600000Y-77470000D03*
X81280000Y-85090000D03*
X99060000Y-77470000D03*
X83820000Y-85090000D03*
X96520000Y-77470000D03*
X86360000Y-85090000D03*
X93980000Y-77470000D03*
X88900000Y-85090000D03*
X91440000Y-77470000D03*
X91440000Y-85090000D03*
X88900000Y-77470000D03*
X93980000Y-85090000D03*
X86360000Y-77470000D03*
X96520000Y-85090000D03*
X83820000Y-77470000D03*
X99060000Y-85090000D03*
X81280000Y-77470000D03*
X101600000Y-85090000D03*
X78740000Y-77470000D03*
X71120000Y-83820000D03*
X63500000Y-99060000D03*
X71120000Y-86360000D03*
X63500000Y-96520000D03*
X71120000Y-88900000D03*
X63500000Y-93980000D03*
X71120000Y-91440000D03*
X63500000Y-91440000D03*
X71120000Y-93980000D03*
X63500000Y-88900000D03*
X71120000Y-96520000D03*
X63500000Y-86360000D03*
X71120000Y-99060000D03*
D10*
X63500000Y-83820000D03*
D11*
X120650000Y-87630000D03*
X128270000Y-64770000D03*
X120650000Y-85090000D03*
X128270000Y-67310000D03*
X120650000Y-82550000D03*
X128270000Y-69850000D03*
X120650000Y-80010000D03*
X128270000Y-72390000D03*
X120650000Y-77470000D03*
X128270000Y-74930000D03*
X120650000Y-74930000D03*
X128270000Y-77470000D03*
X120650000Y-72390000D03*
X128270000Y-80010000D03*
X120650000Y-69850000D03*
X128270000Y-82550000D03*
X120650000Y-67310000D03*
X128270000Y-85090000D03*
X120650000Y-64770000D03*
D10*
X128270000Y-87630000D03*
D12*
X90170000Y-58420000D03*
X113030000Y-66040000D03*
X92710000Y-58420000D03*
X110490000Y-66040000D03*
X95250000Y-58420000D03*
X107950000Y-66040000D03*
X97790000Y-58420000D03*
X105410000Y-66040000D03*
X100330000Y-58420000D03*
X102870000Y-66040000D03*
X102870000Y-58420000D03*
X100330000Y-66040000D03*
X105410000Y-58420000D03*
X97790000Y-66040000D03*
X107950000Y-58420000D03*
X95250000Y-66040000D03*
X110490000Y-58420000D03*
X92710000Y-66040000D03*
X113030000Y-58420000D03*
D13*
X90170000Y-66040000D03*
D14*
X85010000Y-93345000D03*
X80010000Y-93345000D03*
X64850000Y-104140000D03*
X69850000Y-104140000D03*
X74930000Y-78740000D03*
X74930000Y-83740000D03*
X101600000Y-96600000D03*
X101600000Y-101600000D03*
X122000000Y-59690000D03*
X127000000Y-59690000D03*
X74879200Y-66341000D03*
X74879200Y-61341000D03*
D11*
X106680000Y-95250000D03*
X139700000Y-102870000D03*
X109220000Y-95250000D03*
X137160000Y-102870000D03*
X111760000Y-95250000D03*
X134620000Y-102870000D03*
X114300000Y-95250000D03*
X132080000Y-102870000D03*
X116840000Y-95250000D03*
X129540000Y-102870000D03*
X119380000Y-95250000D03*
X127000000Y-102870000D03*
X121920000Y-95250000D03*
X124460000Y-102870000D03*
X124460000Y-95250000D03*
X121920000Y-102870000D03*
X127000000Y-95250000D03*
X119380000Y-102870000D03*
X129540000Y-95250000D03*
X116840000Y-102870000D03*
X132080000Y-95250000D03*
X114300000Y-102870000D03*
X134620000Y-95250000D03*
X111760000Y-102870000D03*
X137160000Y-95250000D03*
X109220000Y-102870000D03*
X139700000Y-95250000D03*
D10*
X106680000Y-102870000D03*
D11*
X76200000Y-96520000D03*
X91440000Y-104140000D03*
X78740000Y-96520000D03*
X88900000Y-104140000D03*
X81280000Y-96520000D03*
X86360000Y-104140000D03*
X83820000Y-96520000D03*
X83820000Y-104140000D03*
X86360000Y-96520000D03*
X81280000Y-104140000D03*
X88900000Y-96520000D03*
X78740000Y-104140000D03*
X91440000Y-96520000D03*
D10*
X76200000Y-104140000D03*
D11*
X71120000Y-60960000D03*
X63500000Y-76200000D03*
X71120000Y-63500000D03*
X63500000Y-73660000D03*
X71120000Y-66040000D03*
X63500000Y-71120000D03*
X71120000Y-68580000D03*
X63500000Y-68580000D03*
X71120000Y-71120000D03*
X63500000Y-66040000D03*
X71120000Y-73660000D03*
X63500000Y-63500000D03*
X71120000Y-76200000D03*
D10*
X63500000Y-60960000D03*
D15*
X113030000Y-85090000D03*
X110490000Y-85090000D03*
D16*
X107950000Y-85090000D03*
D17*
X118110000Y-96709998D02*
X118110000Y-92710000D01*
X120555001Y-99154999D02*
X118110000Y-96709998D01*
X120555001Y-106774999D02*
X120555001Y-99154999D01*
X118110000Y-109220000D02*
X120555001Y-106774999D01*
X96520000Y-109220000D02*
X118110000Y-109220000D01*
X93980000Y-102870000D02*
X93980000Y-106680000D01*
X88900000Y-97790000D02*
X93980000Y-102870000D01*
X88900000Y-96520000D02*
X88900000Y-97790000D01*
X116205000Y-90805000D02*
X113030000Y-87630000D01*
X118110000Y-92710000D02*
X116205000Y-90805000D01*
X116205000Y-90805000D02*
X115570000Y-90170000D01*
X113030000Y-87630000D02*
X113030000Y-85090000D01*
X64000010Y-86567110D02*
X63853560Y-86713560D01*
X64000010Y-86360000D02*
X64000010Y-86567110D01*
X93980000Y-106680000D02*
X96520000Y-109220000D01*
X88900000Y-96520000D02*
X88900000Y-95250000D01*
X68580000Y-90170000D02*
X64770000Y-86360000D01*
X64770000Y-86360000D02*
X64000010Y-86360000D01*
X73660000Y-90170000D02*
X68580000Y-90170000D01*
X88900000Y-95250000D02*
X84455000Y-90805000D01*
X74295000Y-90805000D02*
X73660000Y-90170000D01*
X84455000Y-90805000D02*
X74295000Y-90805000D01*
X111760000Y-81280000D02*
X110490000Y-82550000D01*
X110490000Y-82550000D02*
X110490000Y-85090000D01*
X121920000Y-81280000D02*
X111760000Y-81280000D01*
X128270000Y-87630000D02*
X121920000Y-81280000D01*
X71120000Y-71120000D02*
X68580000Y-71120000D01*
X68580000Y-71120000D02*
X66040000Y-68580000D01*
X66040000Y-68580000D02*
X63500000Y-68580000D01*
X92710000Y-58420000D02*
X92710000Y-59055000D01*
X81280000Y-74930000D02*
X81280000Y-77470000D01*
X88265000Y-67945000D02*
X81280000Y-74930000D01*
X92710000Y-59690000D02*
X88265000Y-64135000D01*
X88265000Y-64135000D02*
X88265000Y-67945000D01*
X92710000Y-58420000D02*
X92710000Y-59690000D01*
X72390000Y-71120000D02*
X71120000Y-71120000D01*
X81280000Y-74930000D02*
X77470000Y-71120000D01*
X77470000Y-71120000D02*
X71120000Y-71120000D01*
X99060000Y-85090000D02*
X99060000Y-102870000D01*
X99060000Y-102870000D02*
X100330000Y-104140000D01*
X110490000Y-104140000D02*
X111760000Y-102870000D01*
X100330000Y-104140000D02*
X110490000Y-104140000D01*
X91440000Y-62230000D02*
X95250000Y-58420000D01*
X91440000Y-68580000D02*
X91440000Y-62230000D01*
X83820000Y-76200000D02*
X91440000Y-68580000D01*
X83820000Y-77470000D02*
X83820000Y-76200000D01*
X107950000Y-67310000D02*
X107950000Y-66040000D01*
X100330000Y-74930000D02*
X107950000Y-67310000D01*
X100330000Y-78740000D02*
X100330000Y-74930000D01*
X96520000Y-82550000D02*
X100330000Y-78740000D01*
X96520000Y-85090000D02*
X96520000Y-82550000D01*
X86360000Y-77470000D02*
X86360000Y-76200000D01*
X86360000Y-76200000D02*
X93980000Y-68580000D01*
X93980000Y-68580000D02*
X93980000Y-62230000D01*
X93980000Y-62230000D02*
X96520000Y-59690000D01*
X96520000Y-59690000D02*
X97790000Y-58420000D01*
X105410000Y-67310000D02*
X105410000Y-66040000D01*
X97790000Y-74930000D02*
X105410000Y-67310000D01*
X97790000Y-78740000D02*
X97790000Y-74930000D01*
X93980000Y-82550000D02*
X97790000Y-78740000D01*
X93980000Y-85090000D02*
X93980000Y-82550000D01*
X100330000Y-58420000D02*
X100330000Y-57150000D01*
X63500000Y-58420000D02*
X63500000Y-60960000D01*
X65575020Y-56344980D02*
X63500000Y-58420000D01*
X100330000Y-57150000D02*
X98425000Y-55245000D01*
X98425000Y-55245000D02*
X66675000Y-55245000D01*
X66675000Y-55245000D02*
X65405000Y-56515000D01*
X114300000Y-102870000D02*
X114300000Y-104140000D01*
X114300000Y-104140000D02*
X113030000Y-105410000D01*
X97790000Y-91440000D02*
X95250000Y-88900000D01*
X95250000Y-88900000D02*
X92710000Y-88900000D01*
X92710000Y-88900000D02*
X91440000Y-87630000D01*
X91440000Y-87630000D02*
X91440000Y-85090000D01*
X99695000Y-105410000D02*
X97790000Y-103505000D01*
X97790000Y-103505000D02*
X97790000Y-91440000D01*
X113030000Y-105410000D02*
X99695000Y-105410000D01*
X88900000Y-85090000D02*
X88900000Y-88900000D01*
X88900000Y-88900000D02*
X90170000Y-90170000D01*
X90170000Y-90170000D02*
X93980000Y-90170000D01*
X93980000Y-90170000D02*
X96520000Y-92710000D01*
X96520000Y-92710000D02*
X96520000Y-104140000D01*
X96520000Y-104140000D02*
X97790000Y-105410000D01*
X115570000Y-105410000D02*
X116840000Y-104140000D01*
X116840000Y-104140000D02*
X116840000Y-102870000D01*
X97790000Y-105410000D02*
X99060000Y-106680000D01*
X99060000Y-106680000D02*
X114300000Y-106680000D01*
X114300000Y-106680000D02*
X115570000Y-105410000D01*
X93980000Y-77470000D02*
X93980000Y-74930000D01*
X101600000Y-67310000D02*
X101600000Y-63500000D01*
X101600000Y-63500000D02*
X105410000Y-59690000D01*
X105410000Y-59690000D02*
X105410000Y-58420000D01*
X93980000Y-74930000D02*
X101600000Y-67310000D01*
X97790000Y-68580000D02*
X97790000Y-66040000D01*
X90170000Y-76200000D02*
X97790000Y-68580000D01*
X90170000Y-78740000D02*
X90170000Y-76200000D01*
X86360000Y-82550000D02*
X90170000Y-78740000D01*
X86360000Y-85090000D02*
X86360000Y-82550000D01*
X96520000Y-77470000D02*
X96520000Y-74930000D01*
X96520000Y-74930000D02*
X104140000Y-67310000D01*
X104140000Y-67310000D02*
X104140000Y-63500000D01*
X104140000Y-63500000D02*
X107950000Y-59690000D01*
X107950000Y-59690000D02*
X107950000Y-58420000D01*
X83820000Y-83820000D02*
X83820000Y-85090000D01*
X87535001Y-80104999D02*
X83820000Y-83820000D01*
X87535001Y-77095997D02*
X87535001Y-80104999D01*
X95250000Y-69380998D02*
X87535001Y-77095997D01*
X95250000Y-66040000D02*
X95250000Y-69380998D01*
X119380000Y-105410000D02*
X119380000Y-102870000D01*
X97790000Y-107950000D02*
X116840000Y-107950000D01*
X95250000Y-105410000D02*
X97790000Y-107950000D01*
X92710000Y-91440000D02*
X95250000Y-93980000D01*
X95250000Y-93980000D02*
X95250000Y-105410000D01*
X87630000Y-91440000D02*
X92710000Y-91440000D01*
X116840000Y-107950000D02*
X119380000Y-105410000D01*
X81280000Y-85090000D02*
X87630000Y-91440000D01*
X113030000Y-59690000D02*
X113030000Y-58420000D01*
X109220000Y-63500000D02*
X113030000Y-59690000D01*
X109220000Y-67310000D02*
X109220000Y-63500000D01*
X101600000Y-74930000D02*
X109220000Y-67310000D01*
X101600000Y-77470000D02*
X101600000Y-74930000D01*
X139700000Y-97155000D02*
X139700000Y-95250000D01*
X139065000Y-97790000D02*
X139700000Y-97155000D01*
X134620000Y-97790000D02*
X139065000Y-97790000D01*
X133350000Y-96520000D02*
X134620000Y-97790000D01*
X120650000Y-64770000D02*
X123190000Y-64770000D01*
X123190000Y-64770000D02*
X124460000Y-66040000D01*
X124460000Y-66040000D02*
X124460000Y-69850000D01*
X124460000Y-69850000D02*
X125730000Y-71120000D01*
X125730000Y-71120000D02*
X130175000Y-71120000D01*
X130175000Y-71120000D02*
X133350000Y-74295000D01*
X133350000Y-74295000D02*
X133350000Y-76200000D01*
X133350000Y-76200000D02*
X133350000Y-96520000D01*
X133350000Y-75565000D02*
X133350000Y-76200000D01*
X78740000Y-83820000D02*
X78740000Y-85090000D01*
X82644999Y-79915001D02*
X78740000Y-83820000D01*
X82644999Y-75015001D02*
X82644999Y-79915001D01*
X90170000Y-67490000D02*
X82644999Y-75015001D01*
X90170000Y-66040000D02*
X90170000Y-67490000D01*
X63500000Y-73660000D02*
X64770000Y-73660000D01*
X64770000Y-73660000D02*
X67310000Y-76200000D01*
X67310000Y-76200000D02*
X67310000Y-83820000D01*
X67310000Y-83820000D02*
X69850000Y-86360000D01*
X69850000Y-86360000D02*
X71120000Y-86360000D01*
X72390000Y-88900000D02*
X71120000Y-88900000D01*
X72795011Y-88494989D02*
X72390000Y-88900000D01*
X72795011Y-80415011D02*
X72795011Y-88494989D01*
X71120000Y-78740000D02*
X72795011Y-80415011D01*
X71120000Y-78740000D02*
X69850000Y-78740000D01*
X69850000Y-78740000D02*
X68580000Y-77470000D01*
X68580000Y-77470000D02*
X68580000Y-74295000D01*
X68580000Y-74295000D02*
X69215000Y-73660000D01*
X69215000Y-73660000D02*
X71120000Y-73660000D01*
X72390000Y-96520000D02*
X71120000Y-96520000D01*
X74930000Y-99060000D02*
X72390000Y-96520000D01*
X83820000Y-99060000D02*
X74930000Y-99060000D01*
X88900000Y-104140000D02*
X83820000Y-99060000D01*
X71120000Y-99060000D02*
X72390000Y-99060000D01*
X73660000Y-99060000D02*
X74930000Y-100330000D01*
X74930000Y-100330000D02*
X82550000Y-100330000D01*
X83820000Y-101600000D02*
X83820000Y-104140000D01*
X82550000Y-100330000D02*
X83820000Y-101600000D01*
X72390000Y-99060000D02*
X73660000Y-99060000D01*
X77470000Y-102870000D02*
X78740000Y-104140000D01*
X76200000Y-101600000D02*
X77470000Y-102870000D01*
X69850000Y-101600000D02*
X76200000Y-101600000D01*
X64770000Y-96520000D02*
X69850000Y-101600000D01*
X63500000Y-96520000D02*
X64770000Y-96520000D01*
X63500000Y-91440000D02*
X71120000Y-91440000D01*
X63500000Y-91440000D02*
X63500000Y-93980000D01*
X102870000Y-57150000D02*
X102870000Y-58420000D01*
X104140000Y-55880000D02*
X102870000Y-57150000D01*
X116840000Y-55880000D02*
X104140000Y-55880000D01*
X118110000Y-57150000D02*
X116840000Y-55880000D01*
X118110000Y-69850000D02*
X118110000Y-57150000D01*
X120650000Y-72390000D02*
X118110000Y-69850000D01*
D18*
X114300000Y-97790000D02*
X114300000Y-95250000D01*
X113030000Y-99060000D02*
X114300000Y-97790000D01*
X110490000Y-99060000D02*
X113030000Y-99060000D01*
X109220000Y-100330000D02*
X110490000Y-99060000D01*
X109220000Y-102870000D02*
X109220000Y-100330000D01*
X64850000Y-104140000D02*
X64850000Y-105490000D01*
X64850000Y-105490000D02*
X66040000Y-106680000D01*
X66040000Y-106680000D02*
X80010000Y-106680000D01*
X81280000Y-105410000D02*
X81280000Y-104140000D01*
X80010000Y-106680000D02*
X81280000Y-105410000D01*
X116840000Y-97790000D02*
X116840000Y-95250000D01*
X115570000Y-99060000D02*
X116840000Y-97790000D01*
X113030000Y-99060000D02*
X115570000Y-99060000D01*
X101600000Y-96600000D02*
X101600000Y-85090000D01*
X101600000Y-82550000D02*
X101600000Y-85090000D01*
X103505000Y-76835000D02*
X103505000Y-80645000D01*
X103505000Y-80645000D02*
X101600000Y-82550000D01*
X113030000Y-67310000D02*
X103505000Y-76835000D01*
X113030000Y-66040000D02*
X113030000Y-67310000D01*
D17*
X83820000Y-94535000D02*
X85010000Y-93345000D01*
X83820000Y-96520000D02*
X83820000Y-94535000D01*
X71120000Y-60960000D02*
X68580000Y-60960000D01*
X66040000Y-63500000D02*
X63500000Y-63500000D01*
X68580000Y-60960000D02*
X66040000Y-63500000D01*
X80104999Y-97695001D02*
X81280000Y-96520000D01*
X77375001Y-97695001D02*
X80104999Y-97695001D01*
X76200000Y-96520000D02*
X77375001Y-97695001D01*
X63500000Y-66040000D02*
X63500000Y-63500000D01*
D18*
X101600000Y-101600000D02*
X101600000Y-100330000D01*
X101600000Y-100330000D02*
X102870000Y-99060000D01*
X102870000Y-99060000D02*
X105410000Y-99060000D01*
X105410000Y-99060000D02*
X106680000Y-97790000D01*
X106680000Y-97790000D02*
X106680000Y-95250000D01*
D17*
X78660000Y-77550000D02*
X78740000Y-77470000D01*
D19*
X141555001Y-111075000D02*
X60375000Y-111075000D01*
X60375000Y-63849039D01*
X62108096Y-63849039D01*
X62148754Y-63983087D01*
X62268963Y-64237420D01*
X62436481Y-64463414D01*
X62644869Y-64652385D01*
X62840982Y-64770000D01*
X62644869Y-64887615D01*
X62436481Y-65076586D01*
X62268963Y-65302580D01*
X62148754Y-65556913D01*
X62108096Y-65690961D01*
X62230085Y-65913000D01*
X63373000Y-65913000D01*
X63373000Y-63627000D01*
X63627000Y-63627000D01*
X63627000Y-65913000D01*
X64769915Y-65913000D01*
X64891904Y-65690961D01*
X64851246Y-65556913D01*
X64731037Y-65302580D01*
X64563519Y-65076586D01*
X64355131Y-64887615D01*
X64159018Y-64770000D01*
X64355131Y-64652385D01*
X64563519Y-64463414D01*
X64731037Y-64237420D01*
X64851246Y-63983087D01*
X64891904Y-63849039D01*
X64769915Y-63627000D01*
X63627000Y-63627000D01*
X63373000Y-63627000D01*
X62230085Y-63627000D01*
X62108096Y-63849039D01*
X60375000Y-63849039D01*
X60375000Y-60160000D01*
X62061928Y-60160000D01*
X62061928Y-61760000D01*
X62074188Y-61884482D01*
X62110498Y-62004180D01*
X62169463Y-62114494D01*
X62248815Y-62211185D01*
X62345506Y-62290537D01*
X62455820Y-62349502D01*
X62575518Y-62385812D01*
X62600080Y-62388231D01*
X62436481Y-62536586D01*
X62268963Y-62762580D01*
X62148754Y-63016913D01*
X62108096Y-63150961D01*
X62230085Y-63373000D01*
X63373000Y-63373000D01*
X63373000Y-63353000D01*
X63627000Y-63353000D01*
X63627000Y-63373000D01*
X64769915Y-63373000D01*
X64891904Y-63150961D01*
X64851246Y-63016913D01*
X64731037Y-62762580D01*
X64563519Y-62536586D01*
X64399920Y-62388231D01*
X64424482Y-62385812D01*
X64544180Y-62349502D01*
X64654494Y-62290537D01*
X64751185Y-62211185D01*
X64830537Y-62114494D01*
X64889502Y-62004180D01*
X64925812Y-61884482D01*
X64938072Y-61760000D01*
X64938072Y-60610961D01*
X69728096Y-60610961D01*
X69850085Y-60833000D01*
X70993000Y-60833000D01*
X70993000Y-59689376D01*
X71247000Y-59689376D01*
X71247000Y-60833000D01*
X72389915Y-60833000D01*
X72511904Y-60610961D01*
X72471246Y-60476913D01*
X72410457Y-60348298D01*
X74066103Y-60348298D01*
X74879200Y-61161395D01*
X75692297Y-60348298D01*
X75620714Y-60104329D01*
X75365204Y-59983429D01*
X75091016Y-59914700D01*
X74808688Y-59900783D01*
X74529070Y-59942213D01*
X74262908Y-60037397D01*
X74137686Y-60104329D01*
X74066103Y-60348298D01*
X72410457Y-60348298D01*
X72351037Y-60222580D01*
X72183519Y-59996586D01*
X71975131Y-59807615D01*
X71733881Y-59662930D01*
X71469040Y-59568091D01*
X71247000Y-59689376D01*
X70993000Y-59689376D01*
X70770960Y-59568091D01*
X70506119Y-59662930D01*
X70264869Y-59807615D01*
X70056481Y-59996586D01*
X69888963Y-60222580D01*
X69768754Y-60476913D01*
X69728096Y-60610961D01*
X64938072Y-60610961D01*
X64938072Y-60160000D01*
X64925812Y-60035518D01*
X64889502Y-59915820D01*
X64830537Y-59805506D01*
X64751185Y-59708815D01*
X64654494Y-59629463D01*
X64544180Y-59570498D01*
X64424482Y-59534188D01*
X64300000Y-59521928D01*
X64260000Y-59521928D01*
X64260000Y-58734801D01*
X64447801Y-58547000D01*
X88735000Y-58547000D01*
X88735000Y-58947000D01*
X88787350Y-59224514D01*
X88892834Y-59486483D01*
X89047399Y-59722839D01*
X89245105Y-59924500D01*
X89478354Y-60083715D01*
X89738182Y-60194367D01*
X89820961Y-60211904D01*
X90043000Y-60089915D01*
X90043000Y-58547000D01*
X88735000Y-58547000D01*
X64447801Y-58547000D01*
X65101801Y-57893000D01*
X88735000Y-57893000D01*
X88735000Y-58293000D01*
X90043000Y-58293000D01*
X90043000Y-56750085D01*
X89820961Y-56628096D01*
X89738182Y-56645633D01*
X89478354Y-56756285D01*
X89245105Y-56915500D01*
X89047399Y-57117161D01*
X88892834Y-57353517D01*
X88787350Y-57615486D01*
X88735000Y-57893000D01*
X65101801Y-57893000D01*
X66138819Y-56855984D01*
X66138827Y-56855974D01*
X66989802Y-56005000D01*
X98110199Y-56005000D01*
X99218077Y-57112879D01*
X99131068Y-57218900D01*
X99060000Y-57351858D01*
X98988932Y-57218899D01*
X98809607Y-57000392D01*
X98591100Y-56821068D01*
X98341807Y-56687818D01*
X98071308Y-56605764D01*
X97790000Y-56578057D01*
X97508691Y-56605764D01*
X97238192Y-56687818D01*
X96988899Y-56821068D01*
X96770392Y-57000393D01*
X96591068Y-57218900D01*
X96520000Y-57351858D01*
X96448932Y-57218899D01*
X96269607Y-57000392D01*
X96051100Y-56821068D01*
X95801807Y-56687818D01*
X95531308Y-56605764D01*
X95250000Y-56578057D01*
X94968691Y-56605764D01*
X94698192Y-56687818D01*
X94448899Y-56821068D01*
X94230392Y-57000393D01*
X94051068Y-57218900D01*
X93980000Y-57351858D01*
X93908932Y-57218899D01*
X93729607Y-57000392D01*
X93511100Y-56821068D01*
X93261807Y-56687818D01*
X92991308Y-56605764D01*
X92710000Y-56578057D01*
X92428691Y-56605764D01*
X92158192Y-56687818D01*
X91908899Y-56821068D01*
X91690392Y-57000393D01*
X91511068Y-57218900D01*
X91442735Y-57346742D01*
X91292601Y-57117161D01*
X91094895Y-56915500D01*
X90861646Y-56756285D01*
X90601818Y-56645633D01*
X90519039Y-56628096D01*
X90297000Y-56750085D01*
X90297000Y-58293000D01*
X90317000Y-58293000D01*
X90317000Y-58547000D01*
X90297000Y-58547000D01*
X90297000Y-60089915D01*
X90519039Y-60211904D01*
X90601818Y-60194367D01*
X90861646Y-60083715D01*
X91094895Y-59924500D01*
X91292601Y-59722839D01*
X91442735Y-59493259D01*
X91511068Y-59621101D01*
X91598077Y-59727121D01*
X87754003Y-63571196D01*
X87724999Y-63594999D01*
X87680694Y-63648985D01*
X87630026Y-63710724D01*
X87586451Y-63792246D01*
X87559454Y-63842754D01*
X87515997Y-63986015D01*
X87505000Y-64097668D01*
X87505000Y-64097678D01*
X87501324Y-64135000D01*
X87505000Y-64172323D01*
X87505001Y-67630197D01*
X81280000Y-73855199D01*
X78033804Y-70609003D01*
X78010001Y-70579999D01*
X77894276Y-70485026D01*
X77762247Y-70414454D01*
X77618986Y-70370997D01*
X77507333Y-70360000D01*
X77507322Y-70360000D01*
X77470000Y-70356324D01*
X77432678Y-70360000D01*
X72338043Y-70360000D01*
X72234637Y-70205241D01*
X72034759Y-70005363D01*
X71802241Y-69850000D01*
X72034759Y-69694637D01*
X72234637Y-69494759D01*
X72391680Y-69259727D01*
X72499853Y-68998574D01*
X72555000Y-68721335D01*
X72555000Y-68438665D01*
X72499853Y-68161426D01*
X72391680Y-67900273D01*
X72234637Y-67665241D01*
X72034759Y-67465363D01*
X71802241Y-67310000D01*
X72034759Y-67154637D01*
X72234637Y-66954759D01*
X72391680Y-66719727D01*
X72499853Y-66458574D01*
X72551353Y-66199665D01*
X73444200Y-66199665D01*
X73444200Y-66482335D01*
X73499347Y-66759574D01*
X73607520Y-67020727D01*
X73764563Y-67255759D01*
X73964441Y-67455637D01*
X74199473Y-67612680D01*
X74460626Y-67720853D01*
X74737865Y-67776000D01*
X75020535Y-67776000D01*
X75297774Y-67720853D01*
X75558927Y-67612680D01*
X75793959Y-67455637D01*
X75993837Y-67255759D01*
X76150880Y-67020727D01*
X76259053Y-66759574D01*
X76314200Y-66482335D01*
X76314200Y-66199665D01*
X76259053Y-65922426D01*
X76150880Y-65661273D01*
X75993837Y-65426241D01*
X75793959Y-65226363D01*
X75558927Y-65069320D01*
X75297774Y-64961147D01*
X75020535Y-64906000D01*
X74737865Y-64906000D01*
X74460626Y-64961147D01*
X74199473Y-65069320D01*
X73964441Y-65226363D01*
X73764563Y-65426241D01*
X73607520Y-65661273D01*
X73499347Y-65922426D01*
X73444200Y-66199665D01*
X72551353Y-66199665D01*
X72555000Y-66181335D01*
X72555000Y-65898665D01*
X72499853Y-65621426D01*
X72391680Y-65360273D01*
X72234637Y-65125241D01*
X72034759Y-64925363D01*
X71802241Y-64770000D01*
X72034759Y-64614637D01*
X72234637Y-64414759D01*
X72391680Y-64179727D01*
X72499853Y-63918574D01*
X72555000Y-63641335D01*
X72555000Y-63358665D01*
X72499853Y-63081426D01*
X72391680Y-62820273D01*
X72234637Y-62585241D01*
X72034759Y-62385363D01*
X71957443Y-62333702D01*
X74066103Y-62333702D01*
X74137686Y-62577671D01*
X74393196Y-62698571D01*
X74667384Y-62767300D01*
X74949712Y-62781217D01*
X75229330Y-62739787D01*
X75495492Y-62644603D01*
X75620714Y-62577671D01*
X75692297Y-62333702D01*
X74879200Y-61520605D01*
X74066103Y-62333702D01*
X71957443Y-62333702D01*
X71799727Y-62228320D01*
X71789135Y-62223933D01*
X71975131Y-62112385D01*
X72183519Y-61923414D01*
X72351037Y-61697420D01*
X72471246Y-61443087D01*
X72480822Y-61411512D01*
X73438983Y-61411512D01*
X73480413Y-61691130D01*
X73575597Y-61957292D01*
X73642529Y-62082514D01*
X73886498Y-62154097D01*
X74699595Y-61341000D01*
X75058805Y-61341000D01*
X75871902Y-62154097D01*
X76115871Y-62082514D01*
X76236771Y-61827004D01*
X76305500Y-61552816D01*
X76319417Y-61270488D01*
X76277987Y-60990870D01*
X76182803Y-60724708D01*
X76115871Y-60599486D01*
X75871902Y-60527903D01*
X75058805Y-61341000D01*
X74699595Y-61341000D01*
X73886498Y-60527903D01*
X73642529Y-60599486D01*
X73521629Y-60854996D01*
X73452900Y-61129184D01*
X73438983Y-61411512D01*
X72480822Y-61411512D01*
X72511904Y-61309039D01*
X72389915Y-61087000D01*
X71247000Y-61087000D01*
X71247000Y-61107000D01*
X70993000Y-61107000D01*
X70993000Y-61087000D01*
X69850085Y-61087000D01*
X69728096Y-61309039D01*
X69768754Y-61443087D01*
X69888963Y-61697420D01*
X70056481Y-61923414D01*
X70264869Y-62112385D01*
X70450865Y-62223933D01*
X70440273Y-62228320D01*
X70205241Y-62385363D01*
X70005363Y-62585241D01*
X69848320Y-62820273D01*
X69740147Y-63081426D01*
X69685000Y-63358665D01*
X69685000Y-63641335D01*
X69740147Y-63918574D01*
X69848320Y-64179727D01*
X70005363Y-64414759D01*
X70205241Y-64614637D01*
X70437759Y-64770000D01*
X70205241Y-64925363D01*
X70005363Y-65125241D01*
X69848320Y-65360273D01*
X69740147Y-65621426D01*
X69685000Y-65898665D01*
X69685000Y-66181335D01*
X69740147Y-66458574D01*
X69848320Y-66719727D01*
X70005363Y-66954759D01*
X70205241Y-67154637D01*
X70437759Y-67310000D01*
X70205241Y-67465363D01*
X70005363Y-67665241D01*
X69848320Y-67900273D01*
X69740147Y-68161426D01*
X69685000Y-68438665D01*
X69685000Y-68721335D01*
X69740147Y-68998574D01*
X69848320Y-69259727D01*
X70005363Y-69494759D01*
X70205241Y-69694637D01*
X70437759Y-69850000D01*
X70205241Y-70005363D01*
X70005363Y-70205241D01*
X69901957Y-70360000D01*
X68894803Y-70360000D01*
X66603804Y-68069003D01*
X66580001Y-68039999D01*
X66464276Y-67945026D01*
X66332247Y-67874454D01*
X66188986Y-67830997D01*
X66077333Y-67820000D01*
X66077322Y-67820000D01*
X66040000Y-67816324D01*
X66002678Y-67820000D01*
X64718043Y-67820000D01*
X64614637Y-67665241D01*
X64414759Y-67465363D01*
X64179727Y-67308320D01*
X64169135Y-67303933D01*
X64355131Y-67192385D01*
X64563519Y-67003414D01*
X64731037Y-66777420D01*
X64851246Y-66523087D01*
X64891904Y-66389039D01*
X64769915Y-66167000D01*
X63627000Y-66167000D01*
X63627000Y-66187000D01*
X63373000Y-66187000D01*
X63373000Y-66167000D01*
X62230085Y-66167000D01*
X62108096Y-66389039D01*
X62148754Y-66523087D01*
X62268963Y-66777420D01*
X62436481Y-67003414D01*
X62644869Y-67192385D01*
X62830865Y-67303933D01*
X62820273Y-67308320D01*
X62585241Y-67465363D01*
X62385363Y-67665241D01*
X62228320Y-67900273D01*
X62120147Y-68161426D01*
X62065000Y-68438665D01*
X62065000Y-68721335D01*
X62120147Y-68998574D01*
X62228320Y-69259727D01*
X62385363Y-69494759D01*
X62585241Y-69694637D01*
X62817759Y-69850000D01*
X62585241Y-70005363D01*
X62385363Y-70205241D01*
X62228320Y-70440273D01*
X62120147Y-70701426D01*
X62065000Y-70978665D01*
X62065000Y-71261335D01*
X62120147Y-71538574D01*
X62228320Y-71799727D01*
X62385363Y-72034759D01*
X62585241Y-72234637D01*
X62817759Y-72390000D01*
X62585241Y-72545363D01*
X62385363Y-72745241D01*
X62228320Y-72980273D01*
X62120147Y-73241426D01*
X62065000Y-73518665D01*
X62065000Y-73801335D01*
X62120147Y-74078574D01*
X62228320Y-74339727D01*
X62385363Y-74574759D01*
X62585241Y-74774637D01*
X62817759Y-74930000D01*
X62585241Y-75085363D01*
X62385363Y-75285241D01*
X62228320Y-75520273D01*
X62120147Y-75781426D01*
X62065000Y-76058665D01*
X62065000Y-76341335D01*
X62120147Y-76618574D01*
X62228320Y-76879727D01*
X62385363Y-77114759D01*
X62585241Y-77314637D01*
X62820273Y-77471680D01*
X63081426Y-77579853D01*
X63358665Y-77635000D01*
X63641335Y-77635000D01*
X63918574Y-77579853D01*
X64179727Y-77471680D01*
X64414759Y-77314637D01*
X64614637Y-77114759D01*
X64771680Y-76879727D01*
X64879853Y-76618574D01*
X64935000Y-76341335D01*
X64935000Y-76058665D01*
X64879853Y-75781426D01*
X64771680Y-75520273D01*
X64614637Y-75285241D01*
X64414759Y-75085363D01*
X64182241Y-74930000D01*
X64414759Y-74774637D01*
X64612297Y-74577099D01*
X66550000Y-76514803D01*
X66550001Y-83782667D01*
X66546324Y-83820000D01*
X66550001Y-83857333D01*
X66560998Y-83968986D01*
X66565856Y-83985000D01*
X66604454Y-84112246D01*
X66675026Y-84244276D01*
X66742361Y-84326323D01*
X66770000Y-84360001D01*
X66798998Y-84383799D01*
X69286205Y-86871008D01*
X69309999Y-86900001D01*
X69338992Y-86923795D01*
X69338996Y-86923799D01*
X69409685Y-86981811D01*
X69425724Y-86994974D01*
X69557753Y-87065546D01*
X69701014Y-87109003D01*
X69812667Y-87120000D01*
X69812676Y-87120000D01*
X69849999Y-87123676D01*
X69887322Y-87120000D01*
X69901957Y-87120000D01*
X70005363Y-87274759D01*
X70205241Y-87474637D01*
X70437759Y-87630000D01*
X70205241Y-87785363D01*
X70005363Y-87985241D01*
X69848320Y-88220273D01*
X69740147Y-88481426D01*
X69685000Y-88758665D01*
X69685000Y-89041335D01*
X69740147Y-89318574D01*
X69778017Y-89410000D01*
X68894802Y-89410000D01*
X65333804Y-85849003D01*
X65310001Y-85819999D01*
X65194276Y-85725026D01*
X65062247Y-85654454D01*
X64918986Y-85610997D01*
X64807333Y-85600000D01*
X64807322Y-85600000D01*
X64770000Y-85596324D01*
X64732678Y-85600000D01*
X64718043Y-85600000D01*
X64614637Y-85445241D01*
X64416039Y-85246643D01*
X64424482Y-85245812D01*
X64544180Y-85209502D01*
X64654494Y-85150537D01*
X64751185Y-85071185D01*
X64830537Y-84974494D01*
X64889502Y-84864180D01*
X64925812Y-84744482D01*
X64938072Y-84620000D01*
X64938072Y-83020000D01*
X64925812Y-82895518D01*
X64889502Y-82775820D01*
X64830537Y-82665506D01*
X64751185Y-82568815D01*
X64654494Y-82489463D01*
X64544180Y-82430498D01*
X64424482Y-82394188D01*
X64300000Y-82381928D01*
X62700000Y-82381928D01*
X62575518Y-82394188D01*
X62455820Y-82430498D01*
X62345506Y-82489463D01*
X62248815Y-82568815D01*
X62169463Y-82665506D01*
X62110498Y-82775820D01*
X62074188Y-82895518D01*
X62061928Y-83020000D01*
X62061928Y-84620000D01*
X62074188Y-84744482D01*
X62110498Y-84864180D01*
X62169463Y-84974494D01*
X62248815Y-85071185D01*
X62345506Y-85150537D01*
X62455820Y-85209502D01*
X62575518Y-85245812D01*
X62583961Y-85246643D01*
X62385363Y-85445241D01*
X62228320Y-85680273D01*
X62120147Y-85941426D01*
X62065000Y-86218665D01*
X62065000Y-86501335D01*
X62120147Y-86778574D01*
X62228320Y-87039727D01*
X62385363Y-87274759D01*
X62585241Y-87474637D01*
X62817759Y-87630000D01*
X62585241Y-87785363D01*
X62385363Y-87985241D01*
X62228320Y-88220273D01*
X62120147Y-88481426D01*
X62065000Y-88758665D01*
X62065000Y-89041335D01*
X62120147Y-89318574D01*
X62228320Y-89579727D01*
X62385363Y-89814759D01*
X62585241Y-90014637D01*
X62817759Y-90170000D01*
X62585241Y-90325363D01*
X62385363Y-90525241D01*
X62228320Y-90760273D01*
X62120147Y-91021426D01*
X62065000Y-91298665D01*
X62065000Y-91581335D01*
X62120147Y-91858574D01*
X62228320Y-92119727D01*
X62385363Y-92354759D01*
X62585241Y-92554637D01*
X62740000Y-92658044D01*
X62740001Y-92761956D01*
X62585241Y-92865363D01*
X62385363Y-93065241D01*
X62228320Y-93300273D01*
X62120147Y-93561426D01*
X62065000Y-93838665D01*
X62065000Y-94121335D01*
X62120147Y-94398574D01*
X62228320Y-94659727D01*
X62385363Y-94894759D01*
X62585241Y-95094637D01*
X62817759Y-95250000D01*
X62585241Y-95405363D01*
X62385363Y-95605241D01*
X62228320Y-95840273D01*
X62120147Y-96101426D01*
X62065000Y-96378665D01*
X62065000Y-96661335D01*
X62120147Y-96938574D01*
X62228320Y-97199727D01*
X62385363Y-97434759D01*
X62585241Y-97634637D01*
X62817759Y-97790000D01*
X62585241Y-97945363D01*
X62385363Y-98145241D01*
X62228320Y-98380273D01*
X62120147Y-98641426D01*
X62065000Y-98918665D01*
X62065000Y-99201335D01*
X62120147Y-99478574D01*
X62228320Y-99739727D01*
X62385363Y-99974759D01*
X62585241Y-100174637D01*
X62820273Y-100331680D01*
X63081426Y-100439853D01*
X63358665Y-100495000D01*
X63641335Y-100495000D01*
X63918574Y-100439853D01*
X64179727Y-100331680D01*
X64414759Y-100174637D01*
X64614637Y-99974759D01*
X64771680Y-99739727D01*
X64879853Y-99478574D01*
X64935000Y-99201335D01*
X64935000Y-98918665D01*
X64879853Y-98641426D01*
X64771680Y-98380273D01*
X64614637Y-98145241D01*
X64414759Y-97945363D01*
X64182241Y-97790000D01*
X64414759Y-97634637D01*
X64612297Y-97437099D01*
X69286200Y-102111002D01*
X69309999Y-102140001D01*
X69338997Y-102163799D01*
X69425723Y-102234974D01*
X69557753Y-102305546D01*
X69701014Y-102349003D01*
X69812667Y-102360000D01*
X69812677Y-102360000D01*
X69850000Y-102363676D01*
X69887323Y-102360000D01*
X75885199Y-102360000D01*
X76227127Y-102701928D01*
X75400000Y-102701928D01*
X75275518Y-102714188D01*
X75155820Y-102750498D01*
X75045506Y-102809463D01*
X74948815Y-102888815D01*
X74869463Y-102985506D01*
X74810498Y-103095820D01*
X74774188Y-103215518D01*
X74761928Y-103340000D01*
X74761928Y-104940000D01*
X74774188Y-105064482D01*
X74810498Y-105184180D01*
X74869463Y-105294494D01*
X74948815Y-105391185D01*
X75045506Y-105470537D01*
X75155820Y-105529502D01*
X75275518Y-105565812D01*
X75400000Y-105578072D01*
X77000000Y-105578072D01*
X77124482Y-105565812D01*
X77244180Y-105529502D01*
X77354494Y-105470537D01*
X77451185Y-105391185D01*
X77530537Y-105294494D01*
X77589502Y-105184180D01*
X77625812Y-105064482D01*
X77626643Y-105056039D01*
X77825241Y-105254637D01*
X78060273Y-105411680D01*
X78321426Y-105519853D01*
X78598665Y-105575000D01*
X78881335Y-105575000D01*
X79158574Y-105519853D01*
X79419727Y-105411680D01*
X79654759Y-105254637D01*
X79854637Y-105054759D01*
X80010000Y-104822241D01*
X80165363Y-105054759D01*
X80274513Y-105163909D01*
X79643422Y-105795000D01*
X66406579Y-105795000D01*
X65815487Y-105203909D01*
X65886694Y-105132702D01*
X69036903Y-105132702D01*
X69108486Y-105376671D01*
X69363996Y-105497571D01*
X69638184Y-105566300D01*
X69920512Y-105580217D01*
X70200130Y-105538787D01*
X70466292Y-105443603D01*
X70591514Y-105376671D01*
X70663097Y-105132702D01*
X69850000Y-104319605D01*
X69036903Y-105132702D01*
X65886694Y-105132702D01*
X65964637Y-105054759D01*
X66121680Y-104819727D01*
X66229853Y-104558574D01*
X66285000Y-104281335D01*
X66285000Y-104210512D01*
X68409783Y-104210512D01*
X68451213Y-104490130D01*
X68546397Y-104756292D01*
X68613329Y-104881514D01*
X68857298Y-104953097D01*
X69670395Y-104140000D01*
X70029605Y-104140000D01*
X70842702Y-104953097D01*
X71086671Y-104881514D01*
X71207571Y-104626004D01*
X71276300Y-104351816D01*
X71290217Y-104069488D01*
X71248787Y-103789870D01*
X71153603Y-103523708D01*
X71086671Y-103398486D01*
X70842702Y-103326903D01*
X70029605Y-104140000D01*
X69670395Y-104140000D01*
X68857298Y-103326903D01*
X68613329Y-103398486D01*
X68492429Y-103653996D01*
X68423700Y-103928184D01*
X68409783Y-104210512D01*
X66285000Y-104210512D01*
X66285000Y-103998665D01*
X66229853Y-103721426D01*
X66121680Y-103460273D01*
X65964637Y-103225241D01*
X65886694Y-103147298D01*
X69036903Y-103147298D01*
X69850000Y-103960395D01*
X70663097Y-103147298D01*
X70591514Y-102903329D01*
X70336004Y-102782429D01*
X70061816Y-102713700D01*
X69779488Y-102699783D01*
X69499870Y-102741213D01*
X69233708Y-102836397D01*
X69108486Y-102903329D01*
X69036903Y-103147298D01*
X65886694Y-103147298D01*
X65764759Y-103025363D01*
X65529727Y-102868320D01*
X65268574Y-102760147D01*
X64991335Y-102705000D01*
X64708665Y-102705000D01*
X64431426Y-102760147D01*
X64170273Y-102868320D01*
X63935241Y-103025363D01*
X63735363Y-103225241D01*
X63578320Y-103460273D01*
X63470147Y-103721426D01*
X63415000Y-103998665D01*
X63415000Y-104281335D01*
X63470147Y-104558574D01*
X63578320Y-104819727D01*
X63735363Y-105054759D01*
X63935241Y-105254637D01*
X63965001Y-105274522D01*
X63965001Y-105446521D01*
X63960719Y-105490000D01*
X63977805Y-105663490D01*
X64028412Y-105830313D01*
X64110590Y-105984059D01*
X64193468Y-106085046D01*
X64193471Y-106085049D01*
X64221184Y-106118817D01*
X64254951Y-106146529D01*
X65383470Y-107275049D01*
X65411183Y-107308817D01*
X65444951Y-107336530D01*
X65444953Y-107336532D01*
X65504677Y-107385546D01*
X65545941Y-107419411D01*
X65699687Y-107501589D01*
X65866510Y-107552195D01*
X65996523Y-107565000D01*
X65996533Y-107565000D01*
X66039999Y-107569281D01*
X66083465Y-107565000D01*
X79966531Y-107565000D01*
X80010000Y-107569281D01*
X80053469Y-107565000D01*
X80053477Y-107565000D01*
X80183490Y-107552195D01*
X80350313Y-107501589D01*
X80504059Y-107419411D01*
X80638817Y-107308817D01*
X80666534Y-107275044D01*
X81875050Y-106066529D01*
X81908817Y-106038817D01*
X81962177Y-105973799D01*
X82019410Y-105904060D01*
X82019411Y-105904059D01*
X82101589Y-105750313D01*
X82152195Y-105583490D01*
X82165000Y-105453477D01*
X82165000Y-105453467D01*
X82169281Y-105410001D01*
X82165000Y-105366535D01*
X82165000Y-105274521D01*
X82194759Y-105254637D01*
X82394637Y-105054759D01*
X82550000Y-104822241D01*
X82705363Y-105054759D01*
X82905241Y-105254637D01*
X83140273Y-105411680D01*
X83401426Y-105519853D01*
X83678665Y-105575000D01*
X83961335Y-105575000D01*
X84238574Y-105519853D01*
X84499727Y-105411680D01*
X84734759Y-105254637D01*
X84934637Y-105054759D01*
X85090000Y-104822241D01*
X85245363Y-105054759D01*
X85445241Y-105254637D01*
X85680273Y-105411680D01*
X85941426Y-105519853D01*
X86218665Y-105575000D01*
X86501335Y-105575000D01*
X86778574Y-105519853D01*
X87039727Y-105411680D01*
X87274759Y-105254637D01*
X87474637Y-105054759D01*
X87630000Y-104822241D01*
X87785363Y-105054759D01*
X87985241Y-105254637D01*
X88220273Y-105411680D01*
X88481426Y-105519853D01*
X88758665Y-105575000D01*
X89041335Y-105575000D01*
X89318574Y-105519853D01*
X89579727Y-105411680D01*
X89814759Y-105254637D01*
X90014637Y-105054759D01*
X90170000Y-104822241D01*
X90325363Y-105054759D01*
X90525241Y-105254637D01*
X90760273Y-105411680D01*
X91021426Y-105519853D01*
X91298665Y-105575000D01*
X91581335Y-105575000D01*
X91858574Y-105519853D01*
X92119727Y-105411680D01*
X92354759Y-105254637D01*
X92554637Y-105054759D01*
X92711680Y-104819727D01*
X92819853Y-104558574D01*
X92875000Y-104281335D01*
X92875000Y-103998665D01*
X92819853Y-103721426D01*
X92711680Y-103460273D01*
X92554637Y-103225241D01*
X92354759Y-103025363D01*
X92119727Y-102868320D01*
X91858574Y-102760147D01*
X91581335Y-102705000D01*
X91298665Y-102705000D01*
X91021426Y-102760147D01*
X90760273Y-102868320D01*
X90525241Y-103025363D01*
X90325363Y-103225241D01*
X90170000Y-103457759D01*
X90014637Y-103225241D01*
X89814759Y-103025363D01*
X89579727Y-102868320D01*
X89318574Y-102760147D01*
X89041335Y-102705000D01*
X88758665Y-102705000D01*
X88576114Y-102741312D01*
X84383804Y-98549003D01*
X84360001Y-98519999D01*
X84244276Y-98425026D01*
X84112247Y-98354454D01*
X83968986Y-98310997D01*
X83857333Y-98300000D01*
X83857322Y-98300000D01*
X83820000Y-98296324D01*
X83782678Y-98300000D01*
X75244803Y-98300000D01*
X73813842Y-96869040D01*
X74808091Y-96869040D01*
X74902930Y-97133881D01*
X75047615Y-97375131D01*
X75236586Y-97583519D01*
X75462580Y-97751037D01*
X75716913Y-97871246D01*
X75850961Y-97911904D01*
X76073000Y-97789915D01*
X76073000Y-96647000D01*
X74929376Y-96647000D01*
X74808091Y-96869040D01*
X73813842Y-96869040D01*
X73115762Y-96170960D01*
X74808091Y-96170960D01*
X74929376Y-96393000D01*
X76073000Y-96393000D01*
X76073000Y-95250085D01*
X76327000Y-95250085D01*
X76327000Y-96393000D01*
X76347000Y-96393000D01*
X76347000Y-96647000D01*
X76327000Y-96647000D01*
X76327000Y-97789915D01*
X76549039Y-97911904D01*
X76683087Y-97871246D01*
X76937420Y-97751037D01*
X77163414Y-97583519D01*
X77352385Y-97375131D01*
X77463933Y-97189135D01*
X77468320Y-97199727D01*
X77625363Y-97434759D01*
X77825241Y-97634637D01*
X78060273Y-97791680D01*
X78321426Y-97899853D01*
X78598665Y-97955000D01*
X78881335Y-97955000D01*
X79158574Y-97899853D01*
X79419727Y-97791680D01*
X79654759Y-97634637D01*
X79854637Y-97434759D01*
X80011680Y-97199727D01*
X80016067Y-97189135D01*
X80127615Y-97375131D01*
X80316586Y-97583519D01*
X80542580Y-97751037D01*
X80796913Y-97871246D01*
X80930961Y-97911904D01*
X81153000Y-97789915D01*
X81153000Y-96647000D01*
X81133000Y-96647000D01*
X81133000Y-96393000D01*
X81153000Y-96393000D01*
X81153000Y-95250085D01*
X80930961Y-95128096D01*
X80796913Y-95168754D01*
X80542580Y-95288963D01*
X80316586Y-95456481D01*
X80127615Y-95664869D01*
X80016067Y-95850865D01*
X80011680Y-95840273D01*
X79854637Y-95605241D01*
X79654759Y-95405363D01*
X79419727Y-95248320D01*
X79158574Y-95140147D01*
X78881335Y-95085000D01*
X78598665Y-95085000D01*
X78321426Y-95140147D01*
X78060273Y-95248320D01*
X77825241Y-95405363D01*
X77625363Y-95605241D01*
X77468320Y-95840273D01*
X77463933Y-95850865D01*
X77352385Y-95664869D01*
X77163414Y-95456481D01*
X76937420Y-95288963D01*
X76683087Y-95168754D01*
X76549039Y-95128096D01*
X76327000Y-95250085D01*
X76073000Y-95250085D01*
X75850961Y-95128096D01*
X75716913Y-95168754D01*
X75462580Y-95288963D01*
X75236586Y-95456481D01*
X75047615Y-95664869D01*
X74902930Y-95906119D01*
X74808091Y-96170960D01*
X73115762Y-96170960D01*
X72953804Y-96009003D01*
X72930001Y-95979999D01*
X72814276Y-95885026D01*
X72682247Y-95814454D01*
X72538986Y-95770997D01*
X72427333Y-95760000D01*
X72427322Y-95760000D01*
X72390000Y-95756324D01*
X72352678Y-95760000D01*
X72338043Y-95760000D01*
X72234637Y-95605241D01*
X72034759Y-95405363D01*
X71802241Y-95250000D01*
X72034759Y-95094637D01*
X72234637Y-94894759D01*
X72391680Y-94659727D01*
X72499853Y-94398574D01*
X72511961Y-94337702D01*
X79196903Y-94337702D01*
X79268486Y-94581671D01*
X79523996Y-94702571D01*
X79798184Y-94771300D01*
X80080512Y-94785217D01*
X80360130Y-94743787D01*
X80626292Y-94648603D01*
X80751514Y-94581671D01*
X80823097Y-94337702D01*
X80010000Y-93524605D01*
X79196903Y-94337702D01*
X72511961Y-94337702D01*
X72555000Y-94121335D01*
X72555000Y-93838665D01*
X72499853Y-93561426D01*
X72439414Y-93415512D01*
X78569783Y-93415512D01*
X78611213Y-93695130D01*
X78706397Y-93961292D01*
X78773329Y-94086514D01*
X79017298Y-94158097D01*
X79830395Y-93345000D01*
X80189605Y-93345000D01*
X81002702Y-94158097D01*
X81246671Y-94086514D01*
X81367571Y-93831004D01*
X81436300Y-93556816D01*
X81450217Y-93274488D01*
X81408787Y-92994870D01*
X81313603Y-92728708D01*
X81246671Y-92603486D01*
X81002702Y-92531903D01*
X80189605Y-93345000D01*
X79830395Y-93345000D01*
X79017298Y-92531903D01*
X78773329Y-92603486D01*
X78652429Y-92858996D01*
X78583700Y-93133184D01*
X78569783Y-93415512D01*
X72439414Y-93415512D01*
X72391680Y-93300273D01*
X72234637Y-93065241D01*
X72034759Y-92865363D01*
X71802241Y-92710000D01*
X72034759Y-92554637D01*
X72234637Y-92354759D01*
X72236281Y-92352298D01*
X79196903Y-92352298D01*
X80010000Y-93165395D01*
X80823097Y-92352298D01*
X80751514Y-92108329D01*
X80496004Y-91987429D01*
X80221816Y-91918700D01*
X79939488Y-91904783D01*
X79659870Y-91946213D01*
X79393708Y-92041397D01*
X79268486Y-92108329D01*
X79196903Y-92352298D01*
X72236281Y-92352298D01*
X72391680Y-92119727D01*
X72499853Y-91858574D01*
X72555000Y-91581335D01*
X72555000Y-91298665D01*
X72499853Y-91021426D01*
X72461983Y-90930000D01*
X73345199Y-90930000D01*
X73731200Y-91316002D01*
X73754999Y-91345001D01*
X73870724Y-91439974D01*
X74002753Y-91510546D01*
X74146014Y-91554003D01*
X74295000Y-91568677D01*
X74332333Y-91565000D01*
X84140199Y-91565000D01*
X84555307Y-91980108D01*
X84330273Y-92073320D01*
X84095241Y-92230363D01*
X83895363Y-92430241D01*
X83738320Y-92665273D01*
X83630147Y-92926426D01*
X83575000Y-93203665D01*
X83575000Y-93486335D01*
X83611312Y-93668886D01*
X83308998Y-93971201D01*
X83280000Y-93994999D01*
X83256202Y-94023997D01*
X83256201Y-94023998D01*
X83185026Y-94110724D01*
X83114454Y-94242754D01*
X83105508Y-94272247D01*
X83070998Y-94386014D01*
X83069199Y-94404276D01*
X83056324Y-94535000D01*
X83060001Y-94572332D01*
X83060001Y-95301956D01*
X82905241Y-95405363D01*
X82705363Y-95605241D01*
X82548320Y-95840273D01*
X82543933Y-95850865D01*
X82432385Y-95664869D01*
X82243414Y-95456481D01*
X82017420Y-95288963D01*
X81763087Y-95168754D01*
X81629039Y-95128096D01*
X81407000Y-95250085D01*
X81407000Y-96393000D01*
X81427000Y-96393000D01*
X81427000Y-96647000D01*
X81407000Y-96647000D01*
X81407000Y-97789915D01*
X81629039Y-97911904D01*
X81763087Y-97871246D01*
X82017420Y-97751037D01*
X82243414Y-97583519D01*
X82432385Y-97375131D01*
X82543933Y-97189135D01*
X82548320Y-97199727D01*
X82705363Y-97434759D01*
X82905241Y-97634637D01*
X83140273Y-97791680D01*
X83401426Y-97899853D01*
X83678665Y-97955000D01*
X83961335Y-97955000D01*
X84238574Y-97899853D01*
X84499727Y-97791680D01*
X84734759Y-97634637D01*
X84934637Y-97434759D01*
X85090000Y-97202241D01*
X85245363Y-97434759D01*
X85445241Y-97634637D01*
X85680273Y-97791680D01*
X85941426Y-97899853D01*
X86218665Y-97955000D01*
X86501335Y-97955000D01*
X86778574Y-97899853D01*
X87039727Y-97791680D01*
X87274759Y-97634637D01*
X87474637Y-97434759D01*
X87630000Y-97202241D01*
X87785363Y-97434759D01*
X87985241Y-97634637D01*
X88140001Y-97738044D01*
X88140001Y-97752668D01*
X88136324Y-97790000D01*
X88140001Y-97827333D01*
X88150998Y-97938986D01*
X88163395Y-97979853D01*
X88194454Y-98082246D01*
X88265026Y-98214276D01*
X88322296Y-98284059D01*
X88360000Y-98330001D01*
X88388998Y-98353799D01*
X93220000Y-103184802D01*
X93220001Y-106642668D01*
X93216324Y-106680000D01*
X93230998Y-106828985D01*
X93274454Y-106972246D01*
X93345026Y-107104276D01*
X93402296Y-107174059D01*
X93440000Y-107220001D01*
X93468998Y-107243799D01*
X95956205Y-109731008D01*
X95979999Y-109760001D01*
X96008992Y-109783795D01*
X96008996Y-109783799D01*
X96079685Y-109841811D01*
X96095724Y-109854974D01*
X96227753Y-109925546D01*
X96371014Y-109969003D01*
X96482667Y-109980000D01*
X96482676Y-109980000D01*
X96519999Y-109983676D01*
X96557322Y-109980000D01*
X118072678Y-109980000D01*
X118110000Y-109983676D01*
X118147322Y-109980000D01*
X118147333Y-109980000D01*
X118258986Y-109969003D01*
X118402247Y-109925546D01*
X118534276Y-109854974D01*
X118650001Y-109760001D01*
X118673804Y-109730997D01*
X121066005Y-107338797D01*
X121095002Y-107315000D01*
X121189975Y-107199275D01*
X121260547Y-107067246D01*
X121304004Y-106923985D01*
X121315001Y-106812332D01*
X121315001Y-106812331D01*
X121318678Y-106774999D01*
X121315001Y-106737666D01*
X121315001Y-104172633D01*
X121501426Y-104249853D01*
X121778665Y-104305000D01*
X122061335Y-104305000D01*
X122338574Y-104249853D01*
X122599727Y-104141680D01*
X122834759Y-103984637D01*
X123034637Y-103784759D01*
X123190000Y-103552241D01*
X123345363Y-103784759D01*
X123545241Y-103984637D01*
X123780273Y-104141680D01*
X124041426Y-104249853D01*
X124318665Y-104305000D01*
X124601335Y-104305000D01*
X124878574Y-104249853D01*
X125139727Y-104141680D01*
X125374759Y-103984637D01*
X125574637Y-103784759D01*
X125730000Y-103552241D01*
X125885363Y-103784759D01*
X126085241Y-103984637D01*
X126320273Y-104141680D01*
X126581426Y-104249853D01*
X126858665Y-104305000D01*
X127141335Y-104305000D01*
X127418574Y-104249853D01*
X127679727Y-104141680D01*
X127914759Y-103984637D01*
X128114637Y-103784759D01*
X128270000Y-103552241D01*
X128425363Y-103784759D01*
X128625241Y-103984637D01*
X128860273Y-104141680D01*
X129121426Y-104249853D01*
X129398665Y-104305000D01*
X129681335Y-104305000D01*
X129958574Y-104249853D01*
X130219727Y-104141680D01*
X130454759Y-103984637D01*
X130654637Y-103784759D01*
X130810000Y-103552241D01*
X130965363Y-103784759D01*
X131165241Y-103984637D01*
X131400273Y-104141680D01*
X131661426Y-104249853D01*
X131938665Y-104305000D01*
X132221335Y-104305000D01*
X132498574Y-104249853D01*
X132759727Y-104141680D01*
X132994759Y-103984637D01*
X133194637Y-103784759D01*
X133350000Y-103552241D01*
X133505363Y-103784759D01*
X133705241Y-103984637D01*
X133940273Y-104141680D01*
X134201426Y-104249853D01*
X134478665Y-104305000D01*
X134761335Y-104305000D01*
X135038574Y-104249853D01*
X135299727Y-104141680D01*
X135534759Y-103984637D01*
X135734637Y-103784759D01*
X135890000Y-103552241D01*
X136045363Y-103784759D01*
X136245241Y-103984637D01*
X136480273Y-104141680D01*
X136741426Y-104249853D01*
X137018665Y-104305000D01*
X137301335Y-104305000D01*
X137578574Y-104249853D01*
X137839727Y-104141680D01*
X138074759Y-103984637D01*
X138274637Y-103784759D01*
X138430000Y-103552241D01*
X138585363Y-103784759D01*
X138785241Y-103984637D01*
X139020273Y-104141680D01*
X139281426Y-104249853D01*
X139558665Y-104305000D01*
X139841335Y-104305000D01*
X140118574Y-104249853D01*
X140379727Y-104141680D01*
X140614759Y-103984637D01*
X140814637Y-103784759D01*
X140971680Y-103549727D01*
X141079853Y-103288574D01*
X141135000Y-103011335D01*
X141135000Y-102728665D01*
X141079853Y-102451426D01*
X140971680Y-102190273D01*
X140814637Y-101955241D01*
X140614759Y-101755363D01*
X140379727Y-101598320D01*
X140118574Y-101490147D01*
X139841335Y-101435000D01*
X139558665Y-101435000D01*
X139281426Y-101490147D01*
X139020273Y-101598320D01*
X138785241Y-101755363D01*
X138585363Y-101955241D01*
X138430000Y-102187759D01*
X138274637Y-101955241D01*
X138074759Y-101755363D01*
X137839727Y-101598320D01*
X137578574Y-101490147D01*
X137301335Y-101435000D01*
X137018665Y-101435000D01*
X136741426Y-101490147D01*
X136480273Y-101598320D01*
X136245241Y-101755363D01*
X136045363Y-101955241D01*
X135890000Y-102187759D01*
X135734637Y-101955241D01*
X135534759Y-101755363D01*
X135299727Y-101598320D01*
X135038574Y-101490147D01*
X134761335Y-101435000D01*
X134478665Y-101435000D01*
X134201426Y-101490147D01*
X133940273Y-101598320D01*
X133705241Y-101755363D01*
X133505363Y-101955241D01*
X133350000Y-102187759D01*
X133194637Y-101955241D01*
X132994759Y-101755363D01*
X132759727Y-101598320D01*
X132498574Y-101490147D01*
X132221335Y-101435000D01*
X131938665Y-101435000D01*
X131661426Y-101490147D01*
X131400273Y-101598320D01*
X131165241Y-101755363D01*
X130965363Y-101955241D01*
X130810000Y-102187759D01*
X130654637Y-101955241D01*
X130454759Y-101755363D01*
X130219727Y-101598320D01*
X129958574Y-101490147D01*
X129681335Y-101435000D01*
X129398665Y-101435000D01*
X129121426Y-101490147D01*
X128860273Y-101598320D01*
X128625241Y-101755363D01*
X128425363Y-101955241D01*
X128270000Y-102187759D01*
X128114637Y-101955241D01*
X127914759Y-101755363D01*
X127679727Y-101598320D01*
X127418574Y-101490147D01*
X127141335Y-101435000D01*
X126858665Y-101435000D01*
X126581426Y-101490147D01*
X126320273Y-101598320D01*
X126085241Y-101755363D01*
X125885363Y-101955241D01*
X125730000Y-102187759D01*
X125574637Y-101955241D01*
X125374759Y-101755363D01*
X125139727Y-101598320D01*
X124878574Y-101490147D01*
X124601335Y-101435000D01*
X124318665Y-101435000D01*
X124041426Y-101490147D01*
X123780273Y-101598320D01*
X123545241Y-101755363D01*
X123345363Y-101955241D01*
X123190000Y-102187759D01*
X123034637Y-101955241D01*
X122834759Y-101755363D01*
X122599727Y-101598320D01*
X122338574Y-101490147D01*
X122061335Y-101435000D01*
X121778665Y-101435000D01*
X121501426Y-101490147D01*
X121315001Y-101567367D01*
X121315001Y-99192332D01*
X121318678Y-99154999D01*
X121304004Y-99006013D01*
X121260547Y-98862752D01*
X121189975Y-98730723D01*
X121118800Y-98643996D01*
X121095002Y-98614998D01*
X121066004Y-98591200D01*
X119140221Y-96665418D01*
X119238665Y-96685000D01*
X119521335Y-96685000D01*
X119798574Y-96629853D01*
X120059727Y-96521680D01*
X120294759Y-96364637D01*
X120494637Y-96164759D01*
X120650000Y-95932241D01*
X120805363Y-96164759D01*
X121005241Y-96364637D01*
X121240273Y-96521680D01*
X121501426Y-96629853D01*
X121778665Y-96685000D01*
X122061335Y-96685000D01*
X122338574Y-96629853D01*
X122599727Y-96521680D01*
X122834759Y-96364637D01*
X123034637Y-96164759D01*
X123190000Y-95932241D01*
X123345363Y-96164759D01*
X123545241Y-96364637D01*
X123780273Y-96521680D01*
X124041426Y-96629853D01*
X124318665Y-96685000D01*
X124601335Y-96685000D01*
X124878574Y-96629853D01*
X125139727Y-96521680D01*
X125374759Y-96364637D01*
X125574637Y-96164759D01*
X125730000Y-95932241D01*
X125885363Y-96164759D01*
X126085241Y-96364637D01*
X126320273Y-96521680D01*
X126581426Y-96629853D01*
X126858665Y-96685000D01*
X127141335Y-96685000D01*
X127418574Y-96629853D01*
X127679727Y-96521680D01*
X127914759Y-96364637D01*
X128114637Y-96164759D01*
X128270000Y-95932241D01*
X128425363Y-96164759D01*
X128625241Y-96364637D01*
X128860273Y-96521680D01*
X129121426Y-96629853D01*
X129398665Y-96685000D01*
X129681335Y-96685000D01*
X129958574Y-96629853D01*
X130219727Y-96521680D01*
X130454759Y-96364637D01*
X130654637Y-96164759D01*
X130810000Y-95932241D01*
X130965363Y-96164759D01*
X131165241Y-96364637D01*
X131400273Y-96521680D01*
X131661426Y-96629853D01*
X131938665Y-96685000D01*
X132221335Y-96685000D01*
X132498574Y-96629853D01*
X132593280Y-96590625D01*
X132600245Y-96661335D01*
X132600998Y-96668985D01*
X132644454Y-96812246D01*
X132715026Y-96944276D01*
X132782362Y-97026324D01*
X132810000Y-97060001D01*
X132838998Y-97083799D01*
X134056200Y-98301002D01*
X134079999Y-98330001D01*
X134195724Y-98424974D01*
X134327753Y-98495546D01*
X134471014Y-98539003D01*
X134582667Y-98550000D01*
X134582676Y-98550000D01*
X134619999Y-98553676D01*
X134657322Y-98550000D01*
X139027678Y-98550000D01*
X139065000Y-98553676D01*
X139102322Y-98550000D01*
X139102333Y-98550000D01*
X139213986Y-98539003D01*
X139357247Y-98495546D01*
X139489276Y-98424974D01*
X139605001Y-98330001D01*
X139628803Y-98300998D01*
X140211004Y-97718798D01*
X140240001Y-97695001D01*
X140334974Y-97579276D01*
X140405546Y-97447247D01*
X140449003Y-97303986D01*
X140460000Y-97192333D01*
X140460000Y-97192332D01*
X140463677Y-97155000D01*
X140460000Y-97117667D01*
X140460000Y-96468043D01*
X140614759Y-96364637D01*
X140814637Y-96164759D01*
X140971680Y-95929727D01*
X141079853Y-95668574D01*
X141135000Y-95391335D01*
X141135000Y-95108665D01*
X141079853Y-94831426D01*
X140971680Y-94570273D01*
X140814637Y-94335241D01*
X140614759Y-94135363D01*
X140379727Y-93978320D01*
X140118574Y-93870147D01*
X139841335Y-93815000D01*
X139558665Y-93815000D01*
X139281426Y-93870147D01*
X139020273Y-93978320D01*
X138785241Y-94135363D01*
X138585363Y-94335241D01*
X138430000Y-94567759D01*
X138274637Y-94335241D01*
X138074759Y-94135363D01*
X137839727Y-93978320D01*
X137578574Y-93870147D01*
X137301335Y-93815000D01*
X137018665Y-93815000D01*
X136741426Y-93870147D01*
X136480273Y-93978320D01*
X136245241Y-94135363D01*
X136045363Y-94335241D01*
X135890000Y-94567759D01*
X135734637Y-94335241D01*
X135534759Y-94135363D01*
X135299727Y-93978320D01*
X135038574Y-93870147D01*
X134761335Y-93815000D01*
X134478665Y-93815000D01*
X134201426Y-93870147D01*
X134110000Y-93908017D01*
X134110000Y-74332322D01*
X134113676Y-74294999D01*
X134110000Y-74257676D01*
X134110000Y-74257667D01*
X134099003Y-74146014D01*
X134055546Y-74002753D01*
X133984975Y-73870725D01*
X133984974Y-73870723D01*
X133913799Y-73783997D01*
X133890001Y-73754999D01*
X133861004Y-73731202D01*
X130738804Y-70609003D01*
X130715001Y-70579999D01*
X130599276Y-70485026D01*
X130467247Y-70414454D01*
X130323986Y-70370997D01*
X130212333Y-70360000D01*
X130212322Y-70360000D01*
X130175000Y-70356324D01*
X130137678Y-70360000D01*
X129611983Y-70360000D01*
X129649853Y-70268574D01*
X129705000Y-69991335D01*
X129705000Y-69708665D01*
X129649853Y-69431426D01*
X129541680Y-69170273D01*
X129384637Y-68935241D01*
X129184759Y-68735363D01*
X128952241Y-68580000D01*
X129184759Y-68424637D01*
X129384637Y-68224759D01*
X129541680Y-67989727D01*
X129649853Y-67728574D01*
X129705000Y-67451335D01*
X129705000Y-67168665D01*
X129649853Y-66891426D01*
X129541680Y-66630273D01*
X129384637Y-66395241D01*
X129184759Y-66195363D01*
X128952241Y-66040000D01*
X129184759Y-65884637D01*
X129384637Y-65684759D01*
X129541680Y-65449727D01*
X129649853Y-65188574D01*
X129705000Y-64911335D01*
X129705000Y-64628665D01*
X129649853Y-64351426D01*
X129541680Y-64090273D01*
X129384637Y-63855241D01*
X129184759Y-63655363D01*
X128949727Y-63498320D01*
X128688574Y-63390147D01*
X128411335Y-63335000D01*
X128128665Y-63335000D01*
X127851426Y-63390147D01*
X127590273Y-63498320D01*
X127355241Y-63655363D01*
X127155363Y-63855241D01*
X126998320Y-64090273D01*
X126890147Y-64351426D01*
X126835000Y-64628665D01*
X126835000Y-64911335D01*
X126890147Y-65188574D01*
X126998320Y-65449727D01*
X127155363Y-65684759D01*
X127355241Y-65884637D01*
X127587759Y-66040000D01*
X127355241Y-66195363D01*
X127155363Y-66395241D01*
X126998320Y-66630273D01*
X126890147Y-66891426D01*
X126835000Y-67168665D01*
X126835000Y-67451335D01*
X126890147Y-67728574D01*
X126998320Y-67989727D01*
X127155363Y-68224759D01*
X127355241Y-68424637D01*
X127587759Y-68580000D01*
X127355241Y-68735363D01*
X127155363Y-68935241D01*
X126998320Y-69170273D01*
X126890147Y-69431426D01*
X126835000Y-69708665D01*
X126835000Y-69991335D01*
X126890147Y-70268574D01*
X126928017Y-70360000D01*
X126044802Y-70360000D01*
X125220000Y-69535199D01*
X125220000Y-66077322D01*
X125223676Y-66039999D01*
X125220000Y-66002676D01*
X125220000Y-66002667D01*
X125209003Y-65891014D01*
X125165546Y-65747753D01*
X125094974Y-65615724D01*
X125000001Y-65499999D01*
X124971004Y-65476202D01*
X123753804Y-64259003D01*
X123730001Y-64229999D01*
X123614276Y-64135026D01*
X123482247Y-64064454D01*
X123338986Y-64020997D01*
X123227333Y-64010000D01*
X123227322Y-64010000D01*
X123190000Y-64006324D01*
X123152678Y-64010000D01*
X121868043Y-64010000D01*
X121764637Y-63855241D01*
X121564759Y-63655363D01*
X121329727Y-63498320D01*
X121068574Y-63390147D01*
X120791335Y-63335000D01*
X120508665Y-63335000D01*
X120231426Y-63390147D01*
X119970273Y-63498320D01*
X119735241Y-63655363D01*
X119535363Y-63855241D01*
X119378320Y-64090273D01*
X119270147Y-64351426D01*
X119215000Y-64628665D01*
X119215000Y-64911335D01*
X119270147Y-65188574D01*
X119378320Y-65449727D01*
X119535363Y-65684759D01*
X119735241Y-65884637D01*
X119967759Y-66040000D01*
X119735241Y-66195363D01*
X119535363Y-66395241D01*
X119378320Y-66630273D01*
X119270147Y-66891426D01*
X119215000Y-67168665D01*
X119215000Y-67451335D01*
X119270147Y-67728574D01*
X119378320Y-67989727D01*
X119535363Y-68224759D01*
X119735241Y-68424637D01*
X119967759Y-68580000D01*
X119735241Y-68735363D01*
X119535363Y-68935241D01*
X119378320Y-69170273D01*
X119270147Y-69431426D01*
X119215000Y-69708665D01*
X119215000Y-69880199D01*
X118870000Y-69535199D01*
X118870000Y-59548665D01*
X120565000Y-59548665D01*
X120565000Y-59831335D01*
X120620147Y-60108574D01*
X120728320Y-60369727D01*
X120885363Y-60604759D01*
X121085241Y-60804637D01*
X121320273Y-60961680D01*
X121581426Y-61069853D01*
X121858665Y-61125000D01*
X122141335Y-61125000D01*
X122418574Y-61069853D01*
X122679727Y-60961680D01*
X122914759Y-60804637D01*
X123036694Y-60682702D01*
X126186903Y-60682702D01*
X126258486Y-60926671D01*
X126513996Y-61047571D01*
X126788184Y-61116300D01*
X127070512Y-61130217D01*
X127350130Y-61088787D01*
X127616292Y-60993603D01*
X127741514Y-60926671D01*
X127813097Y-60682702D01*
X127000000Y-59869605D01*
X126186903Y-60682702D01*
X123036694Y-60682702D01*
X123114637Y-60604759D01*
X123271680Y-60369727D01*
X123379853Y-60108574D01*
X123435000Y-59831335D01*
X123435000Y-59760512D01*
X125559783Y-59760512D01*
X125601213Y-60040130D01*
X125696397Y-60306292D01*
X125763329Y-60431514D01*
X126007298Y-60503097D01*
X126820395Y-59690000D01*
X127179605Y-59690000D01*
X127992702Y-60503097D01*
X128236671Y-60431514D01*
X128357571Y-60176004D01*
X128426300Y-59901816D01*
X128440217Y-59619488D01*
X128398787Y-59339870D01*
X128303603Y-59073708D01*
X128236671Y-58948486D01*
X127992702Y-58876903D01*
X127179605Y-59690000D01*
X126820395Y-59690000D01*
X126007298Y-58876903D01*
X125763329Y-58948486D01*
X125642429Y-59203996D01*
X125573700Y-59478184D01*
X125559783Y-59760512D01*
X123435000Y-59760512D01*
X123435000Y-59548665D01*
X123379853Y-59271426D01*
X123271680Y-59010273D01*
X123114637Y-58775241D01*
X123036694Y-58697298D01*
X126186903Y-58697298D01*
X127000000Y-59510395D01*
X127813097Y-58697298D01*
X127741514Y-58453329D01*
X127486004Y-58332429D01*
X127211816Y-58263700D01*
X126929488Y-58249783D01*
X126649870Y-58291213D01*
X126383708Y-58386397D01*
X126258486Y-58453329D01*
X126186903Y-58697298D01*
X123036694Y-58697298D01*
X122914759Y-58575363D01*
X122679727Y-58418320D01*
X122418574Y-58310147D01*
X122141335Y-58255000D01*
X121858665Y-58255000D01*
X121581426Y-58310147D01*
X121320273Y-58418320D01*
X121085241Y-58575363D01*
X120885363Y-58775241D01*
X120728320Y-59010273D01*
X120620147Y-59271426D01*
X120565000Y-59548665D01*
X118870000Y-59548665D01*
X118870000Y-57187322D01*
X118873676Y-57149999D01*
X118870000Y-57112676D01*
X118870000Y-57112667D01*
X118859003Y-57001014D01*
X118815546Y-56857753D01*
X118744974Y-56725724D01*
X118650001Y-56609999D01*
X118621003Y-56586201D01*
X117403804Y-55369003D01*
X117380001Y-55339999D01*
X117264276Y-55245026D01*
X117132247Y-55174454D01*
X116988986Y-55130997D01*
X116877333Y-55120000D01*
X116877322Y-55120000D01*
X116840000Y-55116324D01*
X116802678Y-55120000D01*
X104177322Y-55120000D01*
X104139999Y-55116324D01*
X104102676Y-55120000D01*
X104102667Y-55120000D01*
X103991014Y-55130997D01*
X103847753Y-55174454D01*
X103715724Y-55245026D01*
X103599999Y-55339999D01*
X103576201Y-55368997D01*
X102359003Y-56586196D01*
X102329999Y-56609999D01*
X102285694Y-56663985D01*
X102235026Y-56725724D01*
X102230127Y-56734890D01*
X102068899Y-56821068D01*
X101850392Y-57000393D01*
X101671068Y-57218900D01*
X101600000Y-57351858D01*
X101528932Y-57218899D01*
X101349607Y-57000392D01*
X101131100Y-56821068D01*
X100969874Y-56734891D01*
X100964974Y-56725724D01*
X100870001Y-56609999D01*
X100841003Y-56586201D01*
X98988804Y-54734003D01*
X98965001Y-54704999D01*
X98849276Y-54610026D01*
X98717247Y-54539454D01*
X98573986Y-54495997D01*
X98462333Y-54485000D01*
X98462322Y-54485000D01*
X98425000Y-54481324D01*
X98387678Y-54485000D01*
X66712322Y-54485000D01*
X66674999Y-54481324D01*
X66637676Y-54485000D01*
X66637667Y-54485000D01*
X66526014Y-54495997D01*
X66382753Y-54539454D01*
X66250724Y-54610026D01*
X66134999Y-54704999D01*
X66111201Y-54733997D01*
X65064026Y-55781173D01*
X65064016Y-55781181D01*
X62989002Y-57856196D01*
X62959999Y-57879999D01*
X62904871Y-57947174D01*
X62865026Y-57995724D01*
X62794455Y-58127753D01*
X62794454Y-58127754D01*
X62750997Y-58271015D01*
X62740000Y-58382668D01*
X62740000Y-58382678D01*
X62736324Y-58420000D01*
X62740000Y-58457323D01*
X62740000Y-59521928D01*
X62700000Y-59521928D01*
X62575518Y-59534188D01*
X62455820Y-59570498D01*
X62345506Y-59629463D01*
X62248815Y-59708815D01*
X62169463Y-59805506D01*
X62110498Y-59915820D01*
X62074188Y-60035518D01*
X62061928Y-60160000D01*
X60375000Y-60160000D01*
X60375000Y-54025000D01*
X141555000Y-54025000D01*
X141555001Y-111075000D01*
G04 #@! TA.AperFunction,Conductor*
D20*
G36*
X141555001Y-111075000D02*
G01*
X60375000Y-111075000D01*
X60375000Y-63849039D01*
X62108096Y-63849039D01*
X62148754Y-63983087D01*
X62268963Y-64237420D01*
X62436481Y-64463414D01*
X62644869Y-64652385D01*
X62840982Y-64770000D01*
X62644869Y-64887615D01*
X62436481Y-65076586D01*
X62268963Y-65302580D01*
X62148754Y-65556913D01*
X62108096Y-65690961D01*
X62230085Y-65913000D01*
X63373000Y-65913000D01*
X63373000Y-63627000D01*
X63627000Y-63627000D01*
X63627000Y-65913000D01*
X64769915Y-65913000D01*
X64891904Y-65690961D01*
X64851246Y-65556913D01*
X64731037Y-65302580D01*
X64563519Y-65076586D01*
X64355131Y-64887615D01*
X64159018Y-64770000D01*
X64355131Y-64652385D01*
X64563519Y-64463414D01*
X64731037Y-64237420D01*
X64851246Y-63983087D01*
X64891904Y-63849039D01*
X64769915Y-63627000D01*
X63627000Y-63627000D01*
X63373000Y-63627000D01*
X62230085Y-63627000D01*
X62108096Y-63849039D01*
X60375000Y-63849039D01*
X60375000Y-60160000D01*
X62061928Y-60160000D01*
X62061928Y-61760000D01*
X62074188Y-61884482D01*
X62110498Y-62004180D01*
X62169463Y-62114494D01*
X62248815Y-62211185D01*
X62345506Y-62290537D01*
X62455820Y-62349502D01*
X62575518Y-62385812D01*
X62600080Y-62388231D01*
X62436481Y-62536586D01*
X62268963Y-62762580D01*
X62148754Y-63016913D01*
X62108096Y-63150961D01*
X62230085Y-63373000D01*
X63373000Y-63373000D01*
X63373000Y-63353000D01*
X63627000Y-63353000D01*
X63627000Y-63373000D01*
X64769915Y-63373000D01*
X64891904Y-63150961D01*
X64851246Y-63016913D01*
X64731037Y-62762580D01*
X64563519Y-62536586D01*
X64399920Y-62388231D01*
X64424482Y-62385812D01*
X64544180Y-62349502D01*
X64654494Y-62290537D01*
X64751185Y-62211185D01*
X64830537Y-62114494D01*
X64889502Y-62004180D01*
X64925812Y-61884482D01*
X64938072Y-61760000D01*
X64938072Y-60610961D01*
X69728096Y-60610961D01*
X69850085Y-60833000D01*
X70993000Y-60833000D01*
X70993000Y-59689376D01*
X71247000Y-59689376D01*
X71247000Y-60833000D01*
X72389915Y-60833000D01*
X72511904Y-60610961D01*
X72471246Y-60476913D01*
X72410457Y-60348298D01*
X74066103Y-60348298D01*
X74879200Y-61161395D01*
X75692297Y-60348298D01*
X75620714Y-60104329D01*
X75365204Y-59983429D01*
X75091016Y-59914700D01*
X74808688Y-59900783D01*
X74529070Y-59942213D01*
X74262908Y-60037397D01*
X74137686Y-60104329D01*
X74066103Y-60348298D01*
X72410457Y-60348298D01*
X72351037Y-60222580D01*
X72183519Y-59996586D01*
X71975131Y-59807615D01*
X71733881Y-59662930D01*
X71469040Y-59568091D01*
X71247000Y-59689376D01*
X70993000Y-59689376D01*
X70770960Y-59568091D01*
X70506119Y-59662930D01*
X70264869Y-59807615D01*
X70056481Y-59996586D01*
X69888963Y-60222580D01*
X69768754Y-60476913D01*
X69728096Y-60610961D01*
X64938072Y-60610961D01*
X64938072Y-60160000D01*
X64925812Y-60035518D01*
X64889502Y-59915820D01*
X64830537Y-59805506D01*
X64751185Y-59708815D01*
X64654494Y-59629463D01*
X64544180Y-59570498D01*
X64424482Y-59534188D01*
X64300000Y-59521928D01*
X64260000Y-59521928D01*
X64260000Y-58734801D01*
X64447801Y-58547000D01*
X88735000Y-58547000D01*
X88735000Y-58947000D01*
X88787350Y-59224514D01*
X88892834Y-59486483D01*
X89047399Y-59722839D01*
X89245105Y-59924500D01*
X89478354Y-60083715D01*
X89738182Y-60194367D01*
X89820961Y-60211904D01*
X90043000Y-60089915D01*
X90043000Y-58547000D01*
X88735000Y-58547000D01*
X64447801Y-58547000D01*
X65101801Y-57893000D01*
X88735000Y-57893000D01*
X88735000Y-58293000D01*
X90043000Y-58293000D01*
X90043000Y-56750085D01*
X89820961Y-56628096D01*
X89738182Y-56645633D01*
X89478354Y-56756285D01*
X89245105Y-56915500D01*
X89047399Y-57117161D01*
X88892834Y-57353517D01*
X88787350Y-57615486D01*
X88735000Y-57893000D01*
X65101801Y-57893000D01*
X66138819Y-56855984D01*
X66138827Y-56855974D01*
X66989802Y-56005000D01*
X98110199Y-56005000D01*
X99218077Y-57112879D01*
X99131068Y-57218900D01*
X99060000Y-57351858D01*
X98988932Y-57218899D01*
X98809607Y-57000392D01*
X98591100Y-56821068D01*
X98341807Y-56687818D01*
X98071308Y-56605764D01*
X97790000Y-56578057D01*
X97508691Y-56605764D01*
X97238192Y-56687818D01*
X96988899Y-56821068D01*
X96770392Y-57000393D01*
X96591068Y-57218900D01*
X96520000Y-57351858D01*
X96448932Y-57218899D01*
X96269607Y-57000392D01*
X96051100Y-56821068D01*
X95801807Y-56687818D01*
X95531308Y-56605764D01*
X95250000Y-56578057D01*
X94968691Y-56605764D01*
X94698192Y-56687818D01*
X94448899Y-56821068D01*
X94230392Y-57000393D01*
X94051068Y-57218900D01*
X93980000Y-57351858D01*
X93908932Y-57218899D01*
X93729607Y-57000392D01*
X93511100Y-56821068D01*
X93261807Y-56687818D01*
X92991308Y-56605764D01*
X92710000Y-56578057D01*
X92428691Y-56605764D01*
X92158192Y-56687818D01*
X91908899Y-56821068D01*
X91690392Y-57000393D01*
X91511068Y-57218900D01*
X91442735Y-57346742D01*
X91292601Y-57117161D01*
X91094895Y-56915500D01*
X90861646Y-56756285D01*
X90601818Y-56645633D01*
X90519039Y-56628096D01*
X90297000Y-56750085D01*
X90297000Y-58293000D01*
X90317000Y-58293000D01*
X90317000Y-58547000D01*
X90297000Y-58547000D01*
X90297000Y-60089915D01*
X90519039Y-60211904D01*
X90601818Y-60194367D01*
X90861646Y-60083715D01*
X91094895Y-59924500D01*
X91292601Y-59722839D01*
X91442735Y-59493259D01*
X91511068Y-59621101D01*
X91598077Y-59727121D01*
X87754003Y-63571196D01*
X87724999Y-63594999D01*
X87680694Y-63648985D01*
X87630026Y-63710724D01*
X87586451Y-63792246D01*
X87559454Y-63842754D01*
X87515997Y-63986015D01*
X87505000Y-64097668D01*
X87505000Y-64097678D01*
X87501324Y-64135000D01*
X87505000Y-64172323D01*
X87505001Y-67630197D01*
X81280000Y-73855199D01*
X78033804Y-70609003D01*
X78010001Y-70579999D01*
X77894276Y-70485026D01*
X77762247Y-70414454D01*
X77618986Y-70370997D01*
X77507333Y-70360000D01*
X77507322Y-70360000D01*
X77470000Y-70356324D01*
X77432678Y-70360000D01*
X72338043Y-70360000D01*
X72234637Y-70205241D01*
X72034759Y-70005363D01*
X71802241Y-69850000D01*
X72034759Y-69694637D01*
X72234637Y-69494759D01*
X72391680Y-69259727D01*
X72499853Y-68998574D01*
X72555000Y-68721335D01*
X72555000Y-68438665D01*
X72499853Y-68161426D01*
X72391680Y-67900273D01*
X72234637Y-67665241D01*
X72034759Y-67465363D01*
X71802241Y-67310000D01*
X72034759Y-67154637D01*
X72234637Y-66954759D01*
X72391680Y-66719727D01*
X72499853Y-66458574D01*
X72551353Y-66199665D01*
X73444200Y-66199665D01*
X73444200Y-66482335D01*
X73499347Y-66759574D01*
X73607520Y-67020727D01*
X73764563Y-67255759D01*
X73964441Y-67455637D01*
X74199473Y-67612680D01*
X74460626Y-67720853D01*
X74737865Y-67776000D01*
X75020535Y-67776000D01*
X75297774Y-67720853D01*
X75558927Y-67612680D01*
X75793959Y-67455637D01*
X75993837Y-67255759D01*
X76150880Y-67020727D01*
X76259053Y-66759574D01*
X76314200Y-66482335D01*
X76314200Y-66199665D01*
X76259053Y-65922426D01*
X76150880Y-65661273D01*
X75993837Y-65426241D01*
X75793959Y-65226363D01*
X75558927Y-65069320D01*
X75297774Y-64961147D01*
X75020535Y-64906000D01*
X74737865Y-64906000D01*
X74460626Y-64961147D01*
X74199473Y-65069320D01*
X73964441Y-65226363D01*
X73764563Y-65426241D01*
X73607520Y-65661273D01*
X73499347Y-65922426D01*
X73444200Y-66199665D01*
X72551353Y-66199665D01*
X72555000Y-66181335D01*
X72555000Y-65898665D01*
X72499853Y-65621426D01*
X72391680Y-65360273D01*
X72234637Y-65125241D01*
X72034759Y-64925363D01*
X71802241Y-64770000D01*
X72034759Y-64614637D01*
X72234637Y-64414759D01*
X72391680Y-64179727D01*
X72499853Y-63918574D01*
X72555000Y-63641335D01*
X72555000Y-63358665D01*
X72499853Y-63081426D01*
X72391680Y-62820273D01*
X72234637Y-62585241D01*
X72034759Y-62385363D01*
X71957443Y-62333702D01*
X74066103Y-62333702D01*
X74137686Y-62577671D01*
X74393196Y-62698571D01*
X74667384Y-62767300D01*
X74949712Y-62781217D01*
X75229330Y-62739787D01*
X75495492Y-62644603D01*
X75620714Y-62577671D01*
X75692297Y-62333702D01*
X74879200Y-61520605D01*
X74066103Y-62333702D01*
X71957443Y-62333702D01*
X71799727Y-62228320D01*
X71789135Y-62223933D01*
X71975131Y-62112385D01*
X72183519Y-61923414D01*
X72351037Y-61697420D01*
X72471246Y-61443087D01*
X72480822Y-61411512D01*
X73438983Y-61411512D01*
X73480413Y-61691130D01*
X73575597Y-61957292D01*
X73642529Y-62082514D01*
X73886498Y-62154097D01*
X74699595Y-61341000D01*
X75058805Y-61341000D01*
X75871902Y-62154097D01*
X76115871Y-62082514D01*
X76236771Y-61827004D01*
X76305500Y-61552816D01*
X76319417Y-61270488D01*
X76277987Y-60990870D01*
X76182803Y-60724708D01*
X76115871Y-60599486D01*
X75871902Y-60527903D01*
X75058805Y-61341000D01*
X74699595Y-61341000D01*
X73886498Y-60527903D01*
X73642529Y-60599486D01*
X73521629Y-60854996D01*
X73452900Y-61129184D01*
X73438983Y-61411512D01*
X72480822Y-61411512D01*
X72511904Y-61309039D01*
X72389915Y-61087000D01*
X71247000Y-61087000D01*
X71247000Y-61107000D01*
X70993000Y-61107000D01*
X70993000Y-61087000D01*
X69850085Y-61087000D01*
X69728096Y-61309039D01*
X69768754Y-61443087D01*
X69888963Y-61697420D01*
X70056481Y-61923414D01*
X70264869Y-62112385D01*
X70450865Y-62223933D01*
X70440273Y-62228320D01*
X70205241Y-62385363D01*
X70005363Y-62585241D01*
X69848320Y-62820273D01*
X69740147Y-63081426D01*
X69685000Y-63358665D01*
X69685000Y-63641335D01*
X69740147Y-63918574D01*
X69848320Y-64179727D01*
X70005363Y-64414759D01*
X70205241Y-64614637D01*
X70437759Y-64770000D01*
X70205241Y-64925363D01*
X70005363Y-65125241D01*
X69848320Y-65360273D01*
X69740147Y-65621426D01*
X69685000Y-65898665D01*
X69685000Y-66181335D01*
X69740147Y-66458574D01*
X69848320Y-66719727D01*
X70005363Y-66954759D01*
X70205241Y-67154637D01*
X70437759Y-67310000D01*
X70205241Y-67465363D01*
X70005363Y-67665241D01*
X69848320Y-67900273D01*
X69740147Y-68161426D01*
X69685000Y-68438665D01*
X69685000Y-68721335D01*
X69740147Y-68998574D01*
X69848320Y-69259727D01*
X70005363Y-69494759D01*
X70205241Y-69694637D01*
X70437759Y-69850000D01*
X70205241Y-70005363D01*
X70005363Y-70205241D01*
X69901957Y-70360000D01*
X68894803Y-70360000D01*
X66603804Y-68069003D01*
X66580001Y-68039999D01*
X66464276Y-67945026D01*
X66332247Y-67874454D01*
X66188986Y-67830997D01*
X66077333Y-67820000D01*
X66077322Y-67820000D01*
X66040000Y-67816324D01*
X66002678Y-67820000D01*
X64718043Y-67820000D01*
X64614637Y-67665241D01*
X64414759Y-67465363D01*
X64179727Y-67308320D01*
X64169135Y-67303933D01*
X64355131Y-67192385D01*
X64563519Y-67003414D01*
X64731037Y-66777420D01*
X64851246Y-66523087D01*
X64891904Y-66389039D01*
X64769915Y-66167000D01*
X63627000Y-66167000D01*
X63627000Y-66187000D01*
X63373000Y-66187000D01*
X63373000Y-66167000D01*
X62230085Y-66167000D01*
X62108096Y-66389039D01*
X62148754Y-66523087D01*
X62268963Y-66777420D01*
X62436481Y-67003414D01*
X62644869Y-67192385D01*
X62830865Y-67303933D01*
X62820273Y-67308320D01*
X62585241Y-67465363D01*
X62385363Y-67665241D01*
X62228320Y-67900273D01*
X62120147Y-68161426D01*
X62065000Y-68438665D01*
X62065000Y-68721335D01*
X62120147Y-68998574D01*
X62228320Y-69259727D01*
X62385363Y-69494759D01*
X62585241Y-69694637D01*
X62817759Y-69850000D01*
X62585241Y-70005363D01*
X62385363Y-70205241D01*
X62228320Y-70440273D01*
X62120147Y-70701426D01*
X62065000Y-70978665D01*
X62065000Y-71261335D01*
X62120147Y-71538574D01*
X62228320Y-71799727D01*
X62385363Y-72034759D01*
X62585241Y-72234637D01*
X62817759Y-72390000D01*
X62585241Y-72545363D01*
X62385363Y-72745241D01*
X62228320Y-72980273D01*
X62120147Y-73241426D01*
X62065000Y-73518665D01*
X62065000Y-73801335D01*
X62120147Y-74078574D01*
X62228320Y-74339727D01*
X62385363Y-74574759D01*
X62585241Y-74774637D01*
X62817759Y-74930000D01*
X62585241Y-75085363D01*
X62385363Y-75285241D01*
X62228320Y-75520273D01*
X62120147Y-75781426D01*
X62065000Y-76058665D01*
X62065000Y-76341335D01*
X62120147Y-76618574D01*
X62228320Y-76879727D01*
X62385363Y-77114759D01*
X62585241Y-77314637D01*
X62820273Y-77471680D01*
X63081426Y-77579853D01*
X63358665Y-77635000D01*
X63641335Y-77635000D01*
X63918574Y-77579853D01*
X64179727Y-77471680D01*
X64414759Y-77314637D01*
X64614637Y-77114759D01*
X64771680Y-76879727D01*
X64879853Y-76618574D01*
X64935000Y-76341335D01*
X64935000Y-76058665D01*
X64879853Y-75781426D01*
X64771680Y-75520273D01*
X64614637Y-75285241D01*
X64414759Y-75085363D01*
X64182241Y-74930000D01*
X64414759Y-74774637D01*
X64612297Y-74577099D01*
X66550000Y-76514803D01*
X66550001Y-83782667D01*
X66546324Y-83820000D01*
X66550001Y-83857333D01*
X66560998Y-83968986D01*
X66565856Y-83985000D01*
X66604454Y-84112246D01*
X66675026Y-84244276D01*
X66742361Y-84326323D01*
X66770000Y-84360001D01*
X66798998Y-84383799D01*
X69286205Y-86871008D01*
X69309999Y-86900001D01*
X69338992Y-86923795D01*
X69338996Y-86923799D01*
X69409685Y-86981811D01*
X69425724Y-86994974D01*
X69557753Y-87065546D01*
X69701014Y-87109003D01*
X69812667Y-87120000D01*
X69812676Y-87120000D01*
X69849999Y-87123676D01*
X69887322Y-87120000D01*
X69901957Y-87120000D01*
X70005363Y-87274759D01*
X70205241Y-87474637D01*
X70437759Y-87630000D01*
X70205241Y-87785363D01*
X70005363Y-87985241D01*
X69848320Y-88220273D01*
X69740147Y-88481426D01*
X69685000Y-88758665D01*
X69685000Y-89041335D01*
X69740147Y-89318574D01*
X69778017Y-89410000D01*
X68894802Y-89410000D01*
X65333804Y-85849003D01*
X65310001Y-85819999D01*
X65194276Y-85725026D01*
X65062247Y-85654454D01*
X64918986Y-85610997D01*
X64807333Y-85600000D01*
X64807322Y-85600000D01*
X64770000Y-85596324D01*
X64732678Y-85600000D01*
X64718043Y-85600000D01*
X64614637Y-85445241D01*
X64416039Y-85246643D01*
X64424482Y-85245812D01*
X64544180Y-85209502D01*
X64654494Y-85150537D01*
X64751185Y-85071185D01*
X64830537Y-84974494D01*
X64889502Y-84864180D01*
X64925812Y-84744482D01*
X64938072Y-84620000D01*
X64938072Y-83020000D01*
X64925812Y-82895518D01*
X64889502Y-82775820D01*
X64830537Y-82665506D01*
X64751185Y-82568815D01*
X64654494Y-82489463D01*
X64544180Y-82430498D01*
X64424482Y-82394188D01*
X64300000Y-82381928D01*
X62700000Y-82381928D01*
X62575518Y-82394188D01*
X62455820Y-82430498D01*
X62345506Y-82489463D01*
X62248815Y-82568815D01*
X62169463Y-82665506D01*
X62110498Y-82775820D01*
X62074188Y-82895518D01*
X62061928Y-83020000D01*
X62061928Y-84620000D01*
X62074188Y-84744482D01*
X62110498Y-84864180D01*
X62169463Y-84974494D01*
X62248815Y-85071185D01*
X62345506Y-85150537D01*
X62455820Y-85209502D01*
X62575518Y-85245812D01*
X62583961Y-85246643D01*
X62385363Y-85445241D01*
X62228320Y-85680273D01*
X62120147Y-85941426D01*
X62065000Y-86218665D01*
X62065000Y-86501335D01*
X62120147Y-86778574D01*
X62228320Y-87039727D01*
X62385363Y-87274759D01*
X62585241Y-87474637D01*
X62817759Y-87630000D01*
X62585241Y-87785363D01*
X62385363Y-87985241D01*
X62228320Y-88220273D01*
X62120147Y-88481426D01*
X62065000Y-88758665D01*
X62065000Y-89041335D01*
X62120147Y-89318574D01*
X62228320Y-89579727D01*
X62385363Y-89814759D01*
X62585241Y-90014637D01*
X62817759Y-90170000D01*
X62585241Y-90325363D01*
X62385363Y-90525241D01*
X62228320Y-90760273D01*
X62120147Y-91021426D01*
X62065000Y-91298665D01*
X62065000Y-91581335D01*
X62120147Y-91858574D01*
X62228320Y-92119727D01*
X62385363Y-92354759D01*
X62585241Y-92554637D01*
X62740000Y-92658044D01*
X62740001Y-92761956D01*
X62585241Y-92865363D01*
X62385363Y-93065241D01*
X62228320Y-93300273D01*
X62120147Y-93561426D01*
X62065000Y-93838665D01*
X62065000Y-94121335D01*
X62120147Y-94398574D01*
X62228320Y-94659727D01*
X62385363Y-94894759D01*
X62585241Y-95094637D01*
X62817759Y-95250000D01*
X62585241Y-95405363D01*
X62385363Y-95605241D01*
X62228320Y-95840273D01*
X62120147Y-96101426D01*
X62065000Y-96378665D01*
X62065000Y-96661335D01*
X62120147Y-96938574D01*
X62228320Y-97199727D01*
X62385363Y-97434759D01*
X62585241Y-97634637D01*
X62817759Y-97790000D01*
X62585241Y-97945363D01*
X62385363Y-98145241D01*
X62228320Y-98380273D01*
X62120147Y-98641426D01*
X62065000Y-98918665D01*
X62065000Y-99201335D01*
X62120147Y-99478574D01*
X62228320Y-99739727D01*
X62385363Y-99974759D01*
X62585241Y-100174637D01*
X62820273Y-100331680D01*
X63081426Y-100439853D01*
X63358665Y-100495000D01*
X63641335Y-100495000D01*
X63918574Y-100439853D01*
X64179727Y-100331680D01*
X64414759Y-100174637D01*
X64614637Y-99974759D01*
X64771680Y-99739727D01*
X64879853Y-99478574D01*
X64935000Y-99201335D01*
X64935000Y-98918665D01*
X64879853Y-98641426D01*
X64771680Y-98380273D01*
X64614637Y-98145241D01*
X64414759Y-97945363D01*
X64182241Y-97790000D01*
X64414759Y-97634637D01*
X64612297Y-97437099D01*
X69286200Y-102111002D01*
X69309999Y-102140001D01*
X69338997Y-102163799D01*
X69425723Y-102234974D01*
X69557753Y-102305546D01*
X69701014Y-102349003D01*
X69812667Y-102360000D01*
X69812677Y-102360000D01*
X69850000Y-102363676D01*
X69887323Y-102360000D01*
X75885199Y-102360000D01*
X76227127Y-102701928D01*
X75400000Y-102701928D01*
X75275518Y-102714188D01*
X75155820Y-102750498D01*
X75045506Y-102809463D01*
X74948815Y-102888815D01*
X74869463Y-102985506D01*
X74810498Y-103095820D01*
X74774188Y-103215518D01*
X74761928Y-103340000D01*
X74761928Y-104940000D01*
X74774188Y-105064482D01*
X74810498Y-105184180D01*
X74869463Y-105294494D01*
X74948815Y-105391185D01*
X75045506Y-105470537D01*
X75155820Y-105529502D01*
X75275518Y-105565812D01*
X75400000Y-105578072D01*
X77000000Y-105578072D01*
X77124482Y-105565812D01*
X77244180Y-105529502D01*
X77354494Y-105470537D01*
X77451185Y-105391185D01*
X77530537Y-105294494D01*
X77589502Y-105184180D01*
X77625812Y-105064482D01*
X77626643Y-105056039D01*
X77825241Y-105254637D01*
X78060273Y-105411680D01*
X78321426Y-105519853D01*
X78598665Y-105575000D01*
X78881335Y-105575000D01*
X79158574Y-105519853D01*
X79419727Y-105411680D01*
X79654759Y-105254637D01*
X79854637Y-105054759D01*
X80010000Y-104822241D01*
X80165363Y-105054759D01*
X80274513Y-105163909D01*
X79643422Y-105795000D01*
X66406579Y-105795000D01*
X65815487Y-105203909D01*
X65886694Y-105132702D01*
X69036903Y-105132702D01*
X69108486Y-105376671D01*
X69363996Y-105497571D01*
X69638184Y-105566300D01*
X69920512Y-105580217D01*
X70200130Y-105538787D01*
X70466292Y-105443603D01*
X70591514Y-105376671D01*
X70663097Y-105132702D01*
X69850000Y-104319605D01*
X69036903Y-105132702D01*
X65886694Y-105132702D01*
X65964637Y-105054759D01*
X66121680Y-104819727D01*
X66229853Y-104558574D01*
X66285000Y-104281335D01*
X66285000Y-104210512D01*
X68409783Y-104210512D01*
X68451213Y-104490130D01*
X68546397Y-104756292D01*
X68613329Y-104881514D01*
X68857298Y-104953097D01*
X69670395Y-104140000D01*
X70029605Y-104140000D01*
X70842702Y-104953097D01*
X71086671Y-104881514D01*
X71207571Y-104626004D01*
X71276300Y-104351816D01*
X71290217Y-104069488D01*
X71248787Y-103789870D01*
X71153603Y-103523708D01*
X71086671Y-103398486D01*
X70842702Y-103326903D01*
X70029605Y-104140000D01*
X69670395Y-104140000D01*
X68857298Y-103326903D01*
X68613329Y-103398486D01*
X68492429Y-103653996D01*
X68423700Y-103928184D01*
X68409783Y-104210512D01*
X66285000Y-104210512D01*
X66285000Y-103998665D01*
X66229853Y-103721426D01*
X66121680Y-103460273D01*
X65964637Y-103225241D01*
X65886694Y-103147298D01*
X69036903Y-103147298D01*
X69850000Y-103960395D01*
X70663097Y-103147298D01*
X70591514Y-102903329D01*
X70336004Y-102782429D01*
X70061816Y-102713700D01*
X69779488Y-102699783D01*
X69499870Y-102741213D01*
X69233708Y-102836397D01*
X69108486Y-102903329D01*
X69036903Y-103147298D01*
X65886694Y-103147298D01*
X65764759Y-103025363D01*
X65529727Y-102868320D01*
X65268574Y-102760147D01*
X64991335Y-102705000D01*
X64708665Y-102705000D01*
X64431426Y-102760147D01*
X64170273Y-102868320D01*
X63935241Y-103025363D01*
X63735363Y-103225241D01*
X63578320Y-103460273D01*
X63470147Y-103721426D01*
X63415000Y-103998665D01*
X63415000Y-104281335D01*
X63470147Y-104558574D01*
X63578320Y-104819727D01*
X63735363Y-105054759D01*
X63935241Y-105254637D01*
X63965001Y-105274522D01*
X63965001Y-105446521D01*
X63960719Y-105490000D01*
X63977805Y-105663490D01*
X64028412Y-105830313D01*
X64110590Y-105984059D01*
X64193468Y-106085046D01*
X64193471Y-106085049D01*
X64221184Y-106118817D01*
X64254951Y-106146529D01*
X65383470Y-107275049D01*
X65411183Y-107308817D01*
X65444951Y-107336530D01*
X65444953Y-107336532D01*
X65504677Y-107385546D01*
X65545941Y-107419411D01*
X65699687Y-107501589D01*
X65866510Y-107552195D01*
X65996523Y-107565000D01*
X65996533Y-107565000D01*
X66039999Y-107569281D01*
X66083465Y-107565000D01*
X79966531Y-107565000D01*
X80010000Y-107569281D01*
X80053469Y-107565000D01*
X80053477Y-107565000D01*
X80183490Y-107552195D01*
X80350313Y-107501589D01*
X80504059Y-107419411D01*
X80638817Y-107308817D01*
X80666534Y-107275044D01*
X81875050Y-106066529D01*
X81908817Y-106038817D01*
X81962177Y-105973799D01*
X82019410Y-105904060D01*
X82019411Y-105904059D01*
X82101589Y-105750313D01*
X82152195Y-105583490D01*
X82165000Y-105453477D01*
X82165000Y-105453467D01*
X82169281Y-105410001D01*
X82165000Y-105366535D01*
X82165000Y-105274521D01*
X82194759Y-105254637D01*
X82394637Y-105054759D01*
X82550000Y-104822241D01*
X82705363Y-105054759D01*
X82905241Y-105254637D01*
X83140273Y-105411680D01*
X83401426Y-105519853D01*
X83678665Y-105575000D01*
X83961335Y-105575000D01*
X84238574Y-105519853D01*
X84499727Y-105411680D01*
X84734759Y-105254637D01*
X84934637Y-105054759D01*
X85090000Y-104822241D01*
X85245363Y-105054759D01*
X85445241Y-105254637D01*
X85680273Y-105411680D01*
X85941426Y-105519853D01*
X86218665Y-105575000D01*
X86501335Y-105575000D01*
X86778574Y-105519853D01*
X87039727Y-105411680D01*
X87274759Y-105254637D01*
X87474637Y-105054759D01*
X87630000Y-104822241D01*
X87785363Y-105054759D01*
X87985241Y-105254637D01*
X88220273Y-105411680D01*
X88481426Y-105519853D01*
X88758665Y-105575000D01*
X89041335Y-105575000D01*
X89318574Y-105519853D01*
X89579727Y-105411680D01*
X89814759Y-105254637D01*
X90014637Y-105054759D01*
X90170000Y-104822241D01*
X90325363Y-105054759D01*
X90525241Y-105254637D01*
X90760273Y-105411680D01*
X91021426Y-105519853D01*
X91298665Y-105575000D01*
X91581335Y-105575000D01*
X91858574Y-105519853D01*
X92119727Y-105411680D01*
X92354759Y-105254637D01*
X92554637Y-105054759D01*
X92711680Y-104819727D01*
X92819853Y-104558574D01*
X92875000Y-104281335D01*
X92875000Y-103998665D01*
X92819853Y-103721426D01*
X92711680Y-103460273D01*
X92554637Y-103225241D01*
X92354759Y-103025363D01*
X92119727Y-102868320D01*
X91858574Y-102760147D01*
X91581335Y-102705000D01*
X91298665Y-102705000D01*
X91021426Y-102760147D01*
X90760273Y-102868320D01*
X90525241Y-103025363D01*
X90325363Y-103225241D01*
X90170000Y-103457759D01*
X90014637Y-103225241D01*
X89814759Y-103025363D01*
X89579727Y-102868320D01*
X89318574Y-102760147D01*
X89041335Y-102705000D01*
X88758665Y-102705000D01*
X88576114Y-102741312D01*
X84383804Y-98549003D01*
X84360001Y-98519999D01*
X84244276Y-98425026D01*
X84112247Y-98354454D01*
X83968986Y-98310997D01*
X83857333Y-98300000D01*
X83857322Y-98300000D01*
X83820000Y-98296324D01*
X83782678Y-98300000D01*
X75244803Y-98300000D01*
X73813842Y-96869040D01*
X74808091Y-96869040D01*
X74902930Y-97133881D01*
X75047615Y-97375131D01*
X75236586Y-97583519D01*
X75462580Y-97751037D01*
X75716913Y-97871246D01*
X75850961Y-97911904D01*
X76073000Y-97789915D01*
X76073000Y-96647000D01*
X74929376Y-96647000D01*
X74808091Y-96869040D01*
X73813842Y-96869040D01*
X73115762Y-96170960D01*
X74808091Y-96170960D01*
X74929376Y-96393000D01*
X76073000Y-96393000D01*
X76073000Y-95250085D01*
X76327000Y-95250085D01*
X76327000Y-96393000D01*
X76347000Y-96393000D01*
X76347000Y-96647000D01*
X76327000Y-96647000D01*
X76327000Y-97789915D01*
X76549039Y-97911904D01*
X76683087Y-97871246D01*
X76937420Y-97751037D01*
X77163414Y-97583519D01*
X77352385Y-97375131D01*
X77463933Y-97189135D01*
X77468320Y-97199727D01*
X77625363Y-97434759D01*
X77825241Y-97634637D01*
X78060273Y-97791680D01*
X78321426Y-97899853D01*
X78598665Y-97955000D01*
X78881335Y-97955000D01*
X79158574Y-97899853D01*
X79419727Y-97791680D01*
X79654759Y-97634637D01*
X79854637Y-97434759D01*
X80011680Y-97199727D01*
X80016067Y-97189135D01*
X80127615Y-97375131D01*
X80316586Y-97583519D01*
X80542580Y-97751037D01*
X80796913Y-97871246D01*
X80930961Y-97911904D01*
X81153000Y-97789915D01*
X81153000Y-96647000D01*
X81133000Y-96647000D01*
X81133000Y-96393000D01*
X81153000Y-96393000D01*
X81153000Y-95250085D01*
X80930961Y-95128096D01*
X80796913Y-95168754D01*
X80542580Y-95288963D01*
X80316586Y-95456481D01*
X80127615Y-95664869D01*
X80016067Y-95850865D01*
X80011680Y-95840273D01*
X79854637Y-95605241D01*
X79654759Y-95405363D01*
X79419727Y-95248320D01*
X79158574Y-95140147D01*
X78881335Y-95085000D01*
X78598665Y-95085000D01*
X78321426Y-95140147D01*
X78060273Y-95248320D01*
X77825241Y-95405363D01*
X77625363Y-95605241D01*
X77468320Y-95840273D01*
X77463933Y-95850865D01*
X77352385Y-95664869D01*
X77163414Y-95456481D01*
X76937420Y-95288963D01*
X76683087Y-95168754D01*
X76549039Y-95128096D01*
X76327000Y-95250085D01*
X76073000Y-95250085D01*
X75850961Y-95128096D01*
X75716913Y-95168754D01*
X75462580Y-95288963D01*
X75236586Y-95456481D01*
X75047615Y-95664869D01*
X74902930Y-95906119D01*
X74808091Y-96170960D01*
X73115762Y-96170960D01*
X72953804Y-96009003D01*
X72930001Y-95979999D01*
X72814276Y-95885026D01*
X72682247Y-95814454D01*
X72538986Y-95770997D01*
X72427333Y-95760000D01*
X72427322Y-95760000D01*
X72390000Y-95756324D01*
X72352678Y-95760000D01*
X72338043Y-95760000D01*
X72234637Y-95605241D01*
X72034759Y-95405363D01*
X71802241Y-95250000D01*
X72034759Y-95094637D01*
X72234637Y-94894759D01*
X72391680Y-94659727D01*
X72499853Y-94398574D01*
X72511961Y-94337702D01*
X79196903Y-94337702D01*
X79268486Y-94581671D01*
X79523996Y-94702571D01*
X79798184Y-94771300D01*
X80080512Y-94785217D01*
X80360130Y-94743787D01*
X80626292Y-94648603D01*
X80751514Y-94581671D01*
X80823097Y-94337702D01*
X80010000Y-93524605D01*
X79196903Y-94337702D01*
X72511961Y-94337702D01*
X72555000Y-94121335D01*
X72555000Y-93838665D01*
X72499853Y-93561426D01*
X72439414Y-93415512D01*
X78569783Y-93415512D01*
X78611213Y-93695130D01*
X78706397Y-93961292D01*
X78773329Y-94086514D01*
X79017298Y-94158097D01*
X79830395Y-93345000D01*
X80189605Y-93345000D01*
X81002702Y-94158097D01*
X81246671Y-94086514D01*
X81367571Y-93831004D01*
X81436300Y-93556816D01*
X81450217Y-93274488D01*
X81408787Y-92994870D01*
X81313603Y-92728708D01*
X81246671Y-92603486D01*
X81002702Y-92531903D01*
X80189605Y-93345000D01*
X79830395Y-93345000D01*
X79017298Y-92531903D01*
X78773329Y-92603486D01*
X78652429Y-92858996D01*
X78583700Y-93133184D01*
X78569783Y-93415512D01*
X72439414Y-93415512D01*
X72391680Y-93300273D01*
X72234637Y-93065241D01*
X72034759Y-92865363D01*
X71802241Y-92710000D01*
X72034759Y-92554637D01*
X72234637Y-92354759D01*
X72236281Y-92352298D01*
X79196903Y-92352298D01*
X80010000Y-93165395D01*
X80823097Y-92352298D01*
X80751514Y-92108329D01*
X80496004Y-91987429D01*
X80221816Y-91918700D01*
X79939488Y-91904783D01*
X79659870Y-91946213D01*
X79393708Y-92041397D01*
X79268486Y-92108329D01*
X79196903Y-92352298D01*
X72236281Y-92352298D01*
X72391680Y-92119727D01*
X72499853Y-91858574D01*
X72555000Y-91581335D01*
X72555000Y-91298665D01*
X72499853Y-91021426D01*
X72461983Y-90930000D01*
X73345199Y-90930000D01*
X73731200Y-91316002D01*
X73754999Y-91345001D01*
X73870724Y-91439974D01*
X74002753Y-91510546D01*
X74146014Y-91554003D01*
X74295000Y-91568677D01*
X74332333Y-91565000D01*
X84140199Y-91565000D01*
X84555307Y-91980108D01*
X84330273Y-92073320D01*
X84095241Y-92230363D01*
X83895363Y-92430241D01*
X83738320Y-92665273D01*
X83630147Y-92926426D01*
X83575000Y-93203665D01*
X83575000Y-93486335D01*
X83611312Y-93668886D01*
X83308998Y-93971201D01*
X83280000Y-93994999D01*
X83256202Y-94023997D01*
X83256201Y-94023998D01*
X83185026Y-94110724D01*
X83114454Y-94242754D01*
X83105508Y-94272247D01*
X83070998Y-94386014D01*
X83069199Y-94404276D01*
X83056324Y-94535000D01*
X83060001Y-94572332D01*
X83060001Y-95301956D01*
X82905241Y-95405363D01*
X82705363Y-95605241D01*
X82548320Y-95840273D01*
X82543933Y-95850865D01*
X82432385Y-95664869D01*
X82243414Y-95456481D01*
X82017420Y-95288963D01*
X81763087Y-95168754D01*
X81629039Y-95128096D01*
X81407000Y-95250085D01*
X81407000Y-96393000D01*
X81427000Y-96393000D01*
X81427000Y-96647000D01*
X81407000Y-96647000D01*
X81407000Y-97789915D01*
X81629039Y-97911904D01*
X81763087Y-97871246D01*
X82017420Y-97751037D01*
X82243414Y-97583519D01*
X82432385Y-97375131D01*
X82543933Y-97189135D01*
X82548320Y-97199727D01*
X82705363Y-97434759D01*
X82905241Y-97634637D01*
X83140273Y-97791680D01*
X83401426Y-97899853D01*
X83678665Y-97955000D01*
X83961335Y-97955000D01*
X84238574Y-97899853D01*
X84499727Y-97791680D01*
X84734759Y-97634637D01*
X84934637Y-97434759D01*
X85090000Y-97202241D01*
X85245363Y-97434759D01*
X85445241Y-97634637D01*
X85680273Y-97791680D01*
X85941426Y-97899853D01*
X86218665Y-97955000D01*
X86501335Y-97955000D01*
X86778574Y-97899853D01*
X87039727Y-97791680D01*
X87274759Y-97634637D01*
X87474637Y-97434759D01*
X87630000Y-97202241D01*
X87785363Y-97434759D01*
X87985241Y-97634637D01*
X88140001Y-97738044D01*
X88140001Y-97752668D01*
X88136324Y-97790000D01*
X88140001Y-97827333D01*
X88150998Y-97938986D01*
X88163395Y-97979853D01*
X88194454Y-98082246D01*
X88265026Y-98214276D01*
X88322296Y-98284059D01*
X88360000Y-98330001D01*
X88388998Y-98353799D01*
X93220000Y-103184802D01*
X93220001Y-106642668D01*
X93216324Y-106680000D01*
X93230998Y-106828985D01*
X93274454Y-106972246D01*
X93345026Y-107104276D01*
X93402296Y-107174059D01*
X93440000Y-107220001D01*
X93468998Y-107243799D01*
X95956205Y-109731008D01*
X95979999Y-109760001D01*
X96008992Y-109783795D01*
X96008996Y-109783799D01*
X96079685Y-109841811D01*
X96095724Y-109854974D01*
X96227753Y-109925546D01*
X96371014Y-109969003D01*
X96482667Y-109980000D01*
X96482676Y-109980000D01*
X96519999Y-109983676D01*
X96557322Y-109980000D01*
X118072678Y-109980000D01*
X118110000Y-109983676D01*
X118147322Y-109980000D01*
X118147333Y-109980000D01*
X118258986Y-109969003D01*
X118402247Y-109925546D01*
X118534276Y-109854974D01*
X118650001Y-109760001D01*
X118673804Y-109730997D01*
X121066005Y-107338797D01*
X121095002Y-107315000D01*
X121189975Y-107199275D01*
X121260547Y-107067246D01*
X121304004Y-106923985D01*
X121315001Y-106812332D01*
X121315001Y-106812331D01*
X121318678Y-106774999D01*
X121315001Y-106737666D01*
X121315001Y-104172633D01*
X121501426Y-104249853D01*
X121778665Y-104305000D01*
X122061335Y-104305000D01*
X122338574Y-104249853D01*
X122599727Y-104141680D01*
X122834759Y-103984637D01*
X123034637Y-103784759D01*
X123190000Y-103552241D01*
X123345363Y-103784759D01*
X123545241Y-103984637D01*
X123780273Y-104141680D01*
X124041426Y-104249853D01*
X124318665Y-104305000D01*
X124601335Y-104305000D01*
X124878574Y-104249853D01*
X125139727Y-104141680D01*
X125374759Y-103984637D01*
X125574637Y-103784759D01*
X125730000Y-103552241D01*
X125885363Y-103784759D01*
X126085241Y-103984637D01*
X126320273Y-104141680D01*
X126581426Y-104249853D01*
X126858665Y-104305000D01*
X127141335Y-104305000D01*
X127418574Y-104249853D01*
X127679727Y-104141680D01*
X127914759Y-103984637D01*
X128114637Y-103784759D01*
X128270000Y-103552241D01*
X128425363Y-103784759D01*
X128625241Y-103984637D01*
X128860273Y-104141680D01*
X129121426Y-104249853D01*
X129398665Y-104305000D01*
X129681335Y-104305000D01*
X129958574Y-104249853D01*
X130219727Y-104141680D01*
X130454759Y-103984637D01*
X130654637Y-103784759D01*
X130810000Y-103552241D01*
X130965363Y-103784759D01*
X131165241Y-103984637D01*
X131400273Y-104141680D01*
X131661426Y-104249853D01*
X131938665Y-104305000D01*
X132221335Y-104305000D01*
X132498574Y-104249853D01*
X132759727Y-104141680D01*
X132994759Y-103984637D01*
X133194637Y-103784759D01*
X133350000Y-103552241D01*
X133505363Y-103784759D01*
X133705241Y-103984637D01*
X133940273Y-104141680D01*
X134201426Y-104249853D01*
X134478665Y-104305000D01*
X134761335Y-104305000D01*
X135038574Y-104249853D01*
X135299727Y-104141680D01*
X135534759Y-103984637D01*
X135734637Y-103784759D01*
X135890000Y-103552241D01*
X136045363Y-103784759D01*
X136245241Y-103984637D01*
X136480273Y-104141680D01*
X136741426Y-104249853D01*
X137018665Y-104305000D01*
X137301335Y-104305000D01*
X137578574Y-104249853D01*
X137839727Y-104141680D01*
X138074759Y-103984637D01*
X138274637Y-103784759D01*
X138430000Y-103552241D01*
X138585363Y-103784759D01*
X138785241Y-103984637D01*
X139020273Y-104141680D01*
X139281426Y-104249853D01*
X139558665Y-104305000D01*
X139841335Y-104305000D01*
X140118574Y-104249853D01*
X140379727Y-104141680D01*
X140614759Y-103984637D01*
X140814637Y-103784759D01*
X140971680Y-103549727D01*
X141079853Y-103288574D01*
X141135000Y-103011335D01*
X141135000Y-102728665D01*
X141079853Y-102451426D01*
X140971680Y-102190273D01*
X140814637Y-101955241D01*
X140614759Y-101755363D01*
X140379727Y-101598320D01*
X140118574Y-101490147D01*
X139841335Y-101435000D01*
X139558665Y-101435000D01*
X139281426Y-101490147D01*
X139020273Y-101598320D01*
X138785241Y-101755363D01*
X138585363Y-101955241D01*
X138430000Y-102187759D01*
X138274637Y-101955241D01*
X138074759Y-101755363D01*
X137839727Y-101598320D01*
X137578574Y-101490147D01*
X137301335Y-101435000D01*
X137018665Y-101435000D01*
X136741426Y-101490147D01*
X136480273Y-101598320D01*
X136245241Y-101755363D01*
X136045363Y-101955241D01*
X135890000Y-102187759D01*
X135734637Y-101955241D01*
X135534759Y-101755363D01*
X135299727Y-101598320D01*
X135038574Y-101490147D01*
X134761335Y-101435000D01*
X134478665Y-101435000D01*
X134201426Y-101490147D01*
X133940273Y-101598320D01*
X133705241Y-101755363D01*
X133505363Y-101955241D01*
X133350000Y-102187759D01*
X133194637Y-101955241D01*
X132994759Y-101755363D01*
X132759727Y-101598320D01*
X132498574Y-101490147D01*
X132221335Y-101435000D01*
X131938665Y-101435000D01*
X131661426Y-101490147D01*
X131400273Y-101598320D01*
X131165241Y-101755363D01*
X130965363Y-101955241D01*
X130810000Y-102187759D01*
X130654637Y-101955241D01*
X130454759Y-101755363D01*
X130219727Y-101598320D01*
X129958574Y-101490147D01*
X129681335Y-101435000D01*
X129398665Y-101435000D01*
X129121426Y-101490147D01*
X128860273Y-101598320D01*
X128625241Y-101755363D01*
X128425363Y-101955241D01*
X128270000Y-102187759D01*
X128114637Y-101955241D01*
X127914759Y-101755363D01*
X127679727Y-101598320D01*
X127418574Y-101490147D01*
X127141335Y-101435000D01*
X126858665Y-101435000D01*
X126581426Y-101490147D01*
X126320273Y-101598320D01*
X126085241Y-101755363D01*
X125885363Y-101955241D01*
X125730000Y-102187759D01*
X125574637Y-101955241D01*
X125374759Y-101755363D01*
X125139727Y-101598320D01*
X124878574Y-101490147D01*
X124601335Y-101435000D01*
X124318665Y-101435000D01*
X124041426Y-101490147D01*
X123780273Y-101598320D01*
X123545241Y-101755363D01*
X123345363Y-101955241D01*
X123190000Y-102187759D01*
X123034637Y-101955241D01*
X122834759Y-101755363D01*
X122599727Y-101598320D01*
X122338574Y-101490147D01*
X122061335Y-101435000D01*
X121778665Y-101435000D01*
X121501426Y-101490147D01*
X121315001Y-101567367D01*
X121315001Y-99192332D01*
X121318678Y-99154999D01*
X121304004Y-99006013D01*
X121260547Y-98862752D01*
X121189975Y-98730723D01*
X121118800Y-98643996D01*
X121095002Y-98614998D01*
X121066004Y-98591200D01*
X119140221Y-96665418D01*
X119238665Y-96685000D01*
X119521335Y-96685000D01*
X119798574Y-96629853D01*
X120059727Y-96521680D01*
X120294759Y-96364637D01*
X120494637Y-96164759D01*
X120650000Y-95932241D01*
X120805363Y-96164759D01*
X121005241Y-96364637D01*
X121240273Y-96521680D01*
X121501426Y-96629853D01*
X121778665Y-96685000D01*
X122061335Y-96685000D01*
X122338574Y-96629853D01*
X122599727Y-96521680D01*
X122834759Y-96364637D01*
X123034637Y-96164759D01*
X123190000Y-95932241D01*
X123345363Y-96164759D01*
X123545241Y-96364637D01*
X123780273Y-96521680D01*
X124041426Y-96629853D01*
X124318665Y-96685000D01*
X124601335Y-96685000D01*
X124878574Y-96629853D01*
X125139727Y-96521680D01*
X125374759Y-96364637D01*
X125574637Y-96164759D01*
X125730000Y-95932241D01*
X125885363Y-96164759D01*
X126085241Y-96364637D01*
X126320273Y-96521680D01*
X126581426Y-96629853D01*
X126858665Y-96685000D01*
X127141335Y-96685000D01*
X127418574Y-96629853D01*
X127679727Y-96521680D01*
X127914759Y-96364637D01*
X128114637Y-96164759D01*
X128270000Y-95932241D01*
X128425363Y-96164759D01*
X128625241Y-96364637D01*
X128860273Y-96521680D01*
X129121426Y-96629853D01*
X129398665Y-96685000D01*
X129681335Y-96685000D01*
X129958574Y-96629853D01*
X130219727Y-96521680D01*
X130454759Y-96364637D01*
X130654637Y-96164759D01*
X130810000Y-95932241D01*
X130965363Y-96164759D01*
X131165241Y-96364637D01*
X131400273Y-96521680D01*
X131661426Y-96629853D01*
X131938665Y-96685000D01*
X132221335Y-96685000D01*
X132498574Y-96629853D01*
X132593280Y-96590625D01*
X132600245Y-96661335D01*
X132600998Y-96668985D01*
X132644454Y-96812246D01*
X132715026Y-96944276D01*
X132782362Y-97026324D01*
X132810000Y-97060001D01*
X132838998Y-97083799D01*
X134056200Y-98301002D01*
X134079999Y-98330001D01*
X134195724Y-98424974D01*
X134327753Y-98495546D01*
X134471014Y-98539003D01*
X134582667Y-98550000D01*
X134582676Y-98550000D01*
X134619999Y-98553676D01*
X134657322Y-98550000D01*
X139027678Y-98550000D01*
X139065000Y-98553676D01*
X139102322Y-98550000D01*
X139102333Y-98550000D01*
X139213986Y-98539003D01*
X139357247Y-98495546D01*
X139489276Y-98424974D01*
X139605001Y-98330001D01*
X139628803Y-98300998D01*
X140211004Y-97718798D01*
X140240001Y-97695001D01*
X140334974Y-97579276D01*
X140405546Y-97447247D01*
X140449003Y-97303986D01*
X140460000Y-97192333D01*
X140460000Y-97192332D01*
X140463677Y-97155000D01*
X140460000Y-97117667D01*
X140460000Y-96468043D01*
X140614759Y-96364637D01*
X140814637Y-96164759D01*
X140971680Y-95929727D01*
X141079853Y-95668574D01*
X141135000Y-95391335D01*
X141135000Y-95108665D01*
X141079853Y-94831426D01*
X140971680Y-94570273D01*
X140814637Y-94335241D01*
X140614759Y-94135363D01*
X140379727Y-93978320D01*
X140118574Y-93870147D01*
X139841335Y-93815000D01*
X139558665Y-93815000D01*
X139281426Y-93870147D01*
X139020273Y-93978320D01*
X138785241Y-94135363D01*
X138585363Y-94335241D01*
X138430000Y-94567759D01*
X138274637Y-94335241D01*
X138074759Y-94135363D01*
X137839727Y-93978320D01*
X137578574Y-93870147D01*
X137301335Y-93815000D01*
X137018665Y-93815000D01*
X136741426Y-93870147D01*
X136480273Y-93978320D01*
X136245241Y-94135363D01*
X136045363Y-94335241D01*
X135890000Y-94567759D01*
X135734637Y-94335241D01*
X135534759Y-94135363D01*
X135299727Y-93978320D01*
X135038574Y-93870147D01*
X134761335Y-93815000D01*
X134478665Y-93815000D01*
X134201426Y-93870147D01*
X134110000Y-93908017D01*
X134110000Y-74332322D01*
X134113676Y-74294999D01*
X134110000Y-74257676D01*
X134110000Y-74257667D01*
X134099003Y-74146014D01*
X134055546Y-74002753D01*
X133984975Y-73870725D01*
X133984974Y-73870723D01*
X133913799Y-73783997D01*
X133890001Y-73754999D01*
X133861004Y-73731202D01*
X130738804Y-70609003D01*
X130715001Y-70579999D01*
X130599276Y-70485026D01*
X130467247Y-70414454D01*
X130323986Y-70370997D01*
X130212333Y-70360000D01*
X130212322Y-70360000D01*
X130175000Y-70356324D01*
X130137678Y-70360000D01*
X129611983Y-70360000D01*
X129649853Y-70268574D01*
X129705000Y-69991335D01*
X129705000Y-69708665D01*
X129649853Y-69431426D01*
X129541680Y-69170273D01*
X129384637Y-68935241D01*
X129184759Y-68735363D01*
X128952241Y-68580000D01*
X129184759Y-68424637D01*
X129384637Y-68224759D01*
X129541680Y-67989727D01*
X129649853Y-67728574D01*
X129705000Y-67451335D01*
X129705000Y-67168665D01*
X129649853Y-66891426D01*
X129541680Y-66630273D01*
X129384637Y-66395241D01*
X129184759Y-66195363D01*
X128952241Y-66040000D01*
X129184759Y-65884637D01*
X129384637Y-65684759D01*
X129541680Y-65449727D01*
X129649853Y-65188574D01*
X129705000Y-64911335D01*
X129705000Y-64628665D01*
X129649853Y-64351426D01*
X129541680Y-64090273D01*
X129384637Y-63855241D01*
X129184759Y-63655363D01*
X128949727Y-63498320D01*
X128688574Y-63390147D01*
X128411335Y-63335000D01*
X128128665Y-63335000D01*
X127851426Y-63390147D01*
X127590273Y-63498320D01*
X127355241Y-63655363D01*
X127155363Y-63855241D01*
X126998320Y-64090273D01*
X126890147Y-64351426D01*
X126835000Y-64628665D01*
X126835000Y-64911335D01*
X126890147Y-65188574D01*
X126998320Y-65449727D01*
X127155363Y-65684759D01*
X127355241Y-65884637D01*
X127587759Y-66040000D01*
X127355241Y-66195363D01*
X127155363Y-66395241D01*
X126998320Y-66630273D01*
X126890147Y-66891426D01*
X126835000Y-67168665D01*
X126835000Y-67451335D01*
X126890147Y-67728574D01*
X126998320Y-67989727D01*
X127155363Y-68224759D01*
X127355241Y-68424637D01*
X127587759Y-68580000D01*
X127355241Y-68735363D01*
X127155363Y-68935241D01*
X126998320Y-69170273D01*
X126890147Y-69431426D01*
X126835000Y-69708665D01*
X126835000Y-69991335D01*
X126890147Y-70268574D01*
X126928017Y-70360000D01*
X126044802Y-70360000D01*
X125220000Y-69535199D01*
X125220000Y-66077322D01*
X125223676Y-66039999D01*
X125220000Y-66002676D01*
X125220000Y-66002667D01*
X125209003Y-65891014D01*
X125165546Y-65747753D01*
X125094974Y-65615724D01*
X125000001Y-65499999D01*
X124971004Y-65476202D01*
X123753804Y-64259003D01*
X123730001Y-64229999D01*
X123614276Y-64135026D01*
X123482247Y-64064454D01*
X123338986Y-64020997D01*
X123227333Y-64010000D01*
X123227322Y-64010000D01*
X123190000Y-64006324D01*
X123152678Y-64010000D01*
X121868043Y-64010000D01*
X121764637Y-63855241D01*
X121564759Y-63655363D01*
X121329727Y-63498320D01*
X121068574Y-63390147D01*
X120791335Y-63335000D01*
X120508665Y-63335000D01*
X120231426Y-63390147D01*
X119970273Y-63498320D01*
X119735241Y-63655363D01*
X119535363Y-63855241D01*
X119378320Y-64090273D01*
X119270147Y-64351426D01*
X119215000Y-64628665D01*
X119215000Y-64911335D01*
X119270147Y-65188574D01*
X119378320Y-65449727D01*
X119535363Y-65684759D01*
X119735241Y-65884637D01*
X119967759Y-66040000D01*
X119735241Y-66195363D01*
X119535363Y-66395241D01*
X119378320Y-66630273D01*
X119270147Y-66891426D01*
X119215000Y-67168665D01*
X119215000Y-67451335D01*
X119270147Y-67728574D01*
X119378320Y-67989727D01*
X119535363Y-68224759D01*
X119735241Y-68424637D01*
X119967759Y-68580000D01*
X119735241Y-68735363D01*
X119535363Y-68935241D01*
X119378320Y-69170273D01*
X119270147Y-69431426D01*
X119215000Y-69708665D01*
X119215000Y-69880199D01*
X118870000Y-69535199D01*
X118870000Y-59548665D01*
X120565000Y-59548665D01*
X120565000Y-59831335D01*
X120620147Y-60108574D01*
X120728320Y-60369727D01*
X120885363Y-60604759D01*
X121085241Y-60804637D01*
X121320273Y-60961680D01*
X121581426Y-61069853D01*
X121858665Y-61125000D01*
X122141335Y-61125000D01*
X122418574Y-61069853D01*
X122679727Y-60961680D01*
X122914759Y-60804637D01*
X123036694Y-60682702D01*
X126186903Y-60682702D01*
X126258486Y-60926671D01*
X126513996Y-61047571D01*
X126788184Y-61116300D01*
X127070512Y-61130217D01*
X127350130Y-61088787D01*
X127616292Y-60993603D01*
X127741514Y-60926671D01*
X127813097Y-60682702D01*
X127000000Y-59869605D01*
X126186903Y-60682702D01*
X123036694Y-60682702D01*
X123114637Y-60604759D01*
X123271680Y-60369727D01*
X123379853Y-60108574D01*
X123435000Y-59831335D01*
X123435000Y-59760512D01*
X125559783Y-59760512D01*
X125601213Y-60040130D01*
X125696397Y-60306292D01*
X125763329Y-60431514D01*
X126007298Y-60503097D01*
X126820395Y-59690000D01*
X127179605Y-59690000D01*
X127992702Y-60503097D01*
X128236671Y-60431514D01*
X128357571Y-60176004D01*
X128426300Y-59901816D01*
X128440217Y-59619488D01*
X128398787Y-59339870D01*
X128303603Y-59073708D01*
X128236671Y-58948486D01*
X127992702Y-58876903D01*
X127179605Y-59690000D01*
X126820395Y-59690000D01*
X126007298Y-58876903D01*
X125763329Y-58948486D01*
X125642429Y-59203996D01*
X125573700Y-59478184D01*
X125559783Y-59760512D01*
X123435000Y-59760512D01*
X123435000Y-59548665D01*
X123379853Y-59271426D01*
X123271680Y-59010273D01*
X123114637Y-58775241D01*
X123036694Y-58697298D01*
X126186903Y-58697298D01*
X127000000Y-59510395D01*
X127813097Y-58697298D01*
X127741514Y-58453329D01*
X127486004Y-58332429D01*
X127211816Y-58263700D01*
X126929488Y-58249783D01*
X126649870Y-58291213D01*
X126383708Y-58386397D01*
X126258486Y-58453329D01*
X126186903Y-58697298D01*
X123036694Y-58697298D01*
X122914759Y-58575363D01*
X122679727Y-58418320D01*
X122418574Y-58310147D01*
X122141335Y-58255000D01*
X121858665Y-58255000D01*
X121581426Y-58310147D01*
X121320273Y-58418320D01*
X121085241Y-58575363D01*
X120885363Y-58775241D01*
X120728320Y-59010273D01*
X120620147Y-59271426D01*
X120565000Y-59548665D01*
X118870000Y-59548665D01*
X118870000Y-57187322D01*
X118873676Y-57149999D01*
X118870000Y-57112676D01*
X118870000Y-57112667D01*
X118859003Y-57001014D01*
X118815546Y-56857753D01*
X118744974Y-56725724D01*
X118650001Y-56609999D01*
X118621003Y-56586201D01*
X117403804Y-55369003D01*
X117380001Y-55339999D01*
X117264276Y-55245026D01*
X117132247Y-55174454D01*
X116988986Y-55130997D01*
X116877333Y-55120000D01*
X116877322Y-55120000D01*
X116840000Y-55116324D01*
X116802678Y-55120000D01*
X104177322Y-55120000D01*
X104139999Y-55116324D01*
X104102676Y-55120000D01*
X104102667Y-55120000D01*
X103991014Y-55130997D01*
X103847753Y-55174454D01*
X103715724Y-55245026D01*
X103599999Y-55339999D01*
X103576201Y-55368997D01*
X102359003Y-56586196D01*
X102329999Y-56609999D01*
X102285694Y-56663985D01*
X102235026Y-56725724D01*
X102230127Y-56734890D01*
X102068899Y-56821068D01*
X101850392Y-57000393D01*
X101671068Y-57218900D01*
X101600000Y-57351858D01*
X101528932Y-57218899D01*
X101349607Y-57000392D01*
X101131100Y-56821068D01*
X100969874Y-56734891D01*
X100964974Y-56725724D01*
X100870001Y-56609999D01*
X100841003Y-56586201D01*
X98988804Y-54734003D01*
X98965001Y-54704999D01*
X98849276Y-54610026D01*
X98717247Y-54539454D01*
X98573986Y-54495997D01*
X98462333Y-54485000D01*
X98462322Y-54485000D01*
X98425000Y-54481324D01*
X98387678Y-54485000D01*
X66712322Y-54485000D01*
X66674999Y-54481324D01*
X66637676Y-54485000D01*
X66637667Y-54485000D01*
X66526014Y-54495997D01*
X66382753Y-54539454D01*
X66250724Y-54610026D01*
X66134999Y-54704999D01*
X66111201Y-54733997D01*
X65064026Y-55781173D01*
X65064016Y-55781181D01*
X62989002Y-57856196D01*
X62959999Y-57879999D01*
X62904871Y-57947174D01*
X62865026Y-57995724D01*
X62794455Y-58127753D01*
X62794454Y-58127754D01*
X62750997Y-58271015D01*
X62740000Y-58382668D01*
X62740000Y-58382678D01*
X62736324Y-58420000D01*
X62740000Y-58457323D01*
X62740000Y-59521928D01*
X62700000Y-59521928D01*
X62575518Y-59534188D01*
X62455820Y-59570498D01*
X62345506Y-59629463D01*
X62248815Y-59708815D01*
X62169463Y-59805506D01*
X62110498Y-59915820D01*
X62074188Y-60035518D01*
X62061928Y-60160000D01*
X60375000Y-60160000D01*
X60375000Y-54025000D01*
X141555000Y-54025000D01*
X141555001Y-111075000D01*
G37*
G04 #@! TD.AperFunction*
D19*
X117350001Y-57464803D02*
X117350000Y-69812678D01*
X117346324Y-69850000D01*
X117350000Y-69887322D01*
X117350000Y-69887332D01*
X117360997Y-69998985D01*
X117400740Y-70130001D01*
X117404454Y-70142246D01*
X117475026Y-70274276D01*
X117514871Y-70322826D01*
X117569999Y-70390001D01*
X117599003Y-70413804D01*
X119251312Y-72066114D01*
X119215000Y-72248665D01*
X119215000Y-72531335D01*
X119270147Y-72808574D01*
X119378320Y-73069727D01*
X119535363Y-73304759D01*
X119735241Y-73504637D01*
X119967759Y-73660000D01*
X119735241Y-73815363D01*
X119535363Y-74015241D01*
X119378320Y-74250273D01*
X119270147Y-74511426D01*
X119215000Y-74788665D01*
X119215000Y-75071335D01*
X119270147Y-75348574D01*
X119378320Y-75609727D01*
X119535363Y-75844759D01*
X119735241Y-76044637D01*
X119967759Y-76200000D01*
X119735241Y-76355363D01*
X119535363Y-76555241D01*
X119378320Y-76790273D01*
X119270147Y-77051426D01*
X119215000Y-77328665D01*
X119215000Y-77611335D01*
X119270147Y-77888574D01*
X119378320Y-78149727D01*
X119535363Y-78384759D01*
X119735241Y-78584637D01*
X119967759Y-78740000D01*
X119735241Y-78895363D01*
X119535363Y-79095241D01*
X119378320Y-79330273D01*
X119270147Y-79591426D01*
X119215000Y-79868665D01*
X119215000Y-80151335D01*
X119270147Y-80428574D01*
X119308017Y-80520000D01*
X111797322Y-80520000D01*
X111759999Y-80516324D01*
X111722676Y-80520000D01*
X111722667Y-80520000D01*
X111611014Y-80530997D01*
X111467753Y-80574454D01*
X111335724Y-80645026D01*
X111219999Y-80739999D01*
X111196201Y-80768997D01*
X109979003Y-81986196D01*
X109949999Y-82009999D01*
X109912296Y-82055941D01*
X109855026Y-82125724D01*
X109810147Y-82209687D01*
X109784454Y-82257754D01*
X109740997Y-82401015D01*
X109730000Y-82512668D01*
X109730000Y-82512678D01*
X109726324Y-82550000D01*
X109730000Y-82587323D01*
X109730000Y-83811821D01*
X109543368Y-83936525D01*
X109411513Y-84068380D01*
X109389502Y-83995820D01*
X109330537Y-83885506D01*
X109251185Y-83788815D01*
X109154494Y-83709463D01*
X109044180Y-83650498D01*
X108924482Y-83614188D01*
X108800000Y-83601928D01*
X107100000Y-83601928D01*
X106975518Y-83614188D01*
X106855820Y-83650498D01*
X106745506Y-83709463D01*
X106648815Y-83788815D01*
X106569463Y-83885506D01*
X106510498Y-83995820D01*
X106474188Y-84115518D01*
X106461928Y-84240000D01*
X106461928Y-85940000D01*
X106474188Y-86064482D01*
X106510498Y-86184180D01*
X106569463Y-86294494D01*
X106648815Y-86391185D01*
X106745506Y-86470537D01*
X106855820Y-86529502D01*
X106975518Y-86565812D01*
X107100000Y-86578072D01*
X108800000Y-86578072D01*
X108924482Y-86565812D01*
X109044180Y-86529502D01*
X109154494Y-86470537D01*
X109251185Y-86391185D01*
X109330537Y-86294494D01*
X109389502Y-86184180D01*
X109411513Y-86111620D01*
X109543368Y-86243475D01*
X109786589Y-86405990D01*
X110056842Y-86517932D01*
X110343740Y-86575000D01*
X110636260Y-86575000D01*
X110923158Y-86517932D01*
X111193411Y-86405990D01*
X111436632Y-86243475D01*
X111643475Y-86036632D01*
X111760000Y-85862240D01*
X111876525Y-86036632D01*
X112083368Y-86243475D01*
X112270000Y-86368179D01*
X112270000Y-87592677D01*
X112266324Y-87630000D01*
X112270000Y-87667322D01*
X112270000Y-87667332D01*
X112280997Y-87778985D01*
X112305577Y-87860015D01*
X112324454Y-87922246D01*
X112395026Y-88054276D01*
X112408516Y-88070713D01*
X112489999Y-88170001D01*
X112519003Y-88193804D01*
X115693997Y-91368799D01*
X115694002Y-91368803D01*
X117350001Y-93024803D01*
X117350001Y-93908017D01*
X117258574Y-93870147D01*
X116981335Y-93815000D01*
X116698665Y-93815000D01*
X116421426Y-93870147D01*
X116160273Y-93978320D01*
X115925241Y-94135363D01*
X115725363Y-94335241D01*
X115570000Y-94567759D01*
X115414637Y-94335241D01*
X115214759Y-94135363D01*
X114979727Y-93978320D01*
X114718574Y-93870147D01*
X114441335Y-93815000D01*
X114158665Y-93815000D01*
X113881426Y-93870147D01*
X113620273Y-93978320D01*
X113385241Y-94135363D01*
X113185363Y-94335241D01*
X113030000Y-94567759D01*
X112874637Y-94335241D01*
X112674759Y-94135363D01*
X112439727Y-93978320D01*
X112178574Y-93870147D01*
X111901335Y-93815000D01*
X111618665Y-93815000D01*
X111341426Y-93870147D01*
X111080273Y-93978320D01*
X110845241Y-94135363D01*
X110645363Y-94335241D01*
X110490000Y-94567759D01*
X110334637Y-94335241D01*
X110134759Y-94135363D01*
X109899727Y-93978320D01*
X109638574Y-93870147D01*
X109361335Y-93815000D01*
X109078665Y-93815000D01*
X108801426Y-93870147D01*
X108540273Y-93978320D01*
X108305241Y-94135363D01*
X108105363Y-94335241D01*
X107948320Y-94570273D01*
X107943933Y-94580865D01*
X107832385Y-94394869D01*
X107643414Y-94186481D01*
X107417420Y-94018963D01*
X107163087Y-93898754D01*
X107029039Y-93858096D01*
X106807000Y-93980085D01*
X106807000Y-95123000D01*
X106827000Y-95123000D01*
X106827000Y-95377000D01*
X106807000Y-95377000D01*
X106807000Y-96519915D01*
X107029039Y-96641904D01*
X107163087Y-96601246D01*
X107417420Y-96481037D01*
X107643414Y-96313519D01*
X107832385Y-96105131D01*
X107943933Y-95919135D01*
X107948320Y-95929727D01*
X108105363Y-96164759D01*
X108305241Y-96364637D01*
X108540273Y-96521680D01*
X108801426Y-96629853D01*
X109078665Y-96685000D01*
X109361335Y-96685000D01*
X109638574Y-96629853D01*
X109899727Y-96521680D01*
X110134759Y-96364637D01*
X110334637Y-96164759D01*
X110490000Y-95932241D01*
X110645363Y-96164759D01*
X110845241Y-96364637D01*
X111080273Y-96521680D01*
X111341426Y-96629853D01*
X111618665Y-96685000D01*
X111901335Y-96685000D01*
X112178574Y-96629853D01*
X112439727Y-96521680D01*
X112674759Y-96364637D01*
X112874637Y-96164759D01*
X113030000Y-95932241D01*
X113185363Y-96164759D01*
X113385241Y-96364637D01*
X113415001Y-96384522D01*
X113415000Y-97423421D01*
X112663422Y-98175000D01*
X110533465Y-98175000D01*
X110489999Y-98170719D01*
X110446533Y-98175000D01*
X110446523Y-98175000D01*
X110316510Y-98187805D01*
X110149687Y-98238411D01*
X109995941Y-98320589D01*
X109995939Y-98320590D01*
X109995940Y-98320590D01*
X109894953Y-98403468D01*
X109894951Y-98403470D01*
X109861183Y-98431183D01*
X109833470Y-98464951D01*
X108624951Y-99673471D01*
X108591184Y-99701183D01*
X108563471Y-99734951D01*
X108563468Y-99734954D01*
X108480590Y-99835941D01*
X108398412Y-99989687D01*
X108347805Y-100156510D01*
X108330719Y-100330000D01*
X108335001Y-100373479D01*
X108335000Y-101735478D01*
X108305241Y-101755363D01*
X108106643Y-101953961D01*
X108105812Y-101945518D01*
X108069502Y-101825820D01*
X108010537Y-101715506D01*
X107931185Y-101618815D01*
X107834494Y-101539463D01*
X107724180Y-101480498D01*
X107604482Y-101444188D01*
X107480000Y-101431928D01*
X105880000Y-101431928D01*
X105755518Y-101444188D01*
X105635820Y-101480498D01*
X105525506Y-101539463D01*
X105428815Y-101618815D01*
X105349463Y-101715506D01*
X105290498Y-101825820D01*
X105254188Y-101945518D01*
X105241928Y-102070000D01*
X105241928Y-103380000D01*
X100644802Y-103380000D01*
X99857504Y-102592702D01*
X100786903Y-102592702D01*
X100858486Y-102836671D01*
X101113996Y-102957571D01*
X101388184Y-103026300D01*
X101670512Y-103040217D01*
X101950130Y-102998787D01*
X102216292Y-102903603D01*
X102341514Y-102836671D01*
X102413097Y-102592702D01*
X101600000Y-101779605D01*
X100786903Y-102592702D01*
X99857504Y-102592702D01*
X99820000Y-102555199D01*
X99820000Y-101670512D01*
X100159783Y-101670512D01*
X100201213Y-101950130D01*
X100296397Y-102216292D01*
X100363329Y-102341514D01*
X100607298Y-102413097D01*
X101420395Y-101600000D01*
X101779605Y-101600000D01*
X102592702Y-102413097D01*
X102836671Y-102341514D01*
X102957571Y-102086004D01*
X103026300Y-101811816D01*
X103040217Y-101529488D01*
X102998787Y-101249870D01*
X102903603Y-100983708D01*
X102836671Y-100858486D01*
X102592702Y-100786903D01*
X101779605Y-101600000D01*
X101420395Y-101600000D01*
X100607298Y-100786903D01*
X100363329Y-100858486D01*
X100242429Y-101113996D01*
X100173700Y-101388184D01*
X100159783Y-101670512D01*
X99820000Y-101670512D01*
X99820000Y-100607298D01*
X100786903Y-100607298D01*
X101600000Y-101420395D01*
X102413097Y-100607298D01*
X102341514Y-100363329D01*
X102086004Y-100242429D01*
X101811816Y-100173700D01*
X101529488Y-100159783D01*
X101249870Y-100201213D01*
X100983708Y-100296397D01*
X100858486Y-100363329D01*
X100786903Y-100607298D01*
X99820000Y-100607298D01*
X99820000Y-86308043D01*
X99974759Y-86204637D01*
X100174637Y-86004759D01*
X100330000Y-85772241D01*
X100485363Y-86004759D01*
X100685241Y-86204637D01*
X100715001Y-86224522D01*
X100715000Y-95465479D01*
X100685241Y-95485363D01*
X100485363Y-95685241D01*
X100328320Y-95920273D01*
X100220147Y-96181426D01*
X100165000Y-96458665D01*
X100165000Y-96741335D01*
X100220147Y-97018574D01*
X100328320Y-97279727D01*
X100485363Y-97514759D01*
X100685241Y-97714637D01*
X100920273Y-97871680D01*
X101181426Y-97979853D01*
X101458665Y-98035000D01*
X101741335Y-98035000D01*
X102018574Y-97979853D01*
X102279727Y-97871680D01*
X102514759Y-97714637D01*
X102714637Y-97514759D01*
X102871680Y-97279727D01*
X102979853Y-97018574D01*
X103035000Y-96741335D01*
X103035000Y-96458665D01*
X102979853Y-96181426D01*
X102871680Y-95920273D01*
X102714637Y-95685241D01*
X102628436Y-95599040D01*
X105288091Y-95599040D01*
X105382930Y-95863881D01*
X105527615Y-96105131D01*
X105716586Y-96313519D01*
X105942580Y-96481037D01*
X106196913Y-96601246D01*
X106330961Y-96641904D01*
X106553000Y-96519915D01*
X106553000Y-95377000D01*
X105409376Y-95377000D01*
X105288091Y-95599040D01*
X102628436Y-95599040D01*
X102514759Y-95485363D01*
X102485000Y-95465479D01*
X102485000Y-94900960D01*
X105288091Y-94900960D01*
X105409376Y-95123000D01*
X106553000Y-95123000D01*
X106553000Y-93980085D01*
X106330961Y-93858096D01*
X106196913Y-93898754D01*
X105942580Y-94018963D01*
X105716586Y-94186481D01*
X105527615Y-94394869D01*
X105382930Y-94636119D01*
X105288091Y-94900960D01*
X102485000Y-94900960D01*
X102485000Y-86224521D01*
X102514759Y-86204637D01*
X102714637Y-86004759D01*
X102871680Y-85769727D01*
X102979853Y-85508574D01*
X103035000Y-85231335D01*
X103035000Y-84948665D01*
X102979853Y-84671426D01*
X102871680Y-84410273D01*
X102714637Y-84175241D01*
X102514759Y-83975363D01*
X102485000Y-83955479D01*
X102485000Y-82916578D01*
X104100049Y-81301530D01*
X104133817Y-81273817D01*
X104244411Y-81139059D01*
X104326589Y-80985313D01*
X104377195Y-80818490D01*
X104390000Y-80688477D01*
X104390000Y-80688469D01*
X104394281Y-80645000D01*
X104390000Y-80601531D01*
X104390000Y-77201578D01*
X113625049Y-67966530D01*
X113658817Y-67938817D01*
X113728232Y-67854236D01*
X113769410Y-67804060D01*
X113773711Y-67796014D01*
X113851589Y-67650313D01*
X113862977Y-67612772D01*
X114049608Y-67459608D01*
X114228932Y-67241101D01*
X114362182Y-66991808D01*
X114444236Y-66721309D01*
X114465000Y-66510491D01*
X114465000Y-65569508D01*
X114444236Y-65358691D01*
X114362182Y-65088192D01*
X114228932Y-64838899D01*
X114049607Y-64620392D01*
X113831100Y-64441068D01*
X113581807Y-64307818D01*
X113311308Y-64225764D01*
X113030000Y-64198057D01*
X112748691Y-64225764D01*
X112478192Y-64307818D01*
X112228899Y-64441068D01*
X112010392Y-64620393D01*
X111831068Y-64838900D01*
X111760000Y-64971858D01*
X111688932Y-64838899D01*
X111509607Y-64620392D01*
X111291100Y-64441068D01*
X111041807Y-64307818D01*
X110771308Y-64225764D01*
X110490000Y-64198057D01*
X110208691Y-64225764D01*
X109980000Y-64295136D01*
X109980000Y-63814801D01*
X113541004Y-60253798D01*
X113570001Y-60230001D01*
X113664974Y-60114276D01*
X113669873Y-60105110D01*
X113831101Y-60018932D01*
X114049608Y-59839608D01*
X114228932Y-59621101D01*
X114362182Y-59371808D01*
X114444236Y-59101309D01*
X114465000Y-58890491D01*
X114465000Y-57949508D01*
X114444236Y-57738691D01*
X114362182Y-57468192D01*
X114228932Y-57218899D01*
X114049607Y-57000392D01*
X113831100Y-56821068D01*
X113581807Y-56687818D01*
X113424170Y-56640000D01*
X116525199Y-56640000D01*
X117350001Y-57464803D01*
G04 #@! TA.AperFunction,Conductor*
D20*
G36*
X117350001Y-57464803D02*
G01*
X117350000Y-69812678D01*
X117346324Y-69850000D01*
X117350000Y-69887322D01*
X117350000Y-69887332D01*
X117360997Y-69998985D01*
X117400740Y-70130001D01*
X117404454Y-70142246D01*
X117475026Y-70274276D01*
X117514871Y-70322826D01*
X117569999Y-70390001D01*
X117599003Y-70413804D01*
X119251312Y-72066114D01*
X119215000Y-72248665D01*
X119215000Y-72531335D01*
X119270147Y-72808574D01*
X119378320Y-73069727D01*
X119535363Y-73304759D01*
X119735241Y-73504637D01*
X119967759Y-73660000D01*
X119735241Y-73815363D01*
X119535363Y-74015241D01*
X119378320Y-74250273D01*
X119270147Y-74511426D01*
X119215000Y-74788665D01*
X119215000Y-75071335D01*
X119270147Y-75348574D01*
X119378320Y-75609727D01*
X119535363Y-75844759D01*
X119735241Y-76044637D01*
X119967759Y-76200000D01*
X119735241Y-76355363D01*
X119535363Y-76555241D01*
X119378320Y-76790273D01*
X119270147Y-77051426D01*
X119215000Y-77328665D01*
X119215000Y-77611335D01*
X119270147Y-77888574D01*
X119378320Y-78149727D01*
X119535363Y-78384759D01*
X119735241Y-78584637D01*
X119967759Y-78740000D01*
X119735241Y-78895363D01*
X119535363Y-79095241D01*
X119378320Y-79330273D01*
X119270147Y-79591426D01*
X119215000Y-79868665D01*
X119215000Y-80151335D01*
X119270147Y-80428574D01*
X119308017Y-80520000D01*
X111797322Y-80520000D01*
X111759999Y-80516324D01*
X111722676Y-80520000D01*
X111722667Y-80520000D01*
X111611014Y-80530997D01*
X111467753Y-80574454D01*
X111335724Y-80645026D01*
X111219999Y-80739999D01*
X111196201Y-80768997D01*
X109979003Y-81986196D01*
X109949999Y-82009999D01*
X109912296Y-82055941D01*
X109855026Y-82125724D01*
X109810147Y-82209687D01*
X109784454Y-82257754D01*
X109740997Y-82401015D01*
X109730000Y-82512668D01*
X109730000Y-82512678D01*
X109726324Y-82550000D01*
X109730000Y-82587323D01*
X109730000Y-83811821D01*
X109543368Y-83936525D01*
X109411513Y-84068380D01*
X109389502Y-83995820D01*
X109330537Y-83885506D01*
X109251185Y-83788815D01*
X109154494Y-83709463D01*
X109044180Y-83650498D01*
X108924482Y-83614188D01*
X108800000Y-83601928D01*
X107100000Y-83601928D01*
X106975518Y-83614188D01*
X106855820Y-83650498D01*
X106745506Y-83709463D01*
X106648815Y-83788815D01*
X106569463Y-83885506D01*
X106510498Y-83995820D01*
X106474188Y-84115518D01*
X106461928Y-84240000D01*
X106461928Y-85940000D01*
X106474188Y-86064482D01*
X106510498Y-86184180D01*
X106569463Y-86294494D01*
X106648815Y-86391185D01*
X106745506Y-86470537D01*
X106855820Y-86529502D01*
X106975518Y-86565812D01*
X107100000Y-86578072D01*
X108800000Y-86578072D01*
X108924482Y-86565812D01*
X109044180Y-86529502D01*
X109154494Y-86470537D01*
X109251185Y-86391185D01*
X109330537Y-86294494D01*
X109389502Y-86184180D01*
X109411513Y-86111620D01*
X109543368Y-86243475D01*
X109786589Y-86405990D01*
X110056842Y-86517932D01*
X110343740Y-86575000D01*
X110636260Y-86575000D01*
X110923158Y-86517932D01*
X111193411Y-86405990D01*
X111436632Y-86243475D01*
X111643475Y-86036632D01*
X111760000Y-85862240D01*
X111876525Y-86036632D01*
X112083368Y-86243475D01*
X112270000Y-86368179D01*
X112270000Y-87592677D01*
X112266324Y-87630000D01*
X112270000Y-87667322D01*
X112270000Y-87667332D01*
X112280997Y-87778985D01*
X112305577Y-87860015D01*
X112324454Y-87922246D01*
X112395026Y-88054276D01*
X112408516Y-88070713D01*
X112489999Y-88170001D01*
X112519003Y-88193804D01*
X115693997Y-91368799D01*
X115694002Y-91368803D01*
X117350001Y-93024803D01*
X117350001Y-93908017D01*
X117258574Y-93870147D01*
X116981335Y-93815000D01*
X116698665Y-93815000D01*
X116421426Y-93870147D01*
X116160273Y-93978320D01*
X115925241Y-94135363D01*
X115725363Y-94335241D01*
X115570000Y-94567759D01*
X115414637Y-94335241D01*
X115214759Y-94135363D01*
X114979727Y-93978320D01*
X114718574Y-93870147D01*
X114441335Y-93815000D01*
X114158665Y-93815000D01*
X113881426Y-93870147D01*
X113620273Y-93978320D01*
X113385241Y-94135363D01*
X113185363Y-94335241D01*
X113030000Y-94567759D01*
X112874637Y-94335241D01*
X112674759Y-94135363D01*
X112439727Y-93978320D01*
X112178574Y-93870147D01*
X111901335Y-93815000D01*
X111618665Y-93815000D01*
X111341426Y-93870147D01*
X111080273Y-93978320D01*
X110845241Y-94135363D01*
X110645363Y-94335241D01*
X110490000Y-94567759D01*
X110334637Y-94335241D01*
X110134759Y-94135363D01*
X109899727Y-93978320D01*
X109638574Y-93870147D01*
X109361335Y-93815000D01*
X109078665Y-93815000D01*
X108801426Y-93870147D01*
X108540273Y-93978320D01*
X108305241Y-94135363D01*
X108105363Y-94335241D01*
X107948320Y-94570273D01*
X107943933Y-94580865D01*
X107832385Y-94394869D01*
X107643414Y-94186481D01*
X107417420Y-94018963D01*
X107163087Y-93898754D01*
X107029039Y-93858096D01*
X106807000Y-93980085D01*
X106807000Y-95123000D01*
X106827000Y-95123000D01*
X106827000Y-95377000D01*
X106807000Y-95377000D01*
X106807000Y-96519915D01*
X107029039Y-96641904D01*
X107163087Y-96601246D01*
X107417420Y-96481037D01*
X107643414Y-96313519D01*
X107832385Y-96105131D01*
X107943933Y-95919135D01*
X107948320Y-95929727D01*
X108105363Y-96164759D01*
X108305241Y-96364637D01*
X108540273Y-96521680D01*
X108801426Y-96629853D01*
X109078665Y-96685000D01*
X109361335Y-96685000D01*
X109638574Y-96629853D01*
X109899727Y-96521680D01*
X110134759Y-96364637D01*
X110334637Y-96164759D01*
X110490000Y-95932241D01*
X110645363Y-96164759D01*
X110845241Y-96364637D01*
X111080273Y-96521680D01*
X111341426Y-96629853D01*
X111618665Y-96685000D01*
X111901335Y-96685000D01*
X112178574Y-96629853D01*
X112439727Y-96521680D01*
X112674759Y-96364637D01*
X112874637Y-96164759D01*
X113030000Y-95932241D01*
X113185363Y-96164759D01*
X113385241Y-96364637D01*
X113415001Y-96384522D01*
X113415000Y-97423421D01*
X112663422Y-98175000D01*
X110533465Y-98175000D01*
X110489999Y-98170719D01*
X110446533Y-98175000D01*
X110446523Y-98175000D01*
X110316510Y-98187805D01*
X110149687Y-98238411D01*
X109995941Y-98320589D01*
X109995939Y-98320590D01*
X109995940Y-98320590D01*
X109894953Y-98403468D01*
X109894951Y-98403470D01*
X109861183Y-98431183D01*
X109833470Y-98464951D01*
X108624951Y-99673471D01*
X108591184Y-99701183D01*
X108563471Y-99734951D01*
X108563468Y-99734954D01*
X108480590Y-99835941D01*
X108398412Y-99989687D01*
X108347805Y-100156510D01*
X108330719Y-100330000D01*
X108335001Y-100373479D01*
X108335000Y-101735478D01*
X108305241Y-101755363D01*
X108106643Y-101953961D01*
X108105812Y-101945518D01*
X108069502Y-101825820D01*
X108010537Y-101715506D01*
X107931185Y-101618815D01*
X107834494Y-101539463D01*
X107724180Y-101480498D01*
X107604482Y-101444188D01*
X107480000Y-101431928D01*
X105880000Y-101431928D01*
X105755518Y-101444188D01*
X105635820Y-101480498D01*
X105525506Y-101539463D01*
X105428815Y-101618815D01*
X105349463Y-101715506D01*
X105290498Y-101825820D01*
X105254188Y-101945518D01*
X105241928Y-102070000D01*
X105241928Y-103380000D01*
X100644802Y-103380000D01*
X99857504Y-102592702D01*
X100786903Y-102592702D01*
X100858486Y-102836671D01*
X101113996Y-102957571D01*
X101388184Y-103026300D01*
X101670512Y-103040217D01*
X101950130Y-102998787D01*
X102216292Y-102903603D01*
X102341514Y-102836671D01*
X102413097Y-102592702D01*
X101600000Y-101779605D01*
X100786903Y-102592702D01*
X99857504Y-102592702D01*
X99820000Y-102555199D01*
X99820000Y-101670512D01*
X100159783Y-101670512D01*
X100201213Y-101950130D01*
X100296397Y-102216292D01*
X100363329Y-102341514D01*
X100607298Y-102413097D01*
X101420395Y-101600000D01*
X101779605Y-101600000D01*
X102592702Y-102413097D01*
X102836671Y-102341514D01*
X102957571Y-102086004D01*
X103026300Y-101811816D01*
X103040217Y-101529488D01*
X102998787Y-101249870D01*
X102903603Y-100983708D01*
X102836671Y-100858486D01*
X102592702Y-100786903D01*
X101779605Y-101600000D01*
X101420395Y-101600000D01*
X100607298Y-100786903D01*
X100363329Y-100858486D01*
X100242429Y-101113996D01*
X100173700Y-101388184D01*
X100159783Y-101670512D01*
X99820000Y-101670512D01*
X99820000Y-100607298D01*
X100786903Y-100607298D01*
X101600000Y-101420395D01*
X102413097Y-100607298D01*
X102341514Y-100363329D01*
X102086004Y-100242429D01*
X101811816Y-100173700D01*
X101529488Y-100159783D01*
X101249870Y-100201213D01*
X100983708Y-100296397D01*
X100858486Y-100363329D01*
X100786903Y-100607298D01*
X99820000Y-100607298D01*
X99820000Y-86308043D01*
X99974759Y-86204637D01*
X100174637Y-86004759D01*
X100330000Y-85772241D01*
X100485363Y-86004759D01*
X100685241Y-86204637D01*
X100715001Y-86224522D01*
X100715000Y-95465479D01*
X100685241Y-95485363D01*
X100485363Y-95685241D01*
X100328320Y-95920273D01*
X100220147Y-96181426D01*
X100165000Y-96458665D01*
X100165000Y-96741335D01*
X100220147Y-97018574D01*
X100328320Y-97279727D01*
X100485363Y-97514759D01*
X100685241Y-97714637D01*
X100920273Y-97871680D01*
X101181426Y-97979853D01*
X101458665Y-98035000D01*
X101741335Y-98035000D01*
X102018574Y-97979853D01*
X102279727Y-97871680D01*
X102514759Y-97714637D01*
X102714637Y-97514759D01*
X102871680Y-97279727D01*
X102979853Y-97018574D01*
X103035000Y-96741335D01*
X103035000Y-96458665D01*
X102979853Y-96181426D01*
X102871680Y-95920273D01*
X102714637Y-95685241D01*
X102628436Y-95599040D01*
X105288091Y-95599040D01*
X105382930Y-95863881D01*
X105527615Y-96105131D01*
X105716586Y-96313519D01*
X105942580Y-96481037D01*
X106196913Y-96601246D01*
X106330961Y-96641904D01*
X106553000Y-96519915D01*
X106553000Y-95377000D01*
X105409376Y-95377000D01*
X105288091Y-95599040D01*
X102628436Y-95599040D01*
X102514759Y-95485363D01*
X102485000Y-95465479D01*
X102485000Y-94900960D01*
X105288091Y-94900960D01*
X105409376Y-95123000D01*
X106553000Y-95123000D01*
X106553000Y-93980085D01*
X106330961Y-93858096D01*
X106196913Y-93898754D01*
X105942580Y-94018963D01*
X105716586Y-94186481D01*
X105527615Y-94394869D01*
X105382930Y-94636119D01*
X105288091Y-94900960D01*
X102485000Y-94900960D01*
X102485000Y-86224521D01*
X102514759Y-86204637D01*
X102714637Y-86004759D01*
X102871680Y-85769727D01*
X102979853Y-85508574D01*
X103035000Y-85231335D01*
X103035000Y-84948665D01*
X102979853Y-84671426D01*
X102871680Y-84410273D01*
X102714637Y-84175241D01*
X102514759Y-83975363D01*
X102485000Y-83955479D01*
X102485000Y-82916578D01*
X104100049Y-81301530D01*
X104133817Y-81273817D01*
X104244411Y-81139059D01*
X104326589Y-80985313D01*
X104377195Y-80818490D01*
X104390000Y-80688477D01*
X104390000Y-80688469D01*
X104394281Y-80645000D01*
X104390000Y-80601531D01*
X104390000Y-77201578D01*
X113625049Y-67966530D01*
X113658817Y-67938817D01*
X113728232Y-67854236D01*
X113769410Y-67804060D01*
X113773711Y-67796014D01*
X113851589Y-67650313D01*
X113862977Y-67612772D01*
X114049608Y-67459608D01*
X114228932Y-67241101D01*
X114362182Y-66991808D01*
X114444236Y-66721309D01*
X114465000Y-66510491D01*
X114465000Y-65569508D01*
X114444236Y-65358691D01*
X114362182Y-65088192D01*
X114228932Y-64838899D01*
X114049607Y-64620392D01*
X113831100Y-64441068D01*
X113581807Y-64307818D01*
X113311308Y-64225764D01*
X113030000Y-64198057D01*
X112748691Y-64225764D01*
X112478192Y-64307818D01*
X112228899Y-64441068D01*
X112010392Y-64620393D01*
X111831068Y-64838900D01*
X111760000Y-64971858D01*
X111688932Y-64838899D01*
X111509607Y-64620392D01*
X111291100Y-64441068D01*
X111041807Y-64307818D01*
X110771308Y-64225764D01*
X110490000Y-64198057D01*
X110208691Y-64225764D01*
X109980000Y-64295136D01*
X109980000Y-63814801D01*
X113541004Y-60253798D01*
X113570001Y-60230001D01*
X113664974Y-60114276D01*
X113669873Y-60105110D01*
X113831101Y-60018932D01*
X114049608Y-59839608D01*
X114228932Y-59621101D01*
X114362182Y-59371808D01*
X114444236Y-59101309D01*
X114465000Y-58890491D01*
X114465000Y-57949508D01*
X114444236Y-57738691D01*
X114362182Y-57468192D01*
X114228932Y-57218899D01*
X114049607Y-57000392D01*
X113831100Y-56821068D01*
X113581807Y-56687818D01*
X113424170Y-56640000D01*
X116525199Y-56640000D01*
X117350001Y-57464803D01*
G37*
G04 #@! TD.AperFunction*
D19*
X80520000Y-75244802D02*
X80520001Y-76251956D01*
X80365241Y-76355363D01*
X80165363Y-76555241D01*
X80008320Y-76790273D01*
X80003933Y-76800865D01*
X79892385Y-76614869D01*
X79703414Y-76406481D01*
X79477420Y-76238963D01*
X79223087Y-76118754D01*
X79089039Y-76078096D01*
X78867000Y-76200085D01*
X78867000Y-77343000D01*
X78887000Y-77343000D01*
X78887000Y-77597000D01*
X78867000Y-77597000D01*
X78867000Y-78739915D01*
X79089039Y-78861904D01*
X79223087Y-78821246D01*
X79477420Y-78701037D01*
X79703414Y-78533519D01*
X79892385Y-78325131D01*
X80003933Y-78139135D01*
X80008320Y-78149727D01*
X80165363Y-78384759D01*
X80365241Y-78584637D01*
X80600273Y-78741680D01*
X80861426Y-78849853D01*
X81138665Y-78905000D01*
X81421335Y-78905000D01*
X81698574Y-78849853D01*
X81885000Y-78772633D01*
X81885000Y-79600198D01*
X78229003Y-83256196D01*
X78199999Y-83279999D01*
X78153291Y-83336913D01*
X78105026Y-83395724D01*
X78090877Y-83422195D01*
X78034454Y-83527754D01*
X77996787Y-83651928D01*
X77940000Y-83651928D01*
X77815518Y-83664188D01*
X77695820Y-83700498D01*
X77585506Y-83759463D01*
X77488815Y-83838815D01*
X77409463Y-83935506D01*
X77350498Y-84045820D01*
X77314188Y-84165518D01*
X77301928Y-84290000D01*
X77301928Y-85890000D01*
X77314188Y-86014482D01*
X77350498Y-86134180D01*
X77409463Y-86244494D01*
X77488815Y-86341185D01*
X77585506Y-86420537D01*
X77695820Y-86479502D01*
X77815518Y-86515812D01*
X77940000Y-86528072D01*
X79540000Y-86528072D01*
X79664482Y-86515812D01*
X79784180Y-86479502D01*
X79894494Y-86420537D01*
X79991185Y-86341185D01*
X80070537Y-86244494D01*
X80129502Y-86134180D01*
X80165812Y-86014482D01*
X80166643Y-86006039D01*
X80365241Y-86204637D01*
X80600273Y-86361680D01*
X80861426Y-86469853D01*
X81138665Y-86525000D01*
X81421335Y-86525000D01*
X81603887Y-86488688D01*
X87066200Y-91951002D01*
X87089999Y-91980001D01*
X87118997Y-92003799D01*
X87205723Y-92074974D01*
X87337751Y-92145545D01*
X87337753Y-92145546D01*
X87481014Y-92189003D01*
X87592667Y-92200000D01*
X87592676Y-92200000D01*
X87629999Y-92203676D01*
X87667322Y-92200000D01*
X92395199Y-92200000D01*
X94490000Y-94294803D01*
X94490001Y-102305199D01*
X89817099Y-97632297D01*
X90014637Y-97434759D01*
X90170000Y-97202241D01*
X90325363Y-97434759D01*
X90525241Y-97634637D01*
X90760273Y-97791680D01*
X91021426Y-97899853D01*
X91298665Y-97955000D01*
X91581335Y-97955000D01*
X91858574Y-97899853D01*
X92119727Y-97791680D01*
X92354759Y-97634637D01*
X92554637Y-97434759D01*
X92711680Y-97199727D01*
X92819853Y-96938574D01*
X92875000Y-96661335D01*
X92875000Y-96378665D01*
X92819853Y-96101426D01*
X92711680Y-95840273D01*
X92554637Y-95605241D01*
X92354759Y-95405363D01*
X92119727Y-95248320D01*
X91858574Y-95140147D01*
X91581335Y-95085000D01*
X91298665Y-95085000D01*
X91021426Y-95140147D01*
X90760273Y-95248320D01*
X90525241Y-95405363D01*
X90325363Y-95605241D01*
X90170000Y-95837759D01*
X90014637Y-95605241D01*
X89814759Y-95405363D01*
X89660000Y-95301957D01*
X89660000Y-95287322D01*
X89663676Y-95249999D01*
X89660000Y-95212676D01*
X89660000Y-95212667D01*
X89649003Y-95101014D01*
X89605546Y-94957753D01*
X89534974Y-94825724D01*
X89440001Y-94709999D01*
X89411003Y-94686201D01*
X85018804Y-90294003D01*
X84995001Y-90264999D01*
X84879276Y-90170026D01*
X84747247Y-90099454D01*
X84603986Y-90055997D01*
X84492333Y-90045000D01*
X84492322Y-90045000D01*
X84455000Y-90041324D01*
X84417678Y-90045000D01*
X74609802Y-90045000D01*
X74223803Y-89659002D01*
X74200001Y-89629999D01*
X74084276Y-89535026D01*
X73952247Y-89464454D01*
X73808986Y-89420997D01*
X73697333Y-89410000D01*
X73697322Y-89410000D01*
X73660000Y-89406324D01*
X73622678Y-89410000D01*
X72954801Y-89410000D01*
X73306008Y-89058793D01*
X73335012Y-89034990D01*
X73429985Y-88919265D01*
X73500557Y-88787236D01*
X73544014Y-88643975D01*
X73555011Y-88532322D01*
X73555011Y-88532313D01*
X73558687Y-88494990D01*
X73555011Y-88457667D01*
X73555011Y-84732702D01*
X74116903Y-84732702D01*
X74188486Y-84976671D01*
X74443996Y-85097571D01*
X74718184Y-85166300D01*
X75000512Y-85180217D01*
X75280130Y-85138787D01*
X75546292Y-85043603D01*
X75671514Y-84976671D01*
X75743097Y-84732702D01*
X74930000Y-83919605D01*
X74116903Y-84732702D01*
X73555011Y-84732702D01*
X73555011Y-84156676D01*
X73626397Y-84356292D01*
X73693329Y-84481514D01*
X73937298Y-84553097D01*
X74750395Y-83740000D01*
X75109605Y-83740000D01*
X75922702Y-84553097D01*
X76166671Y-84481514D01*
X76287571Y-84226004D01*
X76356300Y-83951816D01*
X76370217Y-83669488D01*
X76328787Y-83389870D01*
X76233603Y-83123708D01*
X76166671Y-82998486D01*
X75922702Y-82926903D01*
X75109605Y-83740000D01*
X74750395Y-83740000D01*
X73937298Y-82926903D01*
X73693329Y-82998486D01*
X73572429Y-83253996D01*
X73555011Y-83323484D01*
X73555011Y-82747298D01*
X74116903Y-82747298D01*
X74930000Y-83560395D01*
X75743097Y-82747298D01*
X75671514Y-82503329D01*
X75416004Y-82382429D01*
X75141816Y-82313700D01*
X74859488Y-82299783D01*
X74579870Y-82341213D01*
X74313708Y-82436397D01*
X74188486Y-82503329D01*
X74116903Y-82747298D01*
X73555011Y-82747298D01*
X73555011Y-80452333D01*
X73558687Y-80415010D01*
X73555011Y-80377687D01*
X73555011Y-80377678D01*
X73544014Y-80266025D01*
X73500557Y-80122764D01*
X73429985Y-79990735D01*
X73335012Y-79875010D01*
X73306015Y-79851213D01*
X72053467Y-78598665D01*
X73495000Y-78598665D01*
X73495000Y-78881335D01*
X73550147Y-79158574D01*
X73658320Y-79419727D01*
X73815363Y-79654759D01*
X74015241Y-79854637D01*
X74250273Y-80011680D01*
X74511426Y-80119853D01*
X74788665Y-80175000D01*
X75071335Y-80175000D01*
X75348574Y-80119853D01*
X75609727Y-80011680D01*
X75844759Y-79854637D01*
X76044637Y-79654759D01*
X76201680Y-79419727D01*
X76309853Y-79158574D01*
X76365000Y-78881335D01*
X76365000Y-78598665D01*
X76309853Y-78321426D01*
X76201680Y-78060273D01*
X76044637Y-77825241D01*
X76038436Y-77819040D01*
X77348091Y-77819040D01*
X77442930Y-78083881D01*
X77587615Y-78325131D01*
X77776586Y-78533519D01*
X78002580Y-78701037D01*
X78256913Y-78821246D01*
X78390961Y-78861904D01*
X78613000Y-78739915D01*
X78613000Y-77597000D01*
X77469376Y-77597000D01*
X77348091Y-77819040D01*
X76038436Y-77819040D01*
X75844759Y-77625363D01*
X75609727Y-77468320D01*
X75348574Y-77360147D01*
X75071335Y-77305000D01*
X74788665Y-77305000D01*
X74511426Y-77360147D01*
X74250273Y-77468320D01*
X74015241Y-77625363D01*
X73815363Y-77825241D01*
X73658320Y-78060273D01*
X73550147Y-78321426D01*
X73495000Y-78598665D01*
X72053467Y-78598665D01*
X71683804Y-78229003D01*
X71660001Y-78199999D01*
X71544276Y-78105026D01*
X71412247Y-78034454D01*
X71268986Y-77990997D01*
X71157333Y-77980000D01*
X71157322Y-77980000D01*
X71120000Y-77976324D01*
X71082678Y-77980000D01*
X70164802Y-77980000D01*
X69340000Y-77155199D01*
X69340000Y-74609801D01*
X69529802Y-74420000D01*
X69901957Y-74420000D01*
X70005363Y-74574759D01*
X70205241Y-74774637D01*
X70437759Y-74930000D01*
X70205241Y-75085363D01*
X70005363Y-75285241D01*
X69848320Y-75520273D01*
X69740147Y-75781426D01*
X69685000Y-76058665D01*
X69685000Y-76341335D01*
X69740147Y-76618574D01*
X69848320Y-76879727D01*
X70005363Y-77114759D01*
X70205241Y-77314637D01*
X70440273Y-77471680D01*
X70701426Y-77579853D01*
X70978665Y-77635000D01*
X71261335Y-77635000D01*
X71538574Y-77579853D01*
X71799727Y-77471680D01*
X72034759Y-77314637D01*
X72228436Y-77120960D01*
X77348091Y-77120960D01*
X77469376Y-77343000D01*
X78613000Y-77343000D01*
X78613000Y-76200085D01*
X78390961Y-76078096D01*
X78256913Y-76118754D01*
X78002580Y-76238963D01*
X77776586Y-76406481D01*
X77587615Y-76614869D01*
X77442930Y-76856119D01*
X77348091Y-77120960D01*
X72228436Y-77120960D01*
X72234637Y-77114759D01*
X72391680Y-76879727D01*
X72499853Y-76618574D01*
X72555000Y-76341335D01*
X72555000Y-76058665D01*
X72499853Y-75781426D01*
X72391680Y-75520273D01*
X72234637Y-75285241D01*
X72034759Y-75085363D01*
X71802241Y-74930000D01*
X72034759Y-74774637D01*
X72234637Y-74574759D01*
X72391680Y-74339727D01*
X72499853Y-74078574D01*
X72555000Y-73801335D01*
X72555000Y-73518665D01*
X72499853Y-73241426D01*
X72391680Y-72980273D01*
X72234637Y-72745241D01*
X72034759Y-72545363D01*
X71802241Y-72390000D01*
X72034759Y-72234637D01*
X72234637Y-72034759D01*
X72338043Y-71880000D01*
X77155199Y-71880000D01*
X80520000Y-75244802D01*
G04 #@! TA.AperFunction,Conductor*
D20*
G36*
X80520000Y-75244802D02*
G01*
X80520001Y-76251956D01*
X80365241Y-76355363D01*
X80165363Y-76555241D01*
X80008320Y-76790273D01*
X80003933Y-76800865D01*
X79892385Y-76614869D01*
X79703414Y-76406481D01*
X79477420Y-76238963D01*
X79223087Y-76118754D01*
X79089039Y-76078096D01*
X78867000Y-76200085D01*
X78867000Y-77343000D01*
X78887000Y-77343000D01*
X78887000Y-77597000D01*
X78867000Y-77597000D01*
X78867000Y-78739915D01*
X79089039Y-78861904D01*
X79223087Y-78821246D01*
X79477420Y-78701037D01*
X79703414Y-78533519D01*
X79892385Y-78325131D01*
X80003933Y-78139135D01*
X80008320Y-78149727D01*
X80165363Y-78384759D01*
X80365241Y-78584637D01*
X80600273Y-78741680D01*
X80861426Y-78849853D01*
X81138665Y-78905000D01*
X81421335Y-78905000D01*
X81698574Y-78849853D01*
X81885000Y-78772633D01*
X81885000Y-79600198D01*
X78229003Y-83256196D01*
X78199999Y-83279999D01*
X78153291Y-83336913D01*
X78105026Y-83395724D01*
X78090877Y-83422195D01*
X78034454Y-83527754D01*
X77996787Y-83651928D01*
X77940000Y-83651928D01*
X77815518Y-83664188D01*
X77695820Y-83700498D01*
X77585506Y-83759463D01*
X77488815Y-83838815D01*
X77409463Y-83935506D01*
X77350498Y-84045820D01*
X77314188Y-84165518D01*
X77301928Y-84290000D01*
X77301928Y-85890000D01*
X77314188Y-86014482D01*
X77350498Y-86134180D01*
X77409463Y-86244494D01*
X77488815Y-86341185D01*
X77585506Y-86420537D01*
X77695820Y-86479502D01*
X77815518Y-86515812D01*
X77940000Y-86528072D01*
X79540000Y-86528072D01*
X79664482Y-86515812D01*
X79784180Y-86479502D01*
X79894494Y-86420537D01*
X79991185Y-86341185D01*
X80070537Y-86244494D01*
X80129502Y-86134180D01*
X80165812Y-86014482D01*
X80166643Y-86006039D01*
X80365241Y-86204637D01*
X80600273Y-86361680D01*
X80861426Y-86469853D01*
X81138665Y-86525000D01*
X81421335Y-86525000D01*
X81603887Y-86488688D01*
X87066200Y-91951002D01*
X87089999Y-91980001D01*
X87118997Y-92003799D01*
X87205723Y-92074974D01*
X87337751Y-92145545D01*
X87337753Y-92145546D01*
X87481014Y-92189003D01*
X87592667Y-92200000D01*
X87592676Y-92200000D01*
X87629999Y-92203676D01*
X87667322Y-92200000D01*
X92395199Y-92200000D01*
X94490000Y-94294803D01*
X94490001Y-102305199D01*
X89817099Y-97632297D01*
X90014637Y-97434759D01*
X90170000Y-97202241D01*
X90325363Y-97434759D01*
X90525241Y-97634637D01*
X90760273Y-97791680D01*
X91021426Y-97899853D01*
X91298665Y-97955000D01*
X91581335Y-97955000D01*
X91858574Y-97899853D01*
X92119727Y-97791680D01*
X92354759Y-97634637D01*
X92554637Y-97434759D01*
X92711680Y-97199727D01*
X92819853Y-96938574D01*
X92875000Y-96661335D01*
X92875000Y-96378665D01*
X92819853Y-96101426D01*
X92711680Y-95840273D01*
X92554637Y-95605241D01*
X92354759Y-95405363D01*
X92119727Y-95248320D01*
X91858574Y-95140147D01*
X91581335Y-95085000D01*
X91298665Y-95085000D01*
X91021426Y-95140147D01*
X90760273Y-95248320D01*
X90525241Y-95405363D01*
X90325363Y-95605241D01*
X90170000Y-95837759D01*
X90014637Y-95605241D01*
X89814759Y-95405363D01*
X89660000Y-95301957D01*
X89660000Y-95287322D01*
X89663676Y-95249999D01*
X89660000Y-95212676D01*
X89660000Y-95212667D01*
X89649003Y-95101014D01*
X89605546Y-94957753D01*
X89534974Y-94825724D01*
X89440001Y-94709999D01*
X89411003Y-94686201D01*
X85018804Y-90294003D01*
X84995001Y-90264999D01*
X84879276Y-90170026D01*
X84747247Y-90099454D01*
X84603986Y-90055997D01*
X84492333Y-90045000D01*
X84492322Y-90045000D01*
X84455000Y-90041324D01*
X84417678Y-90045000D01*
X74609802Y-90045000D01*
X74223803Y-89659002D01*
X74200001Y-89629999D01*
X74084276Y-89535026D01*
X73952247Y-89464454D01*
X73808986Y-89420997D01*
X73697333Y-89410000D01*
X73697322Y-89410000D01*
X73660000Y-89406324D01*
X73622678Y-89410000D01*
X72954801Y-89410000D01*
X73306008Y-89058793D01*
X73335012Y-89034990D01*
X73429985Y-88919265D01*
X73500557Y-88787236D01*
X73544014Y-88643975D01*
X73555011Y-88532322D01*
X73555011Y-88532313D01*
X73558687Y-88494990D01*
X73555011Y-88457667D01*
X73555011Y-84732702D01*
X74116903Y-84732702D01*
X74188486Y-84976671D01*
X74443996Y-85097571D01*
X74718184Y-85166300D01*
X75000512Y-85180217D01*
X75280130Y-85138787D01*
X75546292Y-85043603D01*
X75671514Y-84976671D01*
X75743097Y-84732702D01*
X74930000Y-83919605D01*
X74116903Y-84732702D01*
X73555011Y-84732702D01*
X73555011Y-84156676D01*
X73626397Y-84356292D01*
X73693329Y-84481514D01*
X73937298Y-84553097D01*
X74750395Y-83740000D01*
X75109605Y-83740000D01*
X75922702Y-84553097D01*
X76166671Y-84481514D01*
X76287571Y-84226004D01*
X76356300Y-83951816D01*
X76370217Y-83669488D01*
X76328787Y-83389870D01*
X76233603Y-83123708D01*
X76166671Y-82998486D01*
X75922702Y-82926903D01*
X75109605Y-83740000D01*
X74750395Y-83740000D01*
X73937298Y-82926903D01*
X73693329Y-82998486D01*
X73572429Y-83253996D01*
X73555011Y-83323484D01*
X73555011Y-82747298D01*
X74116903Y-82747298D01*
X74930000Y-83560395D01*
X75743097Y-82747298D01*
X75671514Y-82503329D01*
X75416004Y-82382429D01*
X75141816Y-82313700D01*
X74859488Y-82299783D01*
X74579870Y-82341213D01*
X74313708Y-82436397D01*
X74188486Y-82503329D01*
X74116903Y-82747298D01*
X73555011Y-82747298D01*
X73555011Y-80452333D01*
X73558687Y-80415010D01*
X73555011Y-80377687D01*
X73555011Y-80377678D01*
X73544014Y-80266025D01*
X73500557Y-80122764D01*
X73429985Y-79990735D01*
X73335012Y-79875010D01*
X73306015Y-79851213D01*
X72053467Y-78598665D01*
X73495000Y-78598665D01*
X73495000Y-78881335D01*
X73550147Y-79158574D01*
X73658320Y-79419727D01*
X73815363Y-79654759D01*
X74015241Y-79854637D01*
X74250273Y-80011680D01*
X74511426Y-80119853D01*
X74788665Y-80175000D01*
X75071335Y-80175000D01*
X75348574Y-80119853D01*
X75609727Y-80011680D01*
X75844759Y-79854637D01*
X76044637Y-79654759D01*
X76201680Y-79419727D01*
X76309853Y-79158574D01*
X76365000Y-78881335D01*
X76365000Y-78598665D01*
X76309853Y-78321426D01*
X76201680Y-78060273D01*
X76044637Y-77825241D01*
X76038436Y-77819040D01*
X77348091Y-77819040D01*
X77442930Y-78083881D01*
X77587615Y-78325131D01*
X77776586Y-78533519D01*
X78002580Y-78701037D01*
X78256913Y-78821246D01*
X78390961Y-78861904D01*
X78613000Y-78739915D01*
X78613000Y-77597000D01*
X77469376Y-77597000D01*
X77348091Y-77819040D01*
X76038436Y-77819040D01*
X75844759Y-77625363D01*
X75609727Y-77468320D01*
X75348574Y-77360147D01*
X75071335Y-77305000D01*
X74788665Y-77305000D01*
X74511426Y-77360147D01*
X74250273Y-77468320D01*
X74015241Y-77625363D01*
X73815363Y-77825241D01*
X73658320Y-78060273D01*
X73550147Y-78321426D01*
X73495000Y-78598665D01*
X72053467Y-78598665D01*
X71683804Y-78229003D01*
X71660001Y-78199999D01*
X71544276Y-78105026D01*
X71412247Y-78034454D01*
X71268986Y-77990997D01*
X71157333Y-77980000D01*
X71157322Y-77980000D01*
X71120000Y-77976324D01*
X71082678Y-77980000D01*
X70164802Y-77980000D01*
X69340000Y-77155199D01*
X69340000Y-74609801D01*
X69529802Y-74420000D01*
X69901957Y-74420000D01*
X70005363Y-74574759D01*
X70205241Y-74774637D01*
X70437759Y-74930000D01*
X70205241Y-75085363D01*
X70005363Y-75285241D01*
X69848320Y-75520273D01*
X69740147Y-75781426D01*
X69685000Y-76058665D01*
X69685000Y-76341335D01*
X69740147Y-76618574D01*
X69848320Y-76879727D01*
X70005363Y-77114759D01*
X70205241Y-77314637D01*
X70440273Y-77471680D01*
X70701426Y-77579853D01*
X70978665Y-77635000D01*
X71261335Y-77635000D01*
X71538574Y-77579853D01*
X71799727Y-77471680D01*
X72034759Y-77314637D01*
X72228436Y-77120960D01*
X77348091Y-77120960D01*
X77469376Y-77343000D01*
X78613000Y-77343000D01*
X78613000Y-76200085D01*
X78390961Y-76078096D01*
X78256913Y-76118754D01*
X78002580Y-76238963D01*
X77776586Y-76406481D01*
X77587615Y-76614869D01*
X77442930Y-76856119D01*
X77348091Y-77120960D01*
X72228436Y-77120960D01*
X72234637Y-77114759D01*
X72391680Y-76879727D01*
X72499853Y-76618574D01*
X72555000Y-76341335D01*
X72555000Y-76058665D01*
X72499853Y-75781426D01*
X72391680Y-75520273D01*
X72234637Y-75285241D01*
X72034759Y-75085363D01*
X71802241Y-74930000D01*
X72034759Y-74774637D01*
X72234637Y-74574759D01*
X72391680Y-74339727D01*
X72499853Y-74078574D01*
X72555000Y-73801335D01*
X72555000Y-73518665D01*
X72499853Y-73241426D01*
X72391680Y-72980273D01*
X72234637Y-72745241D01*
X72034759Y-72545363D01*
X71802241Y-72390000D01*
X72034759Y-72234637D01*
X72234637Y-72034759D01*
X72338043Y-71880000D01*
X77155199Y-71880000D01*
X80520000Y-75244802D01*
G37*
G04 #@! TD.AperFunction*
D19*
X132590000Y-74609802D02*
X132590001Y-75527661D01*
X132590000Y-75527668D01*
X132590000Y-76162668D01*
X132590001Y-93908017D01*
X132498574Y-93870147D01*
X132221335Y-93815000D01*
X131938665Y-93815000D01*
X131661426Y-93870147D01*
X131400273Y-93978320D01*
X131165241Y-94135363D01*
X130965363Y-94335241D01*
X130810000Y-94567759D01*
X130654637Y-94335241D01*
X130454759Y-94135363D01*
X130219727Y-93978320D01*
X129958574Y-93870147D01*
X129681335Y-93815000D01*
X129398665Y-93815000D01*
X129121426Y-93870147D01*
X128860273Y-93978320D01*
X128625241Y-94135363D01*
X128425363Y-94335241D01*
X128270000Y-94567759D01*
X128114637Y-94335241D01*
X127914759Y-94135363D01*
X127679727Y-93978320D01*
X127418574Y-93870147D01*
X127141335Y-93815000D01*
X126858665Y-93815000D01*
X126581426Y-93870147D01*
X126320273Y-93978320D01*
X126085241Y-94135363D01*
X125885363Y-94335241D01*
X125730000Y-94567759D01*
X125574637Y-94335241D01*
X125374759Y-94135363D01*
X125139727Y-93978320D01*
X124878574Y-93870147D01*
X124601335Y-93815000D01*
X124318665Y-93815000D01*
X124041426Y-93870147D01*
X123780273Y-93978320D01*
X123545241Y-94135363D01*
X123345363Y-94335241D01*
X123190000Y-94567759D01*
X123034637Y-94335241D01*
X122834759Y-94135363D01*
X122599727Y-93978320D01*
X122338574Y-93870147D01*
X122061335Y-93815000D01*
X121778665Y-93815000D01*
X121501426Y-93870147D01*
X121240273Y-93978320D01*
X121005241Y-94135363D01*
X120805363Y-94335241D01*
X120650000Y-94567759D01*
X120494637Y-94335241D01*
X120294759Y-94135363D01*
X120059727Y-93978320D01*
X119798574Y-93870147D01*
X119521335Y-93815000D01*
X119238665Y-93815000D01*
X118961426Y-93870147D01*
X118870000Y-93908017D01*
X118870000Y-92747323D01*
X118873676Y-92710000D01*
X118870000Y-92672677D01*
X118870000Y-92672667D01*
X118859003Y-92561014D01*
X118815546Y-92417753D01*
X118744974Y-92285724D01*
X118650001Y-92169999D01*
X118621003Y-92146201D01*
X116768803Y-90294002D01*
X116768799Y-90293997D01*
X114453841Y-87979039D01*
X119258096Y-87979039D01*
X119298754Y-88113087D01*
X119418963Y-88367420D01*
X119586481Y-88593414D01*
X119794869Y-88782385D01*
X120036119Y-88927070D01*
X120300960Y-89021909D01*
X120523000Y-88900624D01*
X120523000Y-87757000D01*
X120777000Y-87757000D01*
X120777000Y-88900624D01*
X120999040Y-89021909D01*
X121263881Y-88927070D01*
X121505131Y-88782385D01*
X121713519Y-88593414D01*
X121881037Y-88367420D01*
X122001246Y-88113087D01*
X122041904Y-87979039D01*
X121919915Y-87757000D01*
X120777000Y-87757000D01*
X120523000Y-87757000D01*
X119380085Y-87757000D01*
X119258096Y-87979039D01*
X114453841Y-87979039D01*
X113790000Y-87315199D01*
X113790000Y-86368178D01*
X113976632Y-86243475D01*
X114183475Y-86036632D01*
X114345990Y-85793411D01*
X114457932Y-85523158D01*
X114515000Y-85236260D01*
X114515000Y-84943740D01*
X114457932Y-84656842D01*
X114345990Y-84386589D01*
X114183475Y-84143368D01*
X113976632Y-83936525D01*
X113733411Y-83774010D01*
X113463158Y-83662068D01*
X113176260Y-83605000D01*
X112883740Y-83605000D01*
X112596842Y-83662068D01*
X112326589Y-83774010D01*
X112083368Y-83936525D01*
X111876525Y-84143368D01*
X111760000Y-84317760D01*
X111643475Y-84143368D01*
X111436632Y-83936525D01*
X111250000Y-83811822D01*
X111250000Y-82864801D01*
X112074802Y-82040000D01*
X119308017Y-82040000D01*
X119270147Y-82131426D01*
X119215000Y-82408665D01*
X119215000Y-82691335D01*
X119270147Y-82968574D01*
X119378320Y-83229727D01*
X119535363Y-83464759D01*
X119735241Y-83664637D01*
X119967759Y-83820000D01*
X119735241Y-83975363D01*
X119535363Y-84175241D01*
X119378320Y-84410273D01*
X119270147Y-84671426D01*
X119215000Y-84948665D01*
X119215000Y-85231335D01*
X119270147Y-85508574D01*
X119378320Y-85769727D01*
X119535363Y-86004759D01*
X119735241Y-86204637D01*
X119970273Y-86361680D01*
X119980865Y-86366067D01*
X119794869Y-86477615D01*
X119586481Y-86666586D01*
X119418963Y-86892580D01*
X119298754Y-87146913D01*
X119258096Y-87280961D01*
X119380085Y-87503000D01*
X120523000Y-87503000D01*
X120523000Y-87483000D01*
X120777000Y-87483000D01*
X120777000Y-87503000D01*
X121919915Y-87503000D01*
X122041904Y-87280961D01*
X122001246Y-87146913D01*
X121881037Y-86892580D01*
X121713519Y-86666586D01*
X121505131Y-86477615D01*
X121319135Y-86366067D01*
X121329727Y-86361680D01*
X121564759Y-86204637D01*
X121764637Y-86004759D01*
X121921680Y-85769727D01*
X122029853Y-85508574D01*
X122085000Y-85231335D01*
X122085000Y-84948665D01*
X122029853Y-84671426D01*
X121921680Y-84410273D01*
X121764637Y-84175241D01*
X121564759Y-83975363D01*
X121332241Y-83820000D01*
X121564759Y-83664637D01*
X121764637Y-83464759D01*
X121921680Y-83229727D01*
X122029853Y-82968574D01*
X122085000Y-82691335D01*
X122085000Y-82519801D01*
X126831928Y-87266730D01*
X126831928Y-88430000D01*
X126844188Y-88554482D01*
X126880498Y-88674180D01*
X126939463Y-88784494D01*
X127018815Y-88881185D01*
X127115506Y-88960537D01*
X127225820Y-89019502D01*
X127345518Y-89055812D01*
X127470000Y-89068072D01*
X129070000Y-89068072D01*
X129194482Y-89055812D01*
X129314180Y-89019502D01*
X129424494Y-88960537D01*
X129521185Y-88881185D01*
X129600537Y-88784494D01*
X129659502Y-88674180D01*
X129695812Y-88554482D01*
X129708072Y-88430000D01*
X129708072Y-86830000D01*
X129695812Y-86705518D01*
X129659502Y-86585820D01*
X129600537Y-86475506D01*
X129521185Y-86378815D01*
X129424494Y-86299463D01*
X129314180Y-86240498D01*
X129194482Y-86204188D01*
X129186039Y-86203357D01*
X129384637Y-86004759D01*
X129541680Y-85769727D01*
X129649853Y-85508574D01*
X129705000Y-85231335D01*
X129705000Y-84948665D01*
X129649853Y-84671426D01*
X129541680Y-84410273D01*
X129384637Y-84175241D01*
X129184759Y-83975363D01*
X128952241Y-83820000D01*
X129184759Y-83664637D01*
X129384637Y-83464759D01*
X129541680Y-83229727D01*
X129649853Y-82968574D01*
X129705000Y-82691335D01*
X129705000Y-82408665D01*
X129649853Y-82131426D01*
X129541680Y-81870273D01*
X129384637Y-81635241D01*
X129184759Y-81435363D01*
X128952241Y-81280000D01*
X129184759Y-81124637D01*
X129384637Y-80924759D01*
X129541680Y-80689727D01*
X129649853Y-80428574D01*
X129705000Y-80151335D01*
X129705000Y-79868665D01*
X129649853Y-79591426D01*
X129541680Y-79330273D01*
X129384637Y-79095241D01*
X129184759Y-78895363D01*
X128952241Y-78740000D01*
X129184759Y-78584637D01*
X129384637Y-78384759D01*
X129541680Y-78149727D01*
X129649853Y-77888574D01*
X129705000Y-77611335D01*
X129705000Y-77328665D01*
X129649853Y-77051426D01*
X129541680Y-76790273D01*
X129384637Y-76555241D01*
X129184759Y-76355363D01*
X128952241Y-76200000D01*
X129184759Y-76044637D01*
X129384637Y-75844759D01*
X129541680Y-75609727D01*
X129649853Y-75348574D01*
X129705000Y-75071335D01*
X129705000Y-74788665D01*
X129649853Y-74511426D01*
X129541680Y-74250273D01*
X129384637Y-74015241D01*
X129184759Y-73815363D01*
X128952241Y-73660000D01*
X129184759Y-73504637D01*
X129384637Y-73304759D01*
X129541680Y-73069727D01*
X129649853Y-72808574D01*
X129705000Y-72531335D01*
X129705000Y-72248665D01*
X129649853Y-71971426D01*
X129611983Y-71880000D01*
X129860199Y-71880000D01*
X132590000Y-74609802D01*
G04 #@! TA.AperFunction,Conductor*
D20*
G36*
X132590000Y-74609802D02*
G01*
X132590001Y-75527661D01*
X132590000Y-75527668D01*
X132590000Y-76162668D01*
X132590001Y-93908017D01*
X132498574Y-93870147D01*
X132221335Y-93815000D01*
X131938665Y-93815000D01*
X131661426Y-93870147D01*
X131400273Y-93978320D01*
X131165241Y-94135363D01*
X130965363Y-94335241D01*
X130810000Y-94567759D01*
X130654637Y-94335241D01*
X130454759Y-94135363D01*
X130219727Y-93978320D01*
X129958574Y-93870147D01*
X129681335Y-93815000D01*
X129398665Y-93815000D01*
X129121426Y-93870147D01*
X128860273Y-93978320D01*
X128625241Y-94135363D01*
X128425363Y-94335241D01*
X128270000Y-94567759D01*
X128114637Y-94335241D01*
X127914759Y-94135363D01*
X127679727Y-93978320D01*
X127418574Y-93870147D01*
X127141335Y-93815000D01*
X126858665Y-93815000D01*
X126581426Y-93870147D01*
X126320273Y-93978320D01*
X126085241Y-94135363D01*
X125885363Y-94335241D01*
X125730000Y-94567759D01*
X125574637Y-94335241D01*
X125374759Y-94135363D01*
X125139727Y-93978320D01*
X124878574Y-93870147D01*
X124601335Y-93815000D01*
X124318665Y-93815000D01*
X124041426Y-93870147D01*
X123780273Y-93978320D01*
X123545241Y-94135363D01*
X123345363Y-94335241D01*
X123190000Y-94567759D01*
X123034637Y-94335241D01*
X122834759Y-94135363D01*
X122599727Y-93978320D01*
X122338574Y-93870147D01*
X122061335Y-93815000D01*
X121778665Y-93815000D01*
X121501426Y-93870147D01*
X121240273Y-93978320D01*
X121005241Y-94135363D01*
X120805363Y-94335241D01*
X120650000Y-94567759D01*
X120494637Y-94335241D01*
X120294759Y-94135363D01*
X120059727Y-93978320D01*
X119798574Y-93870147D01*
X119521335Y-93815000D01*
X119238665Y-93815000D01*
X118961426Y-93870147D01*
X118870000Y-93908017D01*
X118870000Y-92747323D01*
X118873676Y-92710000D01*
X118870000Y-92672677D01*
X118870000Y-92672667D01*
X118859003Y-92561014D01*
X118815546Y-92417753D01*
X118744974Y-92285724D01*
X118650001Y-92169999D01*
X118621003Y-92146201D01*
X116768803Y-90294002D01*
X116768799Y-90293997D01*
X114453841Y-87979039D01*
X119258096Y-87979039D01*
X119298754Y-88113087D01*
X119418963Y-88367420D01*
X119586481Y-88593414D01*
X119794869Y-88782385D01*
X120036119Y-88927070D01*
X120300960Y-89021909D01*
X120523000Y-88900624D01*
X120523000Y-87757000D01*
X120777000Y-87757000D01*
X120777000Y-88900624D01*
X120999040Y-89021909D01*
X121263881Y-88927070D01*
X121505131Y-88782385D01*
X121713519Y-88593414D01*
X121881037Y-88367420D01*
X122001246Y-88113087D01*
X122041904Y-87979039D01*
X121919915Y-87757000D01*
X120777000Y-87757000D01*
X120523000Y-87757000D01*
X119380085Y-87757000D01*
X119258096Y-87979039D01*
X114453841Y-87979039D01*
X113790000Y-87315199D01*
X113790000Y-86368178D01*
X113976632Y-86243475D01*
X114183475Y-86036632D01*
X114345990Y-85793411D01*
X114457932Y-85523158D01*
X114515000Y-85236260D01*
X114515000Y-84943740D01*
X114457932Y-84656842D01*
X114345990Y-84386589D01*
X114183475Y-84143368D01*
X113976632Y-83936525D01*
X113733411Y-83774010D01*
X113463158Y-83662068D01*
X113176260Y-83605000D01*
X112883740Y-83605000D01*
X112596842Y-83662068D01*
X112326589Y-83774010D01*
X112083368Y-83936525D01*
X111876525Y-84143368D01*
X111760000Y-84317760D01*
X111643475Y-84143368D01*
X111436632Y-83936525D01*
X111250000Y-83811822D01*
X111250000Y-82864801D01*
X112074802Y-82040000D01*
X119308017Y-82040000D01*
X119270147Y-82131426D01*
X119215000Y-82408665D01*
X119215000Y-82691335D01*
X119270147Y-82968574D01*
X119378320Y-83229727D01*
X119535363Y-83464759D01*
X119735241Y-83664637D01*
X119967759Y-83820000D01*
X119735241Y-83975363D01*
X119535363Y-84175241D01*
X119378320Y-84410273D01*
X119270147Y-84671426D01*
X119215000Y-84948665D01*
X119215000Y-85231335D01*
X119270147Y-85508574D01*
X119378320Y-85769727D01*
X119535363Y-86004759D01*
X119735241Y-86204637D01*
X119970273Y-86361680D01*
X119980865Y-86366067D01*
X119794869Y-86477615D01*
X119586481Y-86666586D01*
X119418963Y-86892580D01*
X119298754Y-87146913D01*
X119258096Y-87280961D01*
X119380085Y-87503000D01*
X120523000Y-87503000D01*
X120523000Y-87483000D01*
X120777000Y-87483000D01*
X120777000Y-87503000D01*
X121919915Y-87503000D01*
X122041904Y-87280961D01*
X122001246Y-87146913D01*
X121881037Y-86892580D01*
X121713519Y-86666586D01*
X121505131Y-86477615D01*
X121319135Y-86366067D01*
X121329727Y-86361680D01*
X121564759Y-86204637D01*
X121764637Y-86004759D01*
X121921680Y-85769727D01*
X122029853Y-85508574D01*
X122085000Y-85231335D01*
X122085000Y-84948665D01*
X122029853Y-84671426D01*
X121921680Y-84410273D01*
X121764637Y-84175241D01*
X121564759Y-83975363D01*
X121332241Y-83820000D01*
X121564759Y-83664637D01*
X121764637Y-83464759D01*
X121921680Y-83229727D01*
X122029853Y-82968574D01*
X122085000Y-82691335D01*
X122085000Y-82519801D01*
X126831928Y-87266730D01*
X126831928Y-88430000D01*
X126844188Y-88554482D01*
X126880498Y-88674180D01*
X126939463Y-88784494D01*
X127018815Y-88881185D01*
X127115506Y-88960537D01*
X127225820Y-89019502D01*
X127345518Y-89055812D01*
X127470000Y-89068072D01*
X129070000Y-89068072D01*
X129194482Y-89055812D01*
X129314180Y-89019502D01*
X129424494Y-88960537D01*
X129521185Y-88881185D01*
X129600537Y-88784494D01*
X129659502Y-88674180D01*
X129695812Y-88554482D01*
X129708072Y-88430000D01*
X129708072Y-86830000D01*
X129695812Y-86705518D01*
X129659502Y-86585820D01*
X129600537Y-86475506D01*
X129521185Y-86378815D01*
X129424494Y-86299463D01*
X129314180Y-86240498D01*
X129194482Y-86204188D01*
X129186039Y-86203357D01*
X129384637Y-86004759D01*
X129541680Y-85769727D01*
X129649853Y-85508574D01*
X129705000Y-85231335D01*
X129705000Y-84948665D01*
X129649853Y-84671426D01*
X129541680Y-84410273D01*
X129384637Y-84175241D01*
X129184759Y-83975363D01*
X128952241Y-83820000D01*
X129184759Y-83664637D01*
X129384637Y-83464759D01*
X129541680Y-83229727D01*
X129649853Y-82968574D01*
X129705000Y-82691335D01*
X129705000Y-82408665D01*
X129649853Y-82131426D01*
X129541680Y-81870273D01*
X129384637Y-81635241D01*
X129184759Y-81435363D01*
X128952241Y-81280000D01*
X129184759Y-81124637D01*
X129384637Y-80924759D01*
X129541680Y-80689727D01*
X129649853Y-80428574D01*
X129705000Y-80151335D01*
X129705000Y-79868665D01*
X129649853Y-79591426D01*
X129541680Y-79330273D01*
X129384637Y-79095241D01*
X129184759Y-78895363D01*
X128952241Y-78740000D01*
X129184759Y-78584637D01*
X129384637Y-78384759D01*
X129541680Y-78149727D01*
X129649853Y-77888574D01*
X129705000Y-77611335D01*
X129705000Y-77328665D01*
X129649853Y-77051426D01*
X129541680Y-76790273D01*
X129384637Y-76555241D01*
X129184759Y-76355363D01*
X128952241Y-76200000D01*
X129184759Y-76044637D01*
X129384637Y-75844759D01*
X129541680Y-75609727D01*
X129649853Y-75348574D01*
X129705000Y-75071335D01*
X129705000Y-74788665D01*
X129649853Y-74511426D01*
X129541680Y-74250273D01*
X129384637Y-74015241D01*
X129184759Y-73815363D01*
X128952241Y-73660000D01*
X129184759Y-73504637D01*
X129384637Y-73304759D01*
X129541680Y-73069727D01*
X129649853Y-72808574D01*
X129705000Y-72531335D01*
X129705000Y-72248665D01*
X129649853Y-71971426D01*
X129611983Y-71880000D01*
X129860199Y-71880000D01*
X132590000Y-74609802D01*
G37*
G04 #@! TD.AperFunction*
D19*
X69286200Y-79251002D02*
X69309999Y-79280001D01*
X69425724Y-79374974D01*
X69557753Y-79445546D01*
X69701014Y-79489003D01*
X69812667Y-79500000D01*
X69812676Y-79500000D01*
X69849999Y-79503676D01*
X69887322Y-79500000D01*
X70805199Y-79500000D01*
X72035011Y-80729813D01*
X72035011Y-82721916D01*
X71975131Y-82667615D01*
X71733881Y-82522930D01*
X71469040Y-82428091D01*
X71247000Y-82549376D01*
X71247000Y-83693000D01*
X71267000Y-83693000D01*
X71267000Y-83947000D01*
X71247000Y-83947000D01*
X71247000Y-83967000D01*
X70993000Y-83967000D01*
X70993000Y-83947000D01*
X69850085Y-83947000D01*
X69728096Y-84169039D01*
X69768754Y-84303087D01*
X69888963Y-84557420D01*
X70056481Y-84783414D01*
X70264869Y-84972385D01*
X70450865Y-85083933D01*
X70440273Y-85088320D01*
X70205241Y-85245363D01*
X70007703Y-85442901D01*
X68070000Y-83505199D01*
X68070000Y-83470961D01*
X69728096Y-83470961D01*
X69850085Y-83693000D01*
X70993000Y-83693000D01*
X70993000Y-82549376D01*
X70770960Y-82428091D01*
X70506119Y-82522930D01*
X70264869Y-82667615D01*
X70056481Y-82856586D01*
X69888963Y-83082580D01*
X69768754Y-83336913D01*
X69728096Y-83470961D01*
X68070000Y-83470961D01*
X68070000Y-78034801D01*
X69286200Y-79251002D01*
G04 #@! TA.AperFunction,Conductor*
D20*
G36*
X69286200Y-79251002D02*
G01*
X69309999Y-79280001D01*
X69425724Y-79374974D01*
X69557753Y-79445546D01*
X69701014Y-79489003D01*
X69812667Y-79500000D01*
X69812676Y-79500000D01*
X69849999Y-79503676D01*
X69887322Y-79500000D01*
X70805199Y-79500000D01*
X72035011Y-80729813D01*
X72035011Y-82721916D01*
X71975131Y-82667615D01*
X71733881Y-82522930D01*
X71469040Y-82428091D01*
X71247000Y-82549376D01*
X71247000Y-83693000D01*
X71267000Y-83693000D01*
X71267000Y-83947000D01*
X71247000Y-83947000D01*
X71247000Y-83967000D01*
X70993000Y-83967000D01*
X70993000Y-83947000D01*
X69850085Y-83947000D01*
X69728096Y-84169039D01*
X69768754Y-84303087D01*
X69888963Y-84557420D01*
X70056481Y-84783414D01*
X70264869Y-84972385D01*
X70450865Y-85083933D01*
X70440273Y-85088320D01*
X70205241Y-85245363D01*
X70007703Y-85442901D01*
X68070000Y-83505199D01*
X68070000Y-83470961D01*
X69728096Y-83470961D01*
X69850085Y-83693000D01*
X70993000Y-83693000D01*
X70993000Y-82549376D01*
X70770960Y-82428091D01*
X70506119Y-82522930D01*
X70264869Y-82667615D01*
X70056481Y-82856586D01*
X69888963Y-83082580D01*
X69768754Y-83336913D01*
X69728096Y-83470961D01*
X68070000Y-83470961D01*
X68070000Y-78034801D01*
X69286200Y-79251002D01*
G37*
G04 #@! TD.AperFunction*
M02*
